<svg width="68" height="25" viewBox="0 0 68 25" fill="none" xmlns="http://www.w3.org/2000/svg">
<path d="M28.7961 10.1942C28.8714 10.3914 29.022 10.5432 29.2178 10.5432C29.4136 10.5432 29.5642 10.4218 29.5943 10.1942L30.5432 7.38728L31.492 10.1942C31.5673 10.3914 31.6878 10.5432 31.8685 10.5432H31.9137C32.1095 10.5432 32.2601 10.4218 32.2902 10.1942L33.5553 6.68934C33.5553 6.64382 33.6005 6.56796 33.6005 6.4921C33.6005 6.29486 33.4499 6.14313 33.224 6.14313C33.0282 6.14313 32.9228 6.26451 32.8776 6.41624L31.8836 9.34454L30.9347 6.46175C30.8594 6.26451 30.7389 6.1583 30.5582 6.1583H30.513C30.3172 6.1583 30.2118 6.27968 30.1365 6.46175L29.1877 9.34454L28.2388 6.46175C28.1635 6.26451 28.043 6.1583 27.8623 6.1583C27.6665 6.1583 27.4858 6.31003 27.4858 6.50727C27.4858 6.58313 27.5309 6.62865 27.5309 6.70452L28.7961 10.1942ZM35.5585 10.5432C36.2513 10.5432 36.7031 10.2397 36.9742 9.96662V10.1639C36.9742 10.3611 37.1248 10.5128 37.3507 10.5128C37.5465 10.5128 37.6971 10.3611 37.6971 10.1335V7.90315C37.6971 7.35693 37.5465 6.94728 37.2453 6.62865C36.9441 6.3252 36.4772 6.17348 35.8747 6.17348C35.3777 6.17348 34.956 6.24934 34.5042 6.44658C34.3837 6.4921 34.2783 6.59831 34.2783 6.75003C34.2783 6.94728 34.4289 7.099 34.6247 7.099C34.6699 7.099 34.7 7.099 34.7753 7.05348C35.1217 6.90176 35.4681 6.8259 35.7994 6.8259C36.3416 6.8259 36.9441 7.02314 36.9441 7.85763V7.90315C36.6429 7.82728 36.2964 7.75142 35.7543 7.75142C34.6397 7.75142 33.9168 8.29763 33.9168 9.13212C33.962 10.0728 34.7602 10.5432 35.5585 10.5432ZM34.7301 9.1473C34.7301 8.6466 35.1518 8.3735 35.8446 8.3735C36.2211 8.3735 36.6127 8.41901 36.9893 8.52522V8.87419C36.9893 9.45075 36.4169 9.90593 35.694 9.90593C35.2271 9.9211 34.7301 9.69351 34.7301 9.1473ZM39.0827 10.4977C39.2785 10.4977 39.4593 10.3459 39.4593 10.1183V8.73764C39.4593 7.7059 39.9563 7.03831 40.8298 6.9321C41.0256 6.88659 41.1762 6.73486 41.1762 6.55279C41.1762 6.3252 41.0256 6.17348 40.7997 6.17348C40.3027 6.17348 39.7755 6.52245 39.4593 7.05348V6.55279C39.4593 6.3252 39.3086 6.17348 39.0827 6.17348C38.8869 6.17348 38.7062 6.3252 38.7062 6.55279V10.1335C38.6911 10.3459 38.8869 10.4977 39.0827 10.4977ZM45.1523 9.64799C45.1523 9.45075 45.0017 9.29902 44.8059 9.29902C44.6854 9.29902 44.6101 9.34454 44.58 9.37489C44.2336 9.67834 43.8872 9.83006 43.4354 9.83006C42.7124 9.83006 42.1702 9.32937 42.0648 8.55557H44.9264C45.1222 8.55557 45.2728 8.40384 45.2728 8.2066C45.2728 7.12935 44.58 6.05209 43.3299 6.05209C42.1853 6.05209 41.3118 7.00797 41.3118 8.28246C41.3118 9.55696 42.2305 10.5128 43.4203 10.5128C44.0679 10.5128 44.5649 10.3156 45.0318 9.86041C45.1222 9.84524 45.1523 9.76937 45.1523 9.64799ZM43.3601 6.7652C44.1583 6.7652 44.5047 7.41763 44.58 8.0397H42.0949C42.1702 7.29625 42.7124 6.7652 43.3601 6.7652ZM49.0531 10.1183C49.0531 10.3459 49.2037 10.4977 49.4296 10.4977C49.6254 10.4977 49.8062 10.3459 49.8062 10.1183V7.84246C49.8062 6.81072 49.1585 6.11279 48.1645 6.11279C47.5922 6.11279 47.1705 6.34037 46.8241 6.7652V4.83829C46.8241 4.64105 46.6735 4.45898 46.4476 4.45898C46.2518 4.45898 46.071 4.6107 46.071 4.83829V10.1183C46.071 10.3459 46.2216 10.4977 46.4476 10.4977C46.6735 10.4977 46.8241 10.3459 46.8241 10.1183V8.0397C46.8241 7.31142 47.2759 6.81072 47.9687 6.81072C48.6163 6.81072 49.0381 7.23556 49.0381 8.00936V10.1183H49.0531ZM54.9721 8.34315C54.9721 7.06866 54.0232 6.11279 52.7581 6.11279C51.5382 6.11279 50.5442 7.06866 50.5442 8.34315C50.5442 9.57213 51.493 10.5432 52.728 10.5432C53.9781 10.5735 54.9721 9.57213 54.9721 8.34315ZM54.204 8.34315C54.204 9.19282 53.5865 9.84523 52.7581 9.84523C51.9599 9.84523 51.3123 9.19282 51.3123 8.31281C51.3123 7.4328 51.9298 6.78038 52.728 6.78038C53.5564 6.81072 54.204 7.46314 54.204 8.34315ZM58.6771 9.9211V10.1487C58.6771 10.3763 58.8277 10.528 59.0536 10.528C59.2494 10.528 59.4301 10.3763 59.4301 10.1487V6.56796C59.4301 6.34037 59.2795 6.18865 59.0536 6.18865C58.8578 6.18865 58.6771 6.34037 58.6771 6.56796V8.6466C58.6771 9.37489 58.2253 9.87558 57.5325 9.87558C56.8848 9.87558 56.4631 9.45075 56.4631 8.72247V6.59831C56.4631 6.40106 56.3125 6.21899 56.0866 6.21899C55.8607 6.21899 55.7101 6.37072 55.7101 6.59831V8.87419C55.7101 9.90593 56.3577 10.6039 57.3517 10.6039C57.8789 10.5432 58.3307 10.3459 58.6771 9.9211ZM60.2886 9.99696C60.7404 10.3459 61.3579 10.5432 61.9001 10.5432C62.8189 10.5432 63.4213 9.99696 63.4213 9.23833C63.4213 8.38867 62.6231 8.16108 62.0508 8.00936C61.5537 7.85763 61.0567 7.7059 61.0567 7.38728C61.0567 7.08383 61.3579 6.84107 61.7797 6.84107C62.0809 6.84107 62.4725 6.96245 62.8038 7.14452C62.849 7.14452 62.8791 7.19004 62.9544 7.19004C63.1502 7.19004 63.3008 7.03831 63.3008 6.84107C63.3008 6.71969 63.2255 6.61348 63.105 6.53762C62.6833 6.31003 62.1863 6.18865 61.7646 6.18865C60.8911 6.18865 60.3187 6.68934 60.3187 7.46314C60.3187 8.31281 61.117 8.5404 61.7345 8.69212C62.2767 8.84385 62.6833 8.99557 62.6833 9.34454C62.6833 9.69351 62.3821 9.9211 61.9152 9.9211C61.4935 9.9211 61.0718 9.76937 60.6501 9.49627C60.6049 9.45075 60.5296 9.4204 60.4543 9.4204C60.2585 9.4204 60.1079 9.57213 60.1079 9.76937C60.1229 9.87558 60.1983 9.96661 60.2886 9.99696ZM67.9998 8.26729C67.9998 7.19004 67.307 6.11279 66.0118 6.11279C64.8672 6.11279 63.9936 7.06866 63.9936 8.34315C63.9936 9.61765 64.9123 10.5735 66.1022 10.5735C66.7498 10.5735 67.2468 10.3763 67.7137 9.9211C67.789 9.84523 67.8342 9.76937 67.8342 9.64799C67.8342 9.45075 67.6836 9.29902 67.4878 9.29902C67.3673 9.29902 67.292 9.34454 67.2619 9.37489C66.9155 9.67834 66.569 9.83006 66.1172 9.83006C65.3943 9.83006 64.8521 9.32937 64.7467 8.55557H67.6083C67.8492 8.6466 67.9998 8.46453 67.9998 8.26729ZM64.7467 8.0397C64.8672 7.31142 65.3642 6.7652 66.0118 6.7652C66.81 6.7652 67.1564 7.41763 67.2317 8.0397H64.7467ZM29.3684 15.5805C28.8262 15.4287 28.3744 15.277 28.3744 14.928C28.3744 14.6246 28.6756 14.3818 29.0973 14.3818C29.3985 14.3818 29.7901 14.5032 30.1214 14.6853C30.1666 14.6853 30.1967 14.7308 30.272 14.7308C30.4678 14.7308 30.6185 14.5791 30.6185 14.3818C30.6185 14.2604 30.5431 14.1542 30.4227 14.0784C30.001 13.8508 29.5039 13.7294 29.0822 13.7294C28.2087 13.7294 27.6364 14.2301 27.6364 14.9584C27.6364 15.808 28.4346 16.0356 29.0521 16.1874C29.5943 16.3391 30.001 16.4908 30.001 16.8398C30.001 17.1888 29.6997 17.4163 29.2328 17.4163C28.8111 17.4163 28.3894 17.2646 27.9677 16.9915C27.9225 16.946 27.8472 16.9156 27.7719 16.9156C27.5761 16.9156 27.4255 17.0674 27.4255 17.2646C27.4255 17.4163 27.5008 17.4922 27.5761 17.5377C28.028 17.8867 28.6455 18.0839 29.1877 18.0839C30.1064 18.0839 30.7088 17.5377 30.7088 16.7791C30.754 16.0053 29.9106 15.7322 29.3684 15.5805ZM33.4198 14.5032C33.6156 14.5032 33.7662 14.3515 33.7662 14.1542C33.7662 13.957 33.6156 13.8053 33.4198 13.8053H32.4258V12.9253C32.4258 12.728 32.23 12.546 32.0493 12.546C31.8685 12.546 31.6727 12.6977 31.6727 12.9253V13.8053H31.4016C31.2058 13.8053 31.0552 13.957 31.0552 14.1542C31.0552 14.3515 31.2058 14.5032 31.4016 14.5032H31.6727V16.9308C31.6727 17.735 32.0944 18.1598 32.8927 18.1598C33.1186 18.1598 33.3144 18.1143 33.5102 18.0384C33.6608 17.9929 33.7361 17.8867 33.7361 17.735C33.7361 17.5377 33.5855 17.386 33.3897 17.386C33.3445 17.386 33.3445 17.386 33.3144 17.386C33.2391 17.386 33.1638 17.4315 33.0132 17.4315C32.5914 17.4315 32.3957 17.2343 32.3957 16.8094V14.4577L33.4198 14.5032ZM36.1308 13.7749C35.6338 13.7749 35.2121 13.8508 34.7602 14.048C34.6397 14.0936 34.5644 14.1998 34.5644 14.3515C34.5644 14.5487 34.715 14.7005 34.9108 14.7005C34.956 14.7005 34.9861 14.7005 35.0614 14.6549C35.4079 14.5032 35.7543 14.4273 36.0856 14.4273C36.6278 14.4273 37.2302 14.6246 37.2302 15.4591V15.5046C36.929 15.4287 36.5826 15.3529 36.0404 15.3529C34.9259 15.3529 34.203 15.8991 34.203 16.7336C34.203 17.6136 35.0012 18.0839 35.8145 18.0839C36.5073 18.0839 36.9591 17.7805 37.2302 17.5074V17.7046C37.2302 17.9019 37.3808 18.0536 37.5766 18.0536C37.7724 18.0536 37.923 17.9019 37.923 17.6743V15.3984C37.923 14.8522 37.7724 14.4425 37.5013 14.1239C37.2001 13.9267 36.7483 13.7749 36.1308 13.7749ZM37.2453 16.4605C37.2453 17.037 36.673 17.4922 35.95 17.4922C35.4982 17.4922 35.0012 17.2646 35.0012 16.7639C35.0012 16.2632 35.4229 15.9901 36.1157 15.9901C36.4922 15.9901 36.8838 16.0356 37.2604 16.1418V16.4605H37.2453ZM40.8298 14.5032C41.0256 14.5032 41.1762 14.3515 41.1762 14.1542C41.1762 13.957 41.0256 13.8053 40.8298 13.8053H39.8358V12.9253C39.8358 12.728 39.64 12.546 39.4593 12.546C39.2635 12.546 39.0827 12.6977 39.0827 12.9253V13.8053H38.8116C38.6158 13.8053 38.4652 13.957 38.4652 14.1542C38.4652 14.3515 38.6158 14.5032 38.8116 14.5032H39.0827V16.9308C39.0827 17.735 39.5044 18.1598 40.3027 18.1598C40.5286 18.1598 40.7244 18.1143 40.9202 18.0384C41.0708 17.9929 41.1461 17.8867 41.1461 17.735C41.1461 17.5377 40.9955 17.386 40.7997 17.386C40.7545 17.386 40.7545 17.386 40.7244 17.386C40.6491 17.386 40.5738 17.4315 40.4232 17.4315C40.0015 17.4315 39.8057 17.2343 39.8057 16.8094V14.4577L40.8298 14.5032ZM42.366 13.7749C42.1702 13.7749 41.9895 13.9267 41.9895 14.1542V17.735C41.9895 17.9626 42.1401 18.1143 42.366 18.1143C42.5919 18.1143 42.7426 17.9626 42.7426 17.735V14.1542C42.7426 13.9267 42.5919 13.7749 42.366 13.7749ZM42.366 12.197C42.1401 12.197 41.9443 12.3487 41.9443 12.5763V12.6977C41.9443 12.9253 42.1401 13.077 42.366 13.077C42.5919 13.077 42.7877 12.9253 42.7877 12.6977V12.5763C42.7877 12.3487 42.6371 12.197 42.366 12.197ZM45.7999 13.7294C44.58 13.7294 43.586 14.6853 43.586 15.9598C43.586 17.1888 44.5348 18.1598 45.7698 18.1598C47.0048 18.1598 47.9838 17.2039 47.9838 15.9294C48.0139 14.7005 47.0651 13.7294 45.7999 13.7294ZM47.2609 15.9598C47.2609 16.8094 46.6434 17.4619 45.815 17.4619C45.0168 17.4619 44.3691 16.8094 44.3691 15.9294C44.3691 15.0494 44.9866 14.397 45.7849 14.397C46.5982 14.4273 47.2609 15.0798 47.2609 15.9598ZM50.8906 13.7294C50.3182 13.7294 49.8965 13.957 49.5501 14.3818V14.1542C49.5501 13.9267 49.3995 13.7749 49.1736 13.7749C48.9778 13.7749 48.7971 13.9267 48.7971 14.1542V17.735C48.7971 17.9626 48.9477 18.1143 49.1736 18.1143C49.3995 18.1143 49.5501 17.9626 49.5501 17.735V15.6563C49.5501 14.928 50.002 14.4273 50.6948 14.4273C51.3424 14.4273 51.7641 14.8522 51.7641 15.5805V17.7046C51.7641 17.9322 51.9147 18.0839 52.1406 18.0839C52.3364 18.0839 52.5171 17.9322 52.5171 17.7046V15.4287C52.5322 14.3818 51.8846 13.7294 50.8906 13.7294ZM55.3185 13.7294C54.1739 13.7294 53.3003 14.6853 53.3003 15.9294C53.3003 17.2039 54.219 18.1598 55.4089 18.1598C56.0565 18.1598 56.5535 17.9626 57.0204 17.5074C57.0957 17.4315 57.1409 17.3557 57.1409 17.2343C57.1409 17.037 56.9903 16.8853 56.7945 16.8853C56.674 16.8853 56.5987 16.9308 56.5685 16.9612C56.2221 17.2646 55.8757 17.4163 55.4239 17.4163C54.701 17.4163 54.1588 16.9156 54.0534 16.1418H56.9149C57.1107 16.1418 57.2614 15.9901 57.2614 15.7929C57.2614 14.8067 56.5836 13.7294 55.3185 13.7294ZM54.0534 15.6563C54.1738 14.928 54.6709 14.3818 55.3185 14.3818C56.1167 14.3818 56.4631 15.0342 56.5384 15.6563H54.0534ZM60.1229 13.7749C59.6259 13.7749 59.0988 14.1239 58.7825 14.6549V14.1542C58.7825 13.9267 58.6319 13.7749 58.406 13.7749C58.2102 13.7749 58.0295 13.9267 58.0295 14.1542V17.735C58.0295 17.9626 58.1801 18.1143 58.406 18.1143C58.6018 18.1143 58.7825 17.9626 58.7825 17.735V16.3543C58.7825 15.3225 59.2795 14.6549 60.1531 14.5487C60.3489 14.5032 60.4995 14.3515 60.4995 14.1694C60.5145 13.9267 60.3639 13.7749 60.1229 13.7749ZM64.4454 13.7749C64.325 13.7749 64.1744 13.8204 64.099 14.048L62.8791 17.1281L61.5387 14.048C61.4634 13.8508 61.3429 13.7749 61.1622 13.7749C60.9362 13.7749 60.7856 13.9267 60.7856 14.1542C60.7856 14.2301 60.7856 14.2756 60.8308 14.3515L62.5176 17.9626V18.0081C62.2917 18.5088 62.0959 18.706 61.7495 18.706C61.5537 18.706 61.4483 18.6605 61.3278 18.6301C61.2826 18.6301 61.2073 18.5846 61.132 18.5846C60.9362 18.5846 60.7856 18.7364 60.7856 18.9336C60.7856 19.0853 60.8609 19.2067 61.0115 19.2826C61.2073 19.3584 61.3881 19.4039 61.7044 19.4039C62.352 19.4039 62.7737 19.055 63.1502 18.2053L64.7617 14.3515C64.7617 14.306 64.8069 14.2301 64.8069 14.1998C64.822 13.9267 64.6412 13.7749 64.4454 13.7749Z" fill="black"/>
<path d="M12.1091 0.226013C5.54254 0.226013 0.226013 5.58193 0.226013 12.1972C0.226013 18.8124 5.54254 24.1683 12.1091 24.1683C18.6757 24.1683 23.9923 18.8124 23.9923 12.1972C23.9923 5.56675 18.6757 0.226013 12.1091 0.226013Z" fill="white" stroke="black" stroke-width="0.450001" stroke-miterlimit="10"/>
<path d="M9.32266 18.2665C9.32266 17.9175 9.05156 17.6141 8.70516 17.6141C8.35875 17.6141 8.05753 17.8872 8.05753 18.2665C8.05753 18.6155 8.32863 18.8886 8.70516 18.8886C9.00638 18.8886 9.32266 18.6155 9.32266 18.2665Z" fill="#777777"/>
<path d="M11.6122 18.2665C11.6122 17.9175 11.3411 17.6141 10.9646 17.6141C10.6182 17.6141 10.3471 17.8872 10.3471 18.2665C10.3471 18.6155 10.6182 18.8886 10.9646 18.8886C11.311 18.8886 11.6122 18.6155 11.6122 18.2665Z" fill="#999999"/>
<path d="M13.9015 18.2662C13.9015 17.9173 13.6304 17.6138 13.2539 17.6138C12.8773 17.6138 12.6062 17.8869 12.6062 18.2662C12.6062 18.6152 12.8773 18.8883 13.2539 18.8883C13.6304 18.8883 13.9015 18.6152 13.9015 18.2662Z" fill="#BBBBBA"/>
<path d="M16.1609 18.2665C16.1609 17.9175 15.8898 17.6141 15.5133 17.6141C15.1669 17.6141 14.8958 17.8872 14.8958 18.2665C14.8958 18.6155 15.1669 18.8886 15.5133 18.8886C15.8898 18.8886 16.1609 18.6155 16.1609 18.2665Z" fill="#E5E4E4"/>
<path d="M14.0973 9.61822L12.305 14.701C12.0791 15.3231 11.6875 15.581 11.1905 15.581H11.1152C10.6182 15.581 10.2417 15.3079 10.0459 14.7314L8.93138 11.1506L7.78675 14.7314C7.59096 15.3079 7.16925 15.581 6.71742 15.581H6.64211C6.1451 15.581 5.76858 15.3079 5.5276 14.701L3.81065 9.69408C3.76546 9.5727 3.73534 9.39063 3.73534 9.19338C3.73534 8.73821 4.11187 8.26786 4.68419 8.26786C5.1812 8.26786 5.5276 8.57131 5.63303 9.04166L6.70236 12.6527L7.81687 9.072C7.96748 8.61683 8.31389 8.26786 8.84102 8.26786H8.96151C9.45852 8.26786 9.83504 8.61683 9.98565 9.072L11.1002 12.6831L12.2147 9.072C12.3352 8.64717 12.6364 8.2982 13.1635 8.2982C13.6907 8.2982 14.0822 8.72304 14.0822 9.22373C14.1726 9.34511 14.1274 9.54235 14.0973 9.61822Z" fill="#333333"/>
<path d="M20.0454 13.3049C20.0454 14.8828 18.8556 15.6111 17.3344 15.6111C16.4609 15.6111 15.5422 15.338 14.6536 14.8069C14.4277 14.6856 14.2771 14.4276 14.2771 14.109C14.2771 13.6538 14.6235 13.3049 15.0753 13.3049C15.2259 13.3049 15.3765 13.3504 15.4518 13.4262C16.1446 13.8511 16.7922 14.0787 17.3646 14.0787C17.9369 14.0787 18.208 13.8814 18.208 13.5324V13.4869C18.208 13.0621 17.5152 12.9104 16.7621 12.6828C15.7681 12.4097 14.6536 11.909 14.6536 10.5586V10.5131C14.6536 9.05654 15.7982 8.23722 17.214 8.23722C17.9369 8.23722 18.705 8.43446 19.3978 8.78343C19.699 8.93515 19.8496 9.20826 19.8496 9.55723C19.8496 10.0124 19.5032 10.3614 19.0514 10.3614C18.9008 10.3614 18.8255 10.3159 18.6749 10.2855C18.1026 10.0124 17.5604 9.83034 17.1537 9.83034C16.6567 9.83034 16.4308 10.0276 16.4308 10.331V10.3765C16.4308 10.7559 17.1236 10.9531 17.8766 11.2262C18.9008 11.4993 20.0454 11.9545 20.0454 13.3049Z" fill="#333333"/>
</svg>
