<svg width="24" height="26" viewBox="0 0 24 26" fill="none" xmlns="http://www.w3.org/2000/svg">
<path fill-rule="evenodd" clip-rule="evenodd" d="M14.1213 11.9352H16.8891C17.3088 11.9352 17.6386 11.5665 17.6386 11.122C17.6386 10.6666 17.3088 10.3088 16.8891 10.3088H14.1213C13.7016 10.3088 13.3719 10.6666 13.3719 11.122C13.3719 11.5665 13.7016 11.9352 14.1213 11.9352ZM20.1766 6.29796C20.7861 6.29796 21.1858 6.52566 21.5855 7.02444C21.9852 7.52321 22.0551 8.23884 21.9652 8.88833L21.0159 16.0013C20.8361 17.3686 19.7569 18.3759 18.4879 18.3759H7.58639C6.25742 18.3759 5.15828 17.271 5.04837 15.8397L4.12908 4.01987L2.62026 3.73795C2.22057 3.66205 1.94079 3.23918 2.01073 2.80546C2.08068 2.36199 2.47038 2.06814 2.88006 2.13428L5.2632 2.52354C5.60293 2.58969 5.85274 2.8922 5.88272 3.26086L6.07257 5.68967C6.10254 6.03773 6.36234 6.29796 6.68209 6.29796H20.1766ZM7.42631 20.0896C6.58697 20.0896 5.9075 20.8269 5.9075 21.7377C5.9075 22.6377 6.58697 23.375 7.42631 23.375C8.25567 23.375 8.93514 22.6377 8.93514 21.7377C8.93514 20.8269 8.25567 20.0896 7.42631 20.0896ZM18.6676 20.0896C17.8282 20.0896 17.1487 20.8269 17.1487 21.7377C17.1487 22.6377 17.8282 23.375 18.6676 23.375C19.4969 23.375 20.1764 22.6377 20.1764 21.7377C20.1764 20.8269 19.4969 20.0896 18.6676 20.0896Z" fill="#54408C"/>
</svg>
