<svg width="80" height="80" viewBox="0 0 80 80" fill="none" xmlns="http://www.w3.org/2000/svg">
<rect width="80.0001" height="80.0001" rx="8" fill="#FAFAFA"/>
<path fill-rule="evenodd" clip-rule="evenodd" d="M21.6974 49.122C21.8663 48.9477 22.0264 48.7669 22.1755 48.5784C22.4217 48.2683 22.6381 47.9417 22.8236 47.5998C22.9991 47.1998 23.0124 46.8919 22.9296 46.7242L22.9251 46.7154C22.9075 46.6825 22.8865 46.6595 22.8655 46.6486C22.8467 46.6387 22.8202 46.6376 22.7893 46.6453C22.6392 46.6836 22.4493 46.8699 22.2627 47.2513C22.0297 47.7806 21.8586 48.2727 21.7592 48.756C21.7338 48.8776 21.7128 48.9993 21.6974 49.122ZM25.9945 50.0513L26.0807 50.4261L26.0917 50.4743C26.3567 50.3088 26.5753 50.1466 26.7398 49.9823C26.9441 49.7784 27.0633 49.5757 27.0821 49.3631C27.0931 49.236 27.2068 49.1417 27.336 49.1538C27.4641 49.1647 27.5591 49.2776 27.5469 49.4058C27.516 49.7346 27.3515 50.0305 27.071 50.3099C26.8513 50.528 26.5576 50.7395 26.201 50.9521C26.5046 52.3209 26.6371 53.4497 25.5871 53.9582C25.5794 53.9625 25.5706 53.9658 25.5628 53.968C25.1344 54.1488 24.6376 54.105 24.2456 53.9154V53.9165C24.0436 53.819 23.8658 53.6798 23.7356 53.511C23.5997 53.3357 23.5158 53.1275 23.507 52.8984C23.4949 52.5708 23.6384 52.2091 24.0094 51.8519L24.0259 51.8376C24.5879 51.3905 25.0583 51.1045 25.4127 50.8875C25.5076 50.8294 25.5949 50.7768 25.671 50.7286L25.6479 50.6299C25.6081 50.6672 25.5661 50.7023 25.5209 50.7351C25.5132 50.7406 25.5054 50.745 25.4977 50.7505C25.0329 51.0058 24.6497 51.0508 24.3616 50.9609L24.3494 50.9576C24.1673 50.8984 24.0248 50.7866 23.9255 50.6398C23.8305 50.5006 23.7764 50.3308 23.7654 50.1466L23.7643 50.128L23.7311 50.1379C23.5721 50.1861 23.4032 50.2146 23.2442 50.2124C23.0797 50.6288 22.8479 50.8919 22.6027 51.031V51.0299C22.4305 51.1286 22.2516 51.1669 22.0827 51.156C21.9105 51.145 21.7471 51.0825 21.6102 50.9784C21.4059 50.8239 21.2579 50.5795 21.2226 50.2793V50.276C21.163 49.7171 21.1928 49.1921 21.301 48.6639C21.407 48.1423 21.5892 47.6206 21.8332 47.0639L21.8398 47.0497C22.0949 46.5291 22.4029 46.2617 22.6734 46.1927H22.6745C22.818 46.1565 22.9561 46.1719 23.0764 46.2321C23.1868 46.288 23.2785 46.3801 23.3436 46.5039L23.3513 46.5193C23.4871 46.7954 23.4893 47.2491 23.2497 47.7894L23.242 47.8058C23.04 48.1806 22.807 48.5335 22.5442 48.8645C22.2826 49.1932 21.9889 49.5056 21.6609 49.8003C21.6632 49.9395 21.672 50.0809 21.6874 50.2245C21.7073 50.3943 21.7857 50.5291 21.8917 50.6091C21.9557 50.6573 22.0319 50.6869 22.1114 50.6924C22.1942 50.6979 22.2837 50.6782 22.3709 50.6277V50.6267C22.5221 50.5401 22.6701 50.3702 22.7882 50.094C22.7054 50.0436 22.6337 49.9746 22.5785 49.8847C22.5497 49.8387 22.5266 49.7872 22.5089 49.7302C22.4758 49.6228 22.4603 49.5143 22.4758 49.4091C22.4945 49.2853 22.5509 49.1724 22.6646 49.0782C22.7452 49.0113 22.839 48.973 22.9329 48.9675C23.0333 48.962 23.1294 48.9927 23.21 49.0639C23.2751 49.1209 23.3281 49.2031 23.3579 49.3094C23.3878 49.4168 23.3966 49.5603 23.3712 49.7401C23.4452 49.7313 23.5214 49.7149 23.5953 49.693C23.6892 49.6645 23.7786 49.6272 23.8548 49.5856C23.9343 49.3719 24.0668 49.1603 24.2545 48.9708C24.345 48.8798 24.493 48.8787 24.5846 48.9686C24.6762 49.0584 24.6773 49.2053 24.5868 49.2962C24.3296 49.5549 24.2147 49.8639 24.2302 50.1171C24.2357 50.2179 24.2633 50.3077 24.3108 50.3768C24.3527 50.4393 24.4146 50.4875 24.4941 50.5127L24.5029 50.516C24.6751 50.5675 24.9247 50.5291 25.2548 50.3505C25.4094 50.2365 25.5032 50.0699 25.5551 49.8803L25.5606 49.8628C25.628 49.602 25.6214 49.2973 25.5816 49.0091C25.565 48.882 25.6545 48.7658 25.7814 48.7483C25.9095 48.7319 26.0266 48.8206 26.0442 48.9467C26.0906 49.2864 26.0972 49.6524 26.0111 49.9801L26.0067 50.002L25.9945 50.0513ZM25.3829 53.5406C26.0895 53.1976 26.0133 52.311 25.7792 51.2097L25.6567 51.2842C25.3144 51.4924 24.8628 51.7675 24.3262 52.1938C24.0668 52.4458 23.9663 52.6814 23.9729 52.8831C23.9773 53.0102 24.027 53.1286 24.1054 53.2305C24.1893 53.3401 24.3097 53.4321 24.4488 53.499V53.5001C24.7281 53.636 25.077 53.6677 25.3762 53.5439L25.3829 53.5406Z" fill="#000200"/>
<path fill-rule="evenodd" clip-rule="evenodd" d="M34.454 46.037C34.4628 46.357 34.2089 46.6233 33.8865 46.632C33.5641 46.6408 33.2958 46.3888 33.2869 46.0688L33.2858 46.0501C33.2825 45.9614 33.2395 45.9055 33.1843 45.8726C33.0805 45.8101 32.9436 45.7882 32.832 45.7882L32.8011 45.7893C32.7724 45.7904 32.7448 45.7882 32.7161 45.7849V45.7871C32.3959 45.7488 31.9929 45.8288 31.6109 45.9614C31.1395 46.1257 30.7265 46.357 30.5366 46.5455C30.5245 46.5586 30.5112 46.5696 30.4969 46.5816C30.4649 46.6079 30.4406 46.6386 30.4251 46.6693C30.413 46.6945 30.4074 46.7219 30.4097 46.7471C30.413 46.7745 30.4295 46.8085 30.4615 46.8468C30.5156 46.9115 30.604 46.9773 30.732 47.0386L33.1567 47.9362C33.1909 47.9493 33.224 47.9647 33.2549 47.9833C33.6082 48.1904 33.8611 48.4381 34.0112 48.711C34.1305 48.9268 34.1868 49.1559 34.1802 49.3904C34.1735 49.6194 34.1062 49.8441 33.9803 50.0589C33.7959 50.3712 33.4813 50.6616 33.0418 50.9027C32.5516 51.1888 32.0846 51.3521 31.6021 51.3915C31.1207 51.4299 30.6382 51.3411 30.116 51.1252C29.7626 50.9959 29.4668 50.7888 29.2702 50.5477C29.024 50.2452 28.9169 49.8868 29.0052 49.5252C29.0814 49.214 29.3961 49.0233 29.7097 49.0978C30.0232 49.1734 30.2153 49.4857 30.1403 49.797C30.1369 49.809 30.1568 49.7926 30.1756 49.8167C30.2473 49.9044 30.3699 49.9844 30.5245 50.0403L30.5543 50.0512C30.9021 50.197 31.2123 50.2573 31.5115 50.2331C31.8108 50.209 32.1166 50.0973 32.4544 49.9L32.4699 49.8912C32.7261 49.751 32.895 49.6085 32.9745 49.4726C32.9999 49.4288 33.0142 49.3904 33.0142 49.3586C33.0153 49.3334 33.0065 49.3027 32.9877 49.2699C32.9403 49.1833 32.8442 49.0923 32.6996 49.0036L30.3235 48.1236C30.2981 48.1159 30.2727 48.106 30.2473 48.094C29.9492 47.9537 29.7262 47.7805 29.5672 47.592C29.3795 47.3685 29.2791 47.1241 29.2503 46.8797C29.2216 46.632 29.268 46.391 29.3707 46.1751C29.4568 45.9942 29.5838 45.832 29.7384 45.7016C30.0453 45.4101 30.6161 45.0814 31.2278 44.8677C31.7511 44.6857 32.3253 44.5773 32.8254 44.631C33.1125 44.6299 33.4779 44.6956 33.7838 44.8786C34.147 45.0956 34.4297 45.4518 34.4529 46.0052V46.0118L34.454 46.037Z" fill="#000200"/>
<path fill-rule="evenodd" clip-rule="evenodd" d="M51.8854 48.2353C51.6591 48.4917 51.266 48.518 51.0066 48.2933C50.8376 48.1465 50.767 47.9273 50.8034 47.7224C50.6775 47.6259 50.5572 47.5843 50.4556 47.592C50.4015 47.5964 50.3485 47.6183 50.3021 47.6566C50.2381 47.7092 50.1829 47.7914 50.142 47.8999C49.9853 48.3218 50.0681 49.0122 50.598 49.8999L50.6102 49.9174C50.8365 50.278 51.064 50.4566 51.3234 50.4226C51.7231 50.37 52.2685 50.0051 53.0149 49.2851C53.5559 48.7306 53.7094 48.2396 53.62 47.9065C53.5946 47.81 53.5449 47.729 53.4797 47.6698L53.4808 47.6687L53.4797 47.6676C53.4124 47.6073 53.323 47.5646 53.2181 47.5448C52.8659 47.4835 52.3801 47.672 51.8854 48.2353ZM37.6458 46.9487C37.9163 47.1229 37.9925 47.4824 37.817 47.7498C37.6414 48.0183 37.2793 48.0939 37.0099 47.9196C36.979 47.8999 36.9403 47.8791 36.8973 47.8572L36.8752 47.8462C36.7206 47.7772 36.5771 47.7739 36.4468 47.8309C36.2503 47.9174 36.0482 48.1213 35.8461 48.4303C35.7655 48.5531 35.6861 48.6922 35.6077 48.8479C35.4708 49.1799 35.4443 49.455 35.4961 49.6424C35.5105 49.6928 35.5282 49.729 35.548 49.7487C35.5889 49.7487 35.6452 49.7279 35.7159 49.6818L36.0316 49.1503C36.3518 48.4774 36.6345 48.2144 37.1126 48.3481C37.4559 48.4446 37.6326 48.7547 37.8766 49.2829L38.7499 48.0303C38.9332 47.7673 39.2965 47.7005 39.5626 47.8824C39.6674 47.9536 39.7414 48.0533 39.7801 48.164L39.7812 48.1629L40.1367 49.1503L40.7903 47.924C40.9405 47.6402 41.2938 47.5317 41.5797 47.6807C41.7067 47.7465 41.7984 47.8528 41.8491 47.9755L42.5469 49.4199C42.6629 49.1372 42.7457 48.7711 42.781 48.3218C42.7766 48.2681 42.7744 48.2155 42.7722 48.164C42.7335 48.1432 42.6982 48.1191 42.664 48.0895C42.4156 47.8725 42.3195 47.5722 42.346 47.3048C42.3592 47.17 42.4045 47.0407 42.4774 46.929C42.5591 46.8029 42.6739 46.7021 42.8174 46.6374C43.046 46.5344 43.3286 46.5311 43.6267 46.6977L43.6256 46.6988C43.7648 46.7766 43.8696 46.9081 43.9083 47.0692L44.658 47.0637C44.6856 47.0637 44.7132 47.0659 44.7408 47.0692V47.0681C45.8758 47.227 45.8747 47.8122 45.8736 48.6079C45.8736 48.678 45.8736 48.7525 45.8758 48.8347C45.8758 48.8522 45.8758 48.8698 45.8747 48.8873H45.8758C45.8338 49.5196 45.8405 49.8287 45.8968 49.8605C45.9376 49.8835 46.1849 49.7333 46.6089 49.4396C46.7171 49.364 46.7801 49.2643 46.8143 49.0868C46.8297 49.0079 46.8408 48.9191 46.8485 48.8172C46.8375 48.6254 46.8353 48.4205 46.8419 48.2024C46.843 48.1629 46.8485 48.1246 46.8573 48.0873C46.854 47.9503 46.8485 47.8024 46.8419 47.6402C46.8297 47.3202 47.0804 47.0506 47.4028 47.0385C47.7252 47.0265 47.9968 47.2753 48.0089 47.5953C48.0299 48.1059 48.0365 48.507 48.0178 48.8336C48.0443 49.1931 48.1105 49.4616 48.2066 49.6391C48.2441 49.7092 48.2739 49.7487 48.2949 49.7574L48.3402 49.741C48.4947 49.6807 48.6835 49.5098 48.8922 49.2248C48.9066 49.204 48.9231 49.1854 48.9397 49.1679C48.7696 48.4983 48.805 47.9207 48.9695 47.4758C49.0887 47.1547 49.2753 46.8939 49.505 46.7043C49.7523 46.5005 50.0482 46.3821 50.3673 46.358C50.7835 46.3273 51.2285 46.4654 51.6326 46.8007C52.2597 46.3613 52.9001 46.2331 53.44 46.3306H53.4422C53.779 46.392 54.0782 46.5399 54.3178 46.7569L54.3189 46.7558C54.5596 46.9739 54.7362 47.2599 54.8245 47.5931C55.0144 48.3065 54.7947 49.2424 53.9015 50.1553L53.8894 50.1673C52.9387 51.0857 52.1626 51.5624 51.4835 51.6511C50.6621 51.7585 50.0526 51.3761 49.5502 50.5739C49.5425 50.5607 49.5348 50.5476 49.5271 50.5344C49.4939 50.4796 49.463 50.4248 49.4332 50.3711C49.2113 50.5848 48.9861 50.7361 48.7663 50.8216C48.4461 50.9465 48.1337 50.9476 47.8422 50.8248C47.6291 50.7361 47.4447 50.5848 47.2935 50.3755L47.2758 50.3876C46.4599 50.9531 45.8217 51.1514 45.3193 50.8676C44.8335 50.5936 44.6348 49.9427 44.7077 48.8227C44.7066 48.7514 44.7066 48.6791 44.7066 48.609C44.7066 48.4073 44.7066 48.2561 44.6028 48.2232L43.9436 48.2276L43.9447 48.2418C43.9514 48.2835 43.9525 48.3262 43.9502 48.37C43.905 49.0046 43.778 49.5328 43.5936 49.9448C43.3673 50.4522 43.046 50.8051 42.6717 50.9925V50.9914L42.6607 50.9969C42.3703 51.135 42.0214 51.0122 41.8834 50.724L41.2838 49.4824L40.5651 50.8303C40.501 50.9673 40.384 51.0802 40.2294 51.135C39.9247 51.2424 39.5902 51.0857 39.4808 50.7832L39.0613 49.6194L38.2696 50.7536C38.2144 50.8325 38.1394 50.8994 38.0455 50.9443C37.7562 51.0846 37.4073 50.9662 37.2649 50.6791L36.9072 49.9558L36.661 50.37C36.6245 50.4325 36.576 50.4895 36.5152 50.5366C36.1719 50.8029 35.8241 50.9169 35.5061 50.9059C35.219 50.8972 34.9651 50.792 34.7608 50.6079C34.5786 50.4435 34.4428 50.2199 34.3689 49.9503C34.2518 49.5306 34.2827 48.9827 34.5312 48.3909L34.5466 48.3569C34.6471 48.1542 34.7542 47.9679 34.8646 47.7991C35.1914 47.3005 35.5613 46.9531 35.9687 46.7733C36.4236 46.5728 36.895 46.575 37.3764 46.8007C37.3897 46.8062 37.4029 46.8128 37.4162 46.8194C37.4879 46.8511 37.5641 46.895 37.6458 46.9487Z" fill="#000200"/>
<path fill-rule="evenodd" clip-rule="evenodd" d="M47.4503 45.4297C47.6535 45.4297 47.8378 45.5119 47.9714 45.6434C48.105 45.776 48.1867 45.959 48.1867 46.1606C48.1867 46.3623 48.1039 46.5453 47.9714 46.6779C47.8378 46.8105 47.6535 46.8916 47.4503 46.8916C47.2471 46.8916 47.0628 46.8094 46.9292 46.6779C46.7956 46.5453 46.7139 46.3623 46.7139 46.1606C46.7139 45.959 46.7967 45.776 46.9292 45.6434C47.0617 45.5119 47.246 45.4297 47.4503 45.4297Z" fill="#000200"/>
<path fill-rule="evenodd" clip-rule="evenodd" d="M56.8404 45.3577C57.1826 45.3577 57.4918 45.4957 57.7159 45.7182C57.94 45.9407 58.0792 46.2486 58.0792 46.5873C58.0792 46.927 57.94 47.2338 57.7159 47.4563C57.4918 47.6788 57.1826 47.8168 56.8404 47.8168C56.4992 47.8168 56.1889 47.6788 55.9648 47.4563C55.7407 47.2338 55.6016 46.927 55.6016 46.5873C55.6016 46.2486 55.7407 45.9407 55.9648 45.7182C56.1889 45.4957 56.4992 45.3577 56.8404 45.3577ZM57.4951 45.9374C57.3273 45.7708 57.0954 45.6678 56.8404 45.6678C56.5842 45.6678 56.3535 45.7708 56.1856 45.9374C56.0178 46.104 55.914 46.3341 55.914 46.5873C55.914 46.8404 56.0178 47.0705 56.1856 47.2371C56.3535 47.4037 56.5853 47.5067 56.8404 47.5067C57.0954 47.5067 57.3273 47.4037 57.4951 47.2371C57.6629 47.0705 57.7667 46.8404 57.7667 46.5873C57.7667 46.333 57.6629 46.1029 57.4951 45.9374Z" fill="#000200"/>
<path fill-rule="evenodd" clip-rule="evenodd" d="M56.3029 47.1594V45.898V45.8389H56.3625H56.9256C56.9841 45.8389 57.0371 45.8422 57.0824 45.8476C57.1298 45.8542 57.1707 45.8641 57.2049 45.8772C57.2413 45.8904 57.2734 45.9101 57.3021 45.9342C57.3297 45.9583 57.3551 45.9868 57.376 46.0208C57.397 46.0548 57.4125 46.0898 57.4224 46.126C57.4324 46.1633 57.4379 46.2016 57.4379 46.2411C57.4379 46.2926 57.429 46.3408 57.4125 46.3857C57.3948 46.4306 57.3694 46.4712 57.3341 46.5074C57.2999 46.5435 57.2557 46.5742 57.2027 46.5961L57.1685 46.6093C57.1928 46.6323 57.216 46.6575 57.2391 46.6838C57.2634 46.7134 57.2877 46.7463 57.3109 46.7813L57.5317 47.1243L57.5902 47.2153H57.482H57.2701H57.2369L57.2193 47.1879L57.0514 46.9249C57.0283 46.8887 57.0062 46.8559 56.9852 46.8263C56.9653 46.7989 56.9477 46.7748 56.9333 46.7561C56.919 46.7375 56.9057 46.7222 56.8936 46.7101C56.8814 46.6991 56.8715 46.6904 56.8637 46.6849C56.8538 46.6783 56.8439 46.6728 56.8339 46.6685C56.8251 46.6641 56.8152 46.6608 56.8063 46.6586C56.7997 46.6575 56.7898 46.6564 56.7776 46.6553H56.7765C56.7633 46.6542 56.7456 46.6542 56.7246 46.6542H56.5888V47.155V47.2142H56.5292H56.3614H56.3018L56.3029 47.1594ZM56.5899 46.3956H56.8925C56.962 46.3956 57.0161 46.389 57.0525 46.3759C57.068 46.3704 57.0824 46.3627 57.0934 46.3539C57.1044 46.3452 57.1144 46.3353 57.121 46.3243C57.1287 46.3123 57.1354 46.2991 57.1398 46.2849C57.1442 46.2717 57.1453 46.2575 57.1453 46.2433C57.1453 46.2213 57.1409 46.2027 57.1343 46.1852C57.1265 46.1687 57.1155 46.1534 57.1 46.1402C57.0857 46.1271 57.0647 46.1172 57.0393 46.1096C57.0106 46.1019 56.9753 46.0975 56.9333 46.0975H56.591L56.5899 46.3956Z" fill="#000200"/>
<path fill-rule="evenodd" clip-rule="evenodd" d="M61.3047 39.1649L61.4305 34.3123C61.4405 34.035 61.4924 33.749 61.584 33.4728C61.1391 33.3994 60.7184 33.1737 60.3927 32.7846C59.5812 31.8137 59.9356 30.5687 60.8376 29.8126L60.7305 29.6898L60.6742 29.5802C59.2731 26.8493 62.3756 25.5265 63.8364 27.3249L63.907 27.2668L63.9479 27.2383C64.8775 26.6104 66.1892 26.3945 66.9455 27.4137C67.6069 28.3057 67.2834 29.418 66.516 30.0811C66.5337 30.0953 66.5525 30.1085 66.5701 30.1227L66.6452 30.1797L66.7081 30.2498C67.5395 31.1758 67.4556 32.5622 66.4454 33.3183C66.1539 33.5364 65.8436 33.6624 65.5301 33.7085C65.6559 34.3704 65.6294 35.0958 65.5588 35.7391V41.338L65.5444 41.4257C65.2132 43.4082 63.3616 43.8761 61.87 42.7715L61.7331 42.6695L61.6646 42.5742C61.5034 42.7364 61.3091 42.8778 61.0783 42.9928C59.3162 43.9298 57.988 43.0389 57.4602 41.2263L57.4492 41.1879L57.1676 39.863C57.1665 39.8652 57.1643 39.8685 57.1632 39.8706L57.1411 39.9123L57.1157 39.9517C56.2644 41.28 54.8126 41.5901 53.7261 40.8723C53.2491 43.0257 50.3995 43.6821 49.398 41.5934C48.7698 42.3156 47.8766 42.9172 46.661 43.3479L46.587 43.3742L46.5097 43.3895C44.6228 43.7665 42.8176 43.5386 41.6528 41.9868C40.0949 41.4948 38.5823 40.8854 37.1061 40.1939L37.0851 40.6158L37.0619 40.7123C36.5993 42.6575 34.0212 42.9128 33.0033 41.4904C32.9436 41.5693 32.8818 41.6482 32.8167 41.726L32.7902 41.7578L32.7615 41.7874C30.752 43.8674 28.3075 43.5989 26.3411 41.6263L26.2936 41.578L26.2517 41.5243C26.1578 41.4038 26.0684 41.2811 25.9823 41.1583C25.2988 41.9222 24.1782 42.0854 23.1403 41.7928L20.793 41.1068C20.7842 41.4213 20.7588 41.7369 20.7058 42.0668L20.6947 42.1348L20.676 42.2005C20.3878 43.1835 19.5663 43.7764 18.5693 43.9101L18.5517 43.9123C17.3791 44.0493 16.3578 43.235 16.0531 42.1369L16.0233 42.0285L15.9018 40.0789C15.0892 38.5589 15.1069 36.9106 16.5422 36.0032L16.476 33.7687C15.7627 34.3167 15.0285 34.8405 14.2678 35.3348L14.3362 35.429L13.2023 36.1994C11.9458 37.223 10.9786 37.1693 10.1318 36.0383C9.46823 34.8767 9.55215 34.32 10.5315 33.6909C11.0946 33.3063 11.5307 32.9216 11.8421 32.5358L11.8917 32.5282C13.1747 31.1232 16.1922 29.1945 19.7055 27.0958C20.9498 26.3594 23.0663 27.1879 21.3859 29.3227C21.0116 29.7117 20.6307 30.0964 20.2432 30.4756C20.5214 30.846 20.6638 31.3183 20.6727 31.8093L20.6738 31.8422L20.5998 33.6317C21.6409 33.0071 22.7318 32.4723 23.8514 31.9835L23.869 31.9758L23.8867 31.9693C24.155 31.863 24.431 31.7895 24.7092 31.7545C25.9944 29.7852 28.9534 30.8153 28.8596 33.5134L28.8585 33.5452L28.8551 33.5758C28.7646 34.5501 28.6498 36.9994 29.0141 37.898C29.1389 38.103 29.3973 38.5085 29.6081 38.7506C29.7925 38.4964 30.0056 38.0821 30.1149 37.8575C30.4738 36.5117 30.7067 35.166 30.9485 33.7972C30.996 32.7649 31.293 31.6734 32.0824 30.9534C32.7626 30.3331 33.7375 30.1063 34.5976 30.4843C35.143 30.7243 35.525 31.1452 35.7348 31.6504C36.0384 31.6274 36.3476 31.6734 36.6368 31.7972C37.9209 31.0389 39.3077 30.812 40.8744 30.903L40.945 30.9074L41.0146 30.9205C41.9531 31.098 42.7326 31.4389 43.2305 31.9463C43.3476 31.8268 43.4701 31.7095 43.5971 31.5934C45.3383 29.4268 48.857 31.1813 49.6233 33.498C49.6674 33.6065 49.7105 33.7161 49.7525 33.8246C49.8264 33.6427 49.907 33.4619 49.9932 33.2821L50.193 32.8668L50.3034 32.8306C50.3211 32.6695 50.3465 32.5194 50.4425 32.3123C50.7208 31.7238 51.2441 31.2822 51.8878 31.1408C53.2646 30.8383 54.2561 31.9068 54.5697 33.1276L55.0797 34.4635L55.7996 32.9797L55.8339 32.926C56.3484 32.1216 57.1577 31.4652 58.1745 31.5748C60.0239 31.7753 60.5561 34.0526 60.5749 35.578C60.6897 36.7287 60.7968 37.8849 61.0264 39.0191C61.1247 39.0619 61.2174 39.1101 61.3047 39.1649ZM16.4638 33.4334L16.4439 32.7572C16.36 31.9079 16.5731 31.0345 17.1892 30.4131C17.7523 29.8443 18.6003 29.578 19.3742 29.8487C19.5774 29.92 19.7551 30.0186 19.9108 30.1413C20.2111 29.875 20.4861 29.6142 20.7124 29.3654C19.8876 29.3128 19.425 28.6674 19.5178 27.9364C17.8517 28.755 16.2607 29.7534 14.7193 30.9052C13.8096 31.5353 12.9925 32.2871 12.213 33.0893C12.2417 33.6405 12.372 34.2235 12.6238 34.7528L12.6469 34.7923C13.082 34.5249 13.5733 34.4734 13.9067 34.8493L13.9233 34.8723L15.6137 33.7632C15.819 33.6021 16.0807 33.5156 16.36 33.5408L16.4638 33.4334ZM20.729 27.4224C21.1077 27.4224 21.4135 27.7271 21.4135 28.103C21.4135 28.4789 21.1066 28.7824 20.729 28.7824C20.3503 28.7824 20.0433 28.4778 20.0433 28.103C20.0433 27.7271 20.3503 27.4224 20.729 27.4224ZM12.4758 34.8537L12.5012 34.892C12.3654 34.9939 12.2384 35.1156 12.1269 35.2493C11.5727 35.8443 11.152 35.7852 10.8141 35.5517C10.505 35.3534 10.3504 35.0115 10.4189 34.6739C10.5249 34.3649 10.6794 34.2663 10.9356 34.2202C11.4048 34.149 11.9227 34.3868 12.4758 34.8537ZM45.9654 39.2011C46.2514 38.9643 46.449 38.6279 46.5528 38.2685C46.7537 37.5704 46.619 36.812 46.3463 36.1424C46.0692 35.9791 45.8384 35.7545 45.6551 35.4805C45.1715 36.0854 44.9353 37.2811 44.8326 38.2126C45.3438 38.389 45.728 38.7309 45.9654 39.2011Z" fill="#000200" stroke="#000200" stroke-width="0.0238486"/>
<path fill-rule="evenodd" clip-rule="evenodd" d="M67.9517 42.3881V40.9591V40.8999H68.0113H68.136H68.1648H68.2983H68.3414L68.3547 40.9404L68.6958 41.9531L68.7091 41.9925L68.729 41.9355L69.0734 40.9415L69.0867 40.9021H69.1286H69.2402H69.26H69.3848H69.4444V40.9613V42.3903V42.4495H69.3848H69.2015H69.1419V42.3903V41.5432L68.8394 42.4089L68.825 42.4484H68.7831H68.6108H68.5689L68.5556 42.4078L68.2553 41.5289V42.3881V42.4473H68.1957H68.0124H67.9528L67.9517 42.3881Z" fill="#000200"/>
<path fill-rule="evenodd" clip-rule="evenodd" d="M67.0949 42.388V41.1858H66.6797H66.6201V41.1266V40.9579V40.8987H66.6797H67.8214H67.881V40.9579V41.1266V41.1858H67.8214H67.404V42.388V42.4472H67.3444H67.1545H67.0949V42.388Z" fill="#000200"/>
<path fill-rule="evenodd" clip-rule="evenodd" d="M32.0361 33.9177C31.7678 35.4355 31.5602 36.7023 31.144 38.2388C30.0255 40.6048 29.2803 40.4656 28.0382 38.3988C27.5976 37.4322 27.6131 35.1199 27.7654 33.4804C27.824 31.7862 25.9757 31.0749 25.3916 32.8492C25.0449 32.7856 24.674 32.8295 24.2886 32.9818C22.5828 33.7259 21.1684 34.4842 19.8855 35.3993C19.5907 35.5243 19.4924 35.5582 19.4339 35.3051L19.5763 31.8355C19.5719 31.5955 19.5211 31.4004 19.4383 31.2481C19.212 31.4596 18.9834 31.6689 18.7527 31.876C18.5219 31.8716 18.3431 31.6579 18.3861 31.4388C18.6003 31.2558 18.8222 31.0706 19.0419 30.8853C18.385 30.6212 17.3759 31.2799 17.5337 32.6859L17.6519 36.6749C16.2143 37.1845 16.1492 38.3911 16.974 39.7708L17.1042 41.8552C17.2953 42.5423 17.8882 42.9029 18.4214 42.8404C18.9249 42.7725 19.4449 42.5149 19.6238 41.9034C19.7342 41.2086 19.7077 40.6596 19.6724 40.013C19.7044 39.7971 19.721 39.7116 20.0136 39.7544L23.4429 40.756C24.2069 40.9719 25.0582 40.8579 25.3773 40.0941C25.6125 39.007 24.7921 38.8744 23.8812 38.7692C22.6568 38.6475 21.4334 38.3779 20.209 38.0415C19.9871 37.9626 19.8325 37.8727 19.9782 37.7741L22.4945 36.5544C23.4219 36.0853 24.3085 35.6821 25.2227 35.1659L25.2348 35.339C25.4292 37.4377 25.8752 39.27 27.114 40.8689C28.6995 42.459 30.4352 42.6289 31.9677 41.0421C33.0994 39.6744 33.35 38.104 33.7276 36.1982C33.8303 35.5703 33.9407 34.9489 34.1527 34.3725C34.3238 33.9571 34.7412 33.2075 34.8218 32.779C34.9852 30.8908 32.1465 30.6169 32.0361 33.9177Z" fill="#FE9DE2" stroke="#000200" stroke-width="0.0238486"/>
<path fill-rule="evenodd" clip-rule="evenodd" d="M42.342 41.0671C40.1603 40.4063 38.0957 39.5154 36.0972 38.4918L35.9968 40.4655C35.7296 41.5899 34.0469 41.58 33.7411 40.5488C33.4684 38.8622 33.7301 37.3093 34.5261 35.888L34.7094 34.0633C34.8573 32.6441 36.1933 32.3975 36.5808 33.1515C37.7766 32.2233 39.0838 31.8902 40.8084 31.991C42.766 32.3614 43.0167 33.1965 42.479 34.346C41.6741 35.4814 39.563 36.2123 37.5326 36.8501C38.9602 37.7926 40.4165 38.4414 41.8838 38.9828C41.8242 36.3417 42.4447 34.0699 44.4012 32.3384C45.4788 30.8819 48.0624 32.1828 48.5924 33.8726C50.3545 38.1893 49.7506 41.1055 46.2903 42.3296C44.6154 42.6638 43.1955 42.46 42.342 41.0671ZM43.6736 39.1745C44.7722 39.0518 45.1917 39.6041 45.1476 40.6178C47.1029 40.5411 48.6078 38.22 47.1714 35.317C46.4681 35.1362 46.3698 34.4041 46.1954 34.0228C44.5094 34.1236 43.7133 36.5718 43.6736 39.1745ZM37.0854 35.0989L37.3449 34.86C38.3596 34.2003 39.0143 33.9702 39.6966 34.0414C38.8586 34.4578 37.9908 34.8162 37.0854 35.0989Z" fill="#FE9DE2" stroke="#000200" stroke-width="0.0238486"/>
<path fill-rule="evenodd" clip-rule="evenodd" d="M60.1486 40.0742C60.895 39.5723 61.8191 41.4287 60.577 42.0304C59.6827 42.5115 58.9352 42.3866 58.5113 40.9268L57.5043 36.186C57.1499 37.2479 56.7513 38.3098 56.1949 39.3718C55.3911 40.6255 54.2792 40.2244 53.8023 39.3718L52.7445 36.9641L52.6938 40.426C52.5591 41.843 50.5617 42.563 50.2007 40.5268C49.9523 38.1871 49.9523 35.8923 50.9813 33.7542C51.5102 33.5789 51.2838 33.1022 51.4351 32.7756C51.848 31.9044 53.1619 31.8824 53.5251 33.4529L54.9605 37.215L56.7579 33.5109C57.8786 31.7586 59.4718 32.7942 59.4829 35.6392C59.6297 37.1175 59.7622 38.5959 60.1486 40.0742Z" fill="#FE9DE2" stroke="#000200" stroke-width="0.0238486"/>
<path fill-rule="evenodd" clip-rule="evenodd" d="M64.4667 35.6799C64.9216 31.727 62.5853 32.5555 62.5235 34.3462L62.3921 39.3927C62.1911 40.2684 62.094 41.3051 62.5235 41.9023C63.1716 42.3823 64.2392 42.6081 64.4667 41.2492V35.6799Z" fill="#FE9DE2" stroke="#000200" stroke-width="0.0238486"/>
<path fill-rule="evenodd" clip-rule="evenodd" d="M64.2394 32.1718C65.3634 33.5526 66.9345 32.0151 65.9518 30.9203C65.5842 30.6398 65.222 30.3439 64.8709 30.0272C65.0962 29.8496 65.3291 29.6776 65.5698 29.5088C66.9268 28.8206 66.2091 26.9291 64.5198 28.071L63.6653 28.78C63.4996 28.5806 63.3395 28.3745 63.1861 28.1587C62.5192 27.0211 60.6919 27.3937 61.5796 29.123L62.2829 29.9285L61.5277 30.5554C60.1366 31.671 61.6061 33.1526 62.7091 32.1762C62.9465 31.8704 63.2015 31.5767 63.4731 31.2918L64.2394 32.1718Z" fill="#FE9DE2" stroke="#000200" stroke-width="0.0238486"/>
</svg>
