<svg width="90" height="25" viewBox="0 0 90 25" fill="none" xmlns="http://www.w3.org/2000/svg">
<path d="M22.5496 10.0977C20.3317 8.59378 18.2682 7.18194 18.2682 4.38909C18.2682 1.90305 20.1472 1.01309 21.9334 1.01309C24.2743 1.01309 25.7216 2.20985 26.1529 4.48121L26.1839 4.63461H26.7072V4.45037C26.6766 3.99017 26.6766 3.19193 26.6766 2.73173C26.6766 1.93389 26.7072 1.38117 26.7691 0.675447L26.7996 0.460363L26.5842 0.491205C26.4213 0.516828 26.2563 0.527154 26.0914 0.522047C25.5413 0.507087 24.9943 0.435003 24.4592 0.306963C23.6171 0.13762 22.7613 0.0452508 21.9024 0.0310065C18.3606 0.0310065 15.8968 2.39409 15.8968 5.80094C15.8968 9.39162 18.4221 11.0798 20.8554 12.7372C23.1653 14.3024 25.3523 15.7756 25.3523 18.7526C25.3523 21.5455 23.2887 22.8039 21.2557 22.8039C18.8843 22.8039 16.482 21.5146 16.482 19.0286C16.4885 18.8026 16.509 18.5772 16.5435 18.3537L16.5744 18.0465H16.1122L16.0507 18.1386C15.7837 18.7914 15.6477 19.49 15.6504 20.1949C15.648 20.5754 15.679 20.9553 15.7428 21.3304C15.7734 21.668 15.8043 22.0057 15.8043 22.3433C15.8122 22.5995 15.8018 22.856 15.7734 23.1107L15.7119 23.3563L15.9582 23.3254C16.1005 23.3002 16.2451 23.29 16.3895 23.295C17.0125 23.3121 17.6319 23.3944 18.2376 23.5405C19.1145 23.7562 20.0137 23.8695 20.9169 23.8781C24.8595 23.8781 27.6312 21.177 27.6312 17.3408C27.6312 13.5659 25.044 11.7855 22.5496 10.0977Z" fill="#990000"/>
<path d="M58.1535 0.0310065C50.7615 0.0310065 46.3262 6.19986 46.3262 12.1232C46.3262 17.924 50.6691 23.9086 57.9071 23.9086C64.498 23.9086 69.6721 18.691 69.6721 12.0311C69.6721 5.3099 64.621 0.0310065 58.1535 0.0310065ZM66.3767 12.2461C66.3767 18.7831 63.1122 22.8652 57.8762 22.8652C52.7017 22.8652 49.6221 18.8139 49.6221 12.0619C49.6221 3.99017 53.9031 1.10521 57.8762 1.10521C61.8183 1.07437 66.3767 4.02061 66.3767 12.2461Z" fill="#990000"/>
<path d="M89.9074 23.4174C88.0288 22.7729 85.8418 18.875 84.2405 16.0209C83.378 14.4557 82.6388 13.1972 82.1151 12.6449C84.8253 11.5707 86.458 9.36102 86.458 6.75202C86.458 2.73157 83.347 0.122561 78.5733 0.122561C78.2344 0.122561 77.7107 0.122561 77.1255 0.153403C76.4482 0.184246 75.7091 0.184246 75.1854 0.184246C73.7685 0.184246 73.1524 0.184246 72.0438 0.122561H71.859V0.614008L72.0129 0.644444C73.0909 0.797844 73.4297 1.22761 73.4297 3.40685V20.7166C73.4297 23.2331 73.0294 23.2948 71.9514 23.4786L71.7975 23.5095V24.0005H71.9823C72.6291 23.9697 73.5531 23.9393 74.8156 23.9393C76.1399 23.9393 77.2489 23.9697 77.6492 24.0005H77.8341V23.5095L77.6802 23.4786C76.6022 23.2948 76.2019 23.2331 76.2019 20.7166V13.4428H78.1114C78.5557 13.4407 78.9988 13.3997 79.4358 13.3202C79.9901 13.8725 80.6368 15.1001 81.0371 15.8367C81.1296 15.9901 81.1911 16.1435 81.253 16.2356C85.1027 23.4482 85.534 23.878 89.0143 24.0005C89.2919 24.0075 89.5696 23.9972 89.8459 23.9697L89.9998 23.9393V23.4786L89.9074 23.4174ZM76.2019 1.44228C76.9129 1.24263 77.6498 1.14962 78.3884 1.16633C81.4069 1.16633 83.378 3.49897 83.378 7.1205C83.378 10.742 81.5918 12.3685 77.5877 12.3685H76.2019V1.44228Z" fill="#990000"/>
<path d="M46.7886 0H46.5423C45.002 0.0308422 36.9328 0.153399 29.6642 0H29.5103L29.4794 0.122557C29.3254 0.705719 29.202 1.2276 29.0481 1.71864C28.8632 2.33265 28.7092 2.88497 28.5863 3.49897L28.5553 3.71365H29.0481L29.1096 3.62153C30.0336 1.6878 31.3889 1.65736 36.4091 1.65736V20.6858C36.4091 23.2331 36.0088 23.2948 34.9308 23.4482L34.7768 23.4786V23.9697H34.9617C35.6084 23.9392 36.5325 23.9084 37.7644 23.9084C39.0888 23.9084 40.1668 23.9392 40.5671 23.9697H40.752V23.4786L40.5981 23.4482C39.5201 23.264 39.1193 23.2027 39.1193 20.6858V1.65736C44.6636 1.65736 45.4643 1.87204 45.4643 2.67029C45.4633 2.81552 45.4427 2.95995 45.4028 3.09964L45.3409 3.31473H45.8955L45.9261 3.16133C46.0185 2.67029 46.3883 1.10504 46.6653 0.214678L46.7886 0Z" fill="#990000"/>
<path d="M9.98297 0.0612786C8.84349 0.0612786 7.55006 0.0308422 6.8724 0H6.68751V0.491041L6.84145 0.521883C7.98093 0.705719 8.6586 0.797839 8.6586 3.19176V17.3098C8.6586 19.9492 7.39612 22.7729 5.39409 22.7729C5.03273 22.774 4.67199 22.7432 4.3161 22.6808C3.15497 22.3555 2.14951 21.6259 1.48246 20.6245C1.42097 20.5324 1.32852 20.4098 1.26703 20.3177C0.908429 19.805 0.618466 19.2478 0.404477 18.6604C0.385323 18.6119 0.35104 18.5708 0.306681 18.5431C0.262322 18.5155 0.210233 18.5028 0.158091 18.507C0.105826 18.5206 0.0607633 18.5536 0.0321405 18.5992C0.00351771 18.6449 -0.00649646 18.6997 0.00415098 18.7525L0.465971 22.4661C0.46504 22.502 0.472988 22.5375 0.489112 22.5696C0.505236 22.6016 0.529039 22.6292 0.558417 22.65C1.58039 23.2747 2.72553 23.6725 3.91578 23.8163C4.33298 23.8846 4.7555 23.9155 5.17825 23.9084H5.51708C8.99742 23.9084 11.3073 21.1156 11.3073 16.9417V3.19176C11.3073 0.859524 11.8311 0.767403 12.94 0.521883L13.1245 0.491041V0H12.94C12.3238 0.0308422 11.061 0.0612786 9.98297 0.0612786Z" fill="#990000"/>
</svg>
