<svg width="88" height="11" viewBox="0 0 88 11" fill="none" xmlns="http://www.w3.org/2000/svg">
<path d="M87.2447 10.7556C87.4771 10.7556 87.6607 10.6684 87.7951 10.4933C87.9323 10.3378 87.9999 10.1443 87.9999 9.91362C87.9907 9.68315 87.9234 9.49919 87.7951 9.3629C87.6607 9.22962 87.4817 9.16423 87.2585 9.16423C87.0078 9.17408 86.8195 9.26065 86.6917 9.42575C86.5754 9.5956 86.5149 9.77258 86.5149 9.95747C86.5149 10.1395 86.5754 10.3141 86.6917 10.4792C86.8101 10.6632 86.9937 10.7556 87.2447 10.7556Z" fill="#525252"/>
<path d="M6.26383 10.6965C6.7277 10.6965 7.18446 10.669 7.63605 10.617C8.1022 10.5575 8.47739 10.4805 8.76209 10.3827C8.88382 10.3264 8.96977 10.2742 9.01313 10.2311C9.05118 10.1852 9.08968 10.1037 9.13046 9.98556C9.20171 9.71283 9.27129 9.37425 9.33329 8.96537C9.40287 8.55903 9.43607 8.31602 9.43607 8.24114C9.43607 8.11847 9.40287 8.04804 9.33329 8.03395C9.26174 8.03395 9.21626 8.10438 9.19716 8.24114C9.18018 8.37949 9.12773 8.56122 9.04163 8.78837C8.96037 9.02249 8.84076 9.22196 8.68053 9.38564C8.40569 9.65157 8.06627 9.83109 7.66485 9.91926C7.25843 10.0218 6.79198 10.0715 6.26641 10.0715C4.75775 10.0535 3.55274 9.54504 2.65167 8.54096C1.72407 7.56856 1.25792 6.41491 1.24837 5.07905C1.23882 4.37971 1.32719 3.72768 1.51365 3.13028C1.67874 2.53034 2.00876 1.9964 2.50341 1.52405C2.62802 1.39725 2.78067 1.27207 2.95773 1.15177C3.13206 1.04492 3.3449 0.942812 3.59351 0.840716C3.84683 0.742724 4.15077 0.663087 4.50186 0.606734C4.84128 0.554185 5.23815 0.527109 5.69475 0.527109C6.98814 0.554179 7.91104 0.810786 8.46815 1.30403C8.65446 1.45853 8.79786 1.65606 8.90307 1.89889C9.00115 2.14409 9.05117 2.40545 9.05117 2.68974C9.04162 2.88018 9.07998 2.97563 9.16593 2.97563C9.24006 2.98483 9.28084 2.88919 9.29024 2.68974C9.29994 2.34418 9.31161 1.87579 9.33102 1.28582C9.3668 0.838167 9.3909 0.581242 9.4003 0.519981C9.41454 0.440521 9.35482 0.393201 9.22323 0.374841C8.80029 0.336093 8.32686 0.268311 7.80584 0.170486C7.0741 0.0612586 6.40254 0.00662649 5.79283 0.00662649C4.7385 0.0160041 3.87336 0.152275 3.19437 0.42027C2.51281 0.699658 1.96571 1.04742 1.55443 1.46469C0.952002 2.08536 0.540578 2.74167 0.318191 3.42772C0.0983806 4.12058 -0.00909917 4.70625 0.000602794 5.18589C-0.00909945 5.84218 0.105657 6.52667 0.346993 7.23488C0.590755 7.94769 1.03553 8.61141 1.68101 9.2248C2.71609 10.1966 4.24385 10.6873 6.26383 10.6944V10.6965Z" fill="#525252"/>
<path d="M13.8817 2.10459C13.8817 2.03667 13.9157 1.99075 13.9834 1.96701C14.1403 1.92932 14.4165 1.90576 14.8111 1.89357C16.2117 1.92111 16.9248 2.71875 16.948 4.28904C16.933 5.21553 16.6804 5.82766 16.1926 6.12874C16.0527 6.21817 15.9018 6.27818 15.7404 6.30984C15.5751 6.33957 15.4181 6.35563 15.2697 6.35563C14.9873 6.35563 14.7282 6.33586 14.4906 6.29782C14.2487 6.25777 14.0768 6.21613 13.973 6.16801C13.9113 6.12655 13.8817 6.07652 13.8817 6.02302V2.10459ZM12.8991 7.07489C12.8991 8.2667 12.8777 9.13621 12.8331 9.68169C12.8165 9.85945 12.7843 10.0007 12.7378 10.1105C12.689 10.2318 12.6042 10.3081 12.4789 10.3397C12.3558 10.3694 12.2328 10.3855 12.1076 10.3855C12.0439 10.3974 12.0121 10.4216 12.0121 10.4589C12.0121 10.5188 12.0779 10.5492 12.2117 10.5492C12.776 10.5328 13.1622 10.5229 13.366 10.5148C13.5632 10.5229 14.0686 10.5329 14.8834 10.5492C15.017 10.5492 15.0828 10.5188 15.0828 10.4589C15.0828 10.4216 15.0508 10.3955 14.9873 10.3855C14.8301 10.3855 14.6413 10.3695 14.4247 10.3397C14.2445 10.308 14.1256 10.2318 14.0686 10.1105C14.0046 10.0026 13.9642 9.85945 13.9475 9.68407C13.8944 9.1362 13.8731 8.26667 13.8817 7.07708V6.79011C13.8817 6.72664 13.9113 6.69623 13.971 6.69623L15.4903 6.71823C15.5538 6.71823 15.6068 6.74212 15.6472 6.78788C15.9593 7.2069 16.4069 7.79624 16.9881 8.56002C17.3341 9.00846 17.6397 9.37713 17.9048 9.66571C18.1577 9.95887 18.4078 10.1762 18.6584 10.3212C18.8133 10.4032 18.9916 10.4589 19.1867 10.4914C19.3757 10.5286 19.6389 10.5492 19.9759 10.5492H20.8503C21.0583 10.5492 21.1603 10.5188 21.1517 10.4589C21.1389 10.4216 21.1009 10.3974 21.0369 10.3855C20.9563 10.3974 20.7951 10.3855 20.5554 10.3499C20.4067 10.3353 20.2072 10.2679 19.9547 10.1523C19.6895 10.0387 19.3883 9.81944 19.0507 9.49098C18.3464 8.7234 17.4913 7.7035 16.4897 6.42986C17.0412 5.92695 17.4317 5.45111 17.6611 5.0025C17.8731 4.54835 17.9791 4.10132 17.9791 3.66474C17.9708 3.24051 17.8687 2.88783 17.674 2.60685C17.5929 2.46724 17.5081 2.34771 17.4146 2.25052C17.315 2.15444 17.2217 2.08054 17.1349 2.03479C16.8038 1.81207 16.4471 1.66454 16.061 1.59062C15.6747 1.53695 15.28 1.50876 14.8746 1.50876C14.2681 1.52492 13.7841 1.53694 13.4213 1.54472C13.2048 1.52874 12.7397 1.5169 12.0248 1.50876C11.891 1.50876 11.8256 1.53884 11.8256 1.59868C11.8256 1.64834 11.8593 1.67212 11.9274 1.67212C12.0758 1.67212 12.2157 1.68429 12.343 1.70812C12.5512 1.73772 12.6935 1.80988 12.7654 1.92338C12.8289 2.02468 12.8653 2.18077 12.8735 2.39177C12.8906 2.50923 12.8991 3.37243 12.8991 4.98086L12.8991 7.07489Z" fill="#525252"/>
<path d="M23.7575 6.59083C23.7181 6.59083 23.7056 6.56358 23.7222 6.50915L24.7844 3.28197C24.8511 3.09851 24.9134 3.09851 24.9674 3.28197L26.1198 6.50915C26.1447 6.56359 26.1259 6.59083 26.0656 6.59083H23.7575ZM22.0693 9.23816C21.9715 9.54067 21.8446 9.79299 21.6906 9.99054C21.5367 10.1973 21.3246 10.3204 21.0545 10.3586C20.9317 10.3739 20.8132 10.3818 20.699 10.3818C20.6364 10.3818 20.6011 10.4059 20.5929 10.4561C20.5929 10.5151 20.6696 10.5455 20.8235 10.5455C21.4993 10.5291 21.9548 10.5195 22.1876 10.5116C22.4185 10.5195 22.7344 10.5291 23.1318 10.5455C23.2418 10.5455 23.3025 10.5151 23.3084 10.4561C23.3084 10.4059 23.2688 10.3818 23.1923 10.3818H23.0734C22.9674 10.3818 22.8677 10.3501 22.7783 10.2887C22.6679 10.243 22.612 10.1591 22.612 10.0378C22.612 9.8148 22.6679 9.54839 22.7783 9.23813L23.5039 7.11649C23.5265 7.05508 23.5682 7.02326 23.6288 7.02326H26.2256C26.2819 7.02326 26.3175 7.0473 26.3321 7.09241L27.461 10.0378C27.4919 10.135 27.5004 10.2069 27.4839 10.2528C27.461 10.3087 27.4278 10.3443 27.3902 10.3585C27.33 10.3663 27.3006 10.3937 27.3006 10.4442C27.3006 10.4955 27.4237 10.5238 27.6665 10.5238C28.6235 10.5393 29.2557 10.5455 29.5611 10.5455C29.7149 10.5455 29.7958 10.5151 29.8046 10.4561C29.8046 10.4059 29.7649 10.3818 29.6858 10.3818C29.5567 10.3937 29.3945 10.3705 29.2016 10.3128C29.0806 10.2888 28.9352 10.1893 28.7647 10.0138C28.5796 9.83888 28.3801 9.49694 28.1618 8.98723C26.9433 5.90285 26.0034 3.50071 25.3464 1.78147C25.2236 1.47897 25.1343 1.33351 25.0738 1.34997C25.0282 1.33352 24.9383 1.4866 24.8098 1.80904L22.0693 9.23816Z" fill="#525252"/>
<path d="M32.4501 3.18527C33.0027 3.79661 34.0658 4.94175 35.6397 6.62094C37.2802 8.32705 38.3432 9.41025 38.8243 9.87026C39.3955 10.417 39.694 10.6731 39.7171 10.637C39.7656 10.637 39.797 10.5914 39.8136 10.4976C39.8204 10.3994 39.8245 10.1618 39.8245 9.78826L39.8496 2.75568C39.8411 2.39587 39.8702 2.13625 39.9376 1.97606C39.9945 1.81649 40.1161 1.72043 40.3031 1.6883C40.4417 1.66659 40.5408 1.65442 40.5951 1.65442C40.6874 1.65442 40.734 1.62614 40.734 1.57055C40.7253 1.51676 40.6519 1.49092 40.5131 1.49092C40.2672 1.49092 40.0513 1.49446 39.864 1.50266C39.6772 1.51835 39.547 1.52653 39.4751 1.52653C39.2611 1.51066 38.8392 1.49853 38.2064 1.49092C38.0426 1.49092 37.9628 1.5167 37.9628 1.57055C37.9546 1.62611 37.9863 1.65442 38.0576 1.65442C38.1963 1.65442 38.3955 1.67436 38.6539 1.71234C38.851 1.75239 38.9838 1.85228 39.047 2.01184C39.1039 2.17979 39.1309 2.45981 39.1309 2.85143L39.2676 8.95467C38.7 8.34461 37.7236 7.30003 36.3367 5.82123C34.1985 3.55903 32.906 2.18819 32.4567 1.70856C32.3934 1.63273 32.3243 1.55247 32.2488 1.46652C32.1606 1.3766 32.0889 1.32865 32.0345 1.32105C31.9904 1.32105 31.9566 1.35875 31.9337 1.4325C31.9082 1.5183 31.8979 1.6823 31.8979 1.92433L31.885 8.79909C31.885 9.32399 31.8662 9.70217 31.8262 9.92789C31.7739 10.1514 31.6729 10.2817 31.5215 10.3211C31.3056 10.3792 31.1395 10.4031 31.0197 10.3911C30.9524 10.3911 30.9187 10.4161 30.9187 10.465C30.9187 10.525 30.9841 10.5552 31.1143 10.5552C31.7257 10.5393 32.1165 10.5293 32.2864 10.5218C32.4212 10.5293 32.8516 10.5393 33.5766 10.5552C33.7191 10.5552 33.7907 10.525 33.7907 10.465C33.7907 10.416 33.7593 10.3911 33.6959 10.3911C33.558 10.4031 33.3538 10.3791 33.0871 10.3211C32.9314 10.2817 32.8159 10.1599 32.7403 9.95161C32.6625 9.75232 32.6187 9.41248 32.6101 8.93095L32.4501 3.18527Z" fill="#525252"/>
<path d="M55.9288 10.0639C55.241 10.0553 54.673 9.81211 54.2249 9.33374C53.7665 8.86582 53.5353 8.25384 53.5273 7.4945C53.5273 7.01645 53.6305 6.60946 53.8367 6.27435C54.0415 5.9481 54.2952 5.68535 54.6048 5.48558C54.7931 5.73853 55.0323 6.03329 55.3259 6.36855C55.6227 6.71284 55.8565 6.97815 56.0237 7.16146C56.567 7.72562 57.2916 8.39917 58.1982 9.18241C57.9999 9.39627 57.7109 9.59161 57.3307 9.76621C56.9633 9.96376 56.4964 10.0639 55.9288 10.0639ZM55.5075 10.6938C55.9641 10.6851 56.3642 10.6257 56.713 10.5124C57.0624 10.4086 57.3618 10.2865 57.6094 10.1471C57.8718 9.9962 58.0804 9.84804 58.2351 9.70494C58.3798 9.56928 58.4851 9.46923 58.5492 9.40797C59.1809 9.90026 59.6539 10.2113 59.9654 10.3443C60.2733 10.472 60.6327 10.5319 61.0439 10.5243H62.2208C62.3445 10.5159 62.4108 10.4896 62.4188 10.4442C62.4188 10.3883 62.365 10.3606 62.256 10.3606C62.0288 10.3606 61.7892 10.3108 61.5349 10.2091C61.2606 10.1113 61.0255 10.0073 60.8268 9.90026C60.6575 9.80244 60.4407 9.66111 60.1761 9.47938C59.9059 9.29608 59.5713 9.04137 59.1685 8.71434C59.4494 8.37146 59.718 7.93724 59.9762 7.41059C60.2216 6.89281 60.3477 6.3866 60.3559 5.89224C60.3559 5.82576 60.3477 5.77035 60.3332 5.72255C60.3004 5.68533 60.2362 5.66113 60.1392 5.65275C59.4679 5.59495 58.991 5.5652 58.706 5.5652C58.5864 5.5652 58.5221 5.59302 58.5143 5.64908C58.5221 5.70263 58.568 5.72856 58.654 5.72856C58.7515 5.72856 58.8569 5.73648 58.9703 5.75282C59.0797 5.78231 59.1707 5.84002 59.2454 5.92186C59.4043 6.11308 59.4805 6.30685 59.4723 6.50599C59.4579 7.30538 59.2513 7.96894 58.8569 8.49511C58.1135 7.84119 57.3578 7.12569 56.5872 6.35084C55.9614 5.68078 55.4951 5.11457 55.1856 4.65631C54.8569 4.19171 54.6937 3.73516 54.6937 3.28892C54.7023 2.73125 54.8694 2.32856 55.1974 2.07924C55.4995 1.84212 55.8397 1.72229 56.2199 1.72229C56.482 1.72229 56.7176 1.77437 56.9281 1.88011C57.1202 1.97382 57.2835 2.09713 57.4154 2.24893C57.5685 2.4001 57.6738 2.5676 57.7336 2.75091C57.7726 2.93421 57.7913 3.10565 57.7913 3.26711C57.7831 3.42651 57.8078 3.50264 57.8636 3.49425C57.9132 3.51041 57.9544 3.44263 57.9876 3.28892C58.0102 3.16957 58.031 2.96253 58.0449 2.67111C58.0618 2.36623 58.0701 2.11501 58.0701 1.91603C58.0701 1.84211 58.0662 1.78197 58.0579 1.73464C58.0352 1.68876 57.9854 1.64678 57.909 1.6129C57.5746 1.42184 57.0934 1.32147 56.4637 1.31387C55.656 1.33021 55.0284 1.57682 54.5782 2.05534C54.1158 2.51962 53.8825 3.00607 53.8825 3.5161C53.8659 4.02644 54.0701 4.57669 54.4936 5.16855C53.9897 5.43749 53.556 5.80613 53.1949 6.27881C52.8024 6.75686 52.6041 7.34699 52.5956 8.04871C52.5956 8.30595 52.6517 8.58438 52.7651 8.88989C52.8788 9.18875 53.0463 9.47591 53.2689 9.74659C53.7317 10.3544 54.4791 10.6696 55.5075 10.6938Z" fill="#525252"/>
<path d="M70.6854 10.6899C71.149 10.6899 71.6053 10.6625 72.0576 10.6106C72.5235 10.5512 72.8988 10.4741 73.1832 10.3761C73.3054 10.3196 73.3914 10.2677 73.4344 10.2239C73.4729 10.1789 73.5108 10.0969 73.5516 9.97931C73.6235 9.70656 73.6929 9.36796 73.7549 8.95908C73.824 8.55259 73.8575 8.30944 73.8575 8.23457C73.8575 8.11204 73.824 8.04162 73.7549 8.02769C73.6832 8.02769 73.638 8.09811 73.6185 8.23457C73.6016 8.37291 73.5495 8.55494 73.4632 8.78194C73.3818 9.0159 73.2624 9.21569 73.1023 9.37921C72.8274 9.6453 72.4879 9.82401 72.0864 9.91297C71.6797 10.0152 71.2136 10.0652 70.6878 10.0652C69.1792 10.0472 67.974 9.53843 67.073 8.53468C66.1455 7.56211 65.6795 6.40783 65.6698 5.0723C65.6604 4.37278 65.7489 3.7214 65.9352 3.12352C66.1003 2.52389 66.4302 1.99047 66.9248 1.5178C67.0496 1.39036 67.2024 1.26515 67.3793 1.14548C67.5535 1.03816 67.7663 0.935891 68.0151 0.833636C68.2687 0.73644 68.5722 0.656825 68.9232 0.599835C69.2629 0.547758 69.6596 0.520677 70.116 0.520677C71.4096 0.547747 72.3323 0.804046 72.8896 1.29713C73.0757 1.45194 73.2193 1.64948 73.3244 1.89231C73.4226 2.13782 73.4729 2.39901 73.4729 2.68299C73.4633 2.87358 73.5014 2.96873 73.5875 2.96873C73.6617 2.97793 73.7024 2.88276 73.7117 2.68299C73.7211 2.33791 73.7334 1.86953 73.7527 1.27924C73.7884 0.83158 73.8123 0.574984 73.8219 0.513405C73.8359 0.434257 73.7761 0.386604 73.645 0.368085C73.2216 0.329455 72.7483 0.261381 72.2271 0.163873C71.4957 0.0548064 70.8238 5.0752e-05 70.2144 5.0752e-05C69.1599 0.00942838 68.2946 0.145381 67.6156 0.413694C66.9345 0.693395 66.3871 1.04085 65.9759 1.45844C65.3734 2.07895 64.9618 2.73507 64.7402 3.42129C64.5201 4.11399 64.4123 4.69984 64.4219 5.17964C64.4123 5.83593 64.5271 6.51911 64.7686 7.2278C65.0126 7.9414 65.4569 8.60515 66.1026 9.2179C67.1374 10.1902 68.6653 10.6807 70.6854 10.688L70.6854 10.6899Z" fill="#525252"/>
<path d="M77.2519 5.54327C77.2598 4.23163 77.6018 3.24765 78.2758 2.59579C78.9334 1.94409 79.7779 1.61771 80.8106 1.61771C81.8056 1.61771 82.6665 1.98937 83.3933 2.73477C84.1226 3.48636 84.4978 4.57956 84.5119 6.02084C84.504 6.8788 84.3847 7.5726 84.1497 8.10511C83.9111 8.64584 83.609 9.06343 83.2449 9.35738C82.8865 9.64579 82.5219 9.83814 82.1491 9.93992C81.7764 10.0526 81.4432 10.1083 81.1503 10.1083C80.0273 10.1006 79.1033 9.68315 78.383 8.85669C77.6371 8.04575 77.2598 6.94086 77.2519 5.54327ZM76.0975 5.87552C76.0889 7.01208 76.4618 8.05919 77.216 9.01325C77.9636 10.0173 79.1661 10.5319 80.8235 10.5639C82.3127 10.5398 83.4941 10.0591 84.3656 9.11897C85.2328 8.19452 85.6705 7.05024 85.6788 5.68225C85.6625 4.27723 85.2075 3.1804 84.3115 2.3932C83.4356 1.61217 82.2959 1.21864 80.8945 1.21073C79.2288 1.25219 78.0143 1.78707 77.2452 2.81235C76.4721 3.81436 76.0889 4.83378 76.0975 5.87552Z" fill="#525252"/>
<path d="M43.947 7.07337C43.947 8.26153 43.927 9.12994 43.8844 9.67527C43.8687 9.85035 43.838 9.9914 43.7933 10.1014C43.7469 10.2225 43.6661 10.2982 43.5468 10.3298C43.4298 10.3602 43.3123 10.3757 43.1926 10.3757C43.1322 10.3876 43.1021 10.4117 43.1021 10.4495C43.1021 10.5088 43.1647 10.5394 43.29 10.5394C43.4842 10.5394 43.7109 10.5327 43.9698 10.5174C44.2342 10.5075 44.3942 10.4996 44.4406 10.5034C44.6912 10.5209 46.262 10.554 47.945 10.573C48.1772 10.5754 48.3426 10.557 48.4262 10.5271C48.5083 10.4977 48.5646 10.406 48.5956 10.2644C48.6307 10.1058 48.6686 9.88714 48.7012 9.61771C48.7328 9.34956 48.7491 9.17624 48.7512 9.10375C48.755 8.995 48.7346 8.93166 48.6768 8.92866C48.6252 8.92571 48.5891 8.98866 48.5735 9.10375C48.5106 9.5647 48.3316 9.8604 48.0419 9.96804C47.8874 10.0254 47.695 10.0576 47.4819 10.0711C47.263 10.0852 47.0678 10.0935 46.904 10.095C46.3448 10.0991 45.3719 10.0416 45.2003 9.90817C45.0291 9.77489 44.9376 9.5099 44.9295 9.11764C44.9174 8.5147 44.9174 7.83578 44.9295 7.07913V6.03057C44.9295 5.97707 44.9559 5.94874 45.0106 5.94874C45.5138 5.94874 46.6809 5.96284 47.3003 6.00666C47.5257 6.02218 47.6885 6.07994 47.7733 6.16368C47.8521 6.24204 47.8942 6.33748 47.9103 6.4247C47.9385 6.57334 47.9573 6.70315 47.9573 6.81253C47.9573 6.88677 47.9855 6.92207 48.0439 6.92207C48.0886 6.92207 48.1198 6.89378 48.1229 6.83661C48.1251 6.79226 48.1229 6.74463 48.1229 6.70141C48.1229 6.52665 48.1303 6.26893 48.1714 5.93683C48.2191 5.55264 48.2684 5.32692 48.2705 5.26613C48.2727 5.20566 48.2502 5.17243 48.2078 5.17243C48.1689 5.17243 48.1167 5.22817 48.0359 5.32409C47.9446 5.43252 47.7521 5.48475 47.476 5.49299C47.2977 5.49829 46.3692 5.50247 45.9098 5.50483C45.4379 5.50719 45.1339 5.51703 44.9984 5.51703C44.9397 5.51703 44.9174 5.47918 44.9296 5.39943V2.09518C44.9296 2.01572 44.9518 1.97758 44.9984 1.97758C45.1178 1.97758 45.3818 1.97522 45.7865 1.97758C46.1958 1.98053 47.0778 1.99834 47.2135 2.01149C47.5198 2.04169 47.7343 2.09601 47.8521 2.16883C47.9622 2.23722 48.0307 2.32411 48.0541 2.41988C48.0969 2.59463 48.1229 2.7363 48.1229 2.84331C48.1229 2.94937 48.1543 3.00305 48.2137 3.00083C48.2636 2.99906 48.2939 2.94745 48.3007 2.86754C48.3239 2.59384 48.3303 2.32648 48.3613 2.08129C48.4008 1.76881 48.4556 1.58486 48.4587 1.52391C48.4614 1.46155 48.4423 1.42595 48.412 1.41851C48.3592 1.426 48.3048 1.44446 48.2523 1.47394C48.1494 1.49818 47.9763 1.52986 47.7409 1.5341C46.7532 1.55102 45.2503 1.55674 44.4467 1.54612C44.2418 1.54317 43.7956 1.51793 43.1141 1.51009C42.9867 1.51009 42.9238 1.53968 42.9238 1.59983C42.9238 1.64919 42.9564 1.67344 43.021 1.67344C43.1629 1.67344 43.2958 1.68502 43.4177 1.70908C43.6155 1.73916 43.7514 1.8104 43.8199 1.92405C43.8807 2.02552 43.9149 2.18268 43.9227 2.39194C43.9392 2.50924 43.9471 3.37147 43.9471 4.97927L43.947 7.07337Z" fill="#525252"/>
</svg>
