<svg width="80" height="80" viewBox="0 0 80 80" fill="none" xmlns="http://www.w3.org/2000/svg">
<rect width="80.0001" height="80.0001" rx="8" fill="#FAFAFA"/>
<g clip-path="url(#clip0_1849_5255)">
<path d="M71.1341 33.1168L68.7979 38.8488L67.2181 34.8506C66.6089 33.1893 64.7379 33.364 64.7379 33.364H59.3659C56.9995 33.364 54.9813 34.8374 54.2081 36.9041C54.2081 36.881 54.2115 36.8546 54.2115 36.8316C54.2115 32.8432 50.9314 29.6096 46.8814 29.6096H41.2015V32.9355H42.6407V38.3544C42.4232 35.5625 40.0501 33.364 37.1583 33.364C34.3033 33.364 31.957 35.5098 31.6859 38.2522C31.4181 35.5098 29.0718 33.364 26.2135 33.364C23.6597 33.364 21.5142 35.078 20.895 37.4018C20.8984 37.326 20.9017 37.2502 20.9017 37.1711V34.2737H14.0738V37.5139H17.3639C17.1865 39.5806 15.426 41.2023 13.2805 41.2023C11.0179 41.2023 9.18373 39.396 9.18373 37.1678C9.18373 34.9396 11.0179 33.1332 13.2805 33.1332H20.885V29.636H13.2504C9.02307 29.636 5.5957 33.008 5.5957 37.1711C5.5957 41.3342 9.02307 44.7094 13.2504 44.7094C16.902 44.7094 19.9545 42.1879 20.7176 38.8159C20.7377 41.789 23.1911 44.1952 26.2135 44.1952C29.0685 44.1952 31.4148 42.0527 31.6859 39.307C31.9536 42.0494 34.2999 44.1952 37.1583 44.1952C40.0501 44.1952 42.4198 41.9967 42.6407 39.2048V44.0535H46.8814C50.1649 44.0535 52.9429 41.9275 53.8768 38.9972C53.9906 41.8813 56.4071 44.0766 59.3693 44.1952C60.2529 44.2282 61.4009 43.8063 61.4009 43.8063C61.759 43.6646 62.1172 43.7371 62.1172 43.7371H63.8409V36.1954C64.4534 36.1954 64.4869 36.5151 64.4869 36.5151L67.2181 42.9559L66.9302 43.8063C66.2474 45.6093 64.7379 45.3291 64.7379 45.3291H63.7673V47.6991H66.8934C69.0489 47.5936 69.5509 45.5401 69.5509 45.5401L74.4042 33.1201H71.1341V33.1168ZM26.2135 41.3968C24.7441 41.3968 23.5526 40.2266 23.5526 38.7796C23.5526 37.3326 24.7441 36.1591 26.2135 36.1591C27.6828 36.1591 28.8744 37.3326 28.8744 38.7796C28.8744 40.2266 27.6828 41.3968 26.2135 41.3968ZM37.1583 41.3968C35.6889 41.3968 34.4974 40.2266 34.4974 38.7796C34.4974 37.3326 35.6889 36.1591 37.1583 36.1591C38.6276 36.1591 39.8192 37.3326 39.8192 38.7796C39.8192 40.2266 38.6276 41.3968 37.1583 41.3968ZM46.8413 40.7244H45.8706V32.9388H46.8413C49.0235 32.9388 50.7941 34.6824 50.7941 36.8316C50.7975 38.984 49.0235 40.7244 46.8413 40.7244ZM60.688 41.0408C60.293 41.2649 59.8579 41.3968 59.3659 41.3968C57.8999 41.3968 56.7084 40.2233 56.7084 38.7796C56.7084 37.3326 57.8999 36.1591 59.3659 36.1591C59.8378 36.1591 60.3064 36.2778 60.688 36.4954V41.0408Z" fill="#DF610F"/>
<path d="M47.2429 45.0193H46.5835V45.7708H47.2429V45.0193Z" fill="#DF610F"/>
<path d="M46.4029 45.428H43.5948C43.5479 46.4267 43.4542 46.73 42.8818 46.8552V47.7419C43.3504 47.6529 43.7554 47.498 44.0131 47.3167C44.2775 47.1222 44.4081 46.8783 44.5252 46.341L44.5487 46.229H46.4464V47.3694C46.4397 48.3286 46.0916 48.5791 44.7562 48.589H43.2701V49.3735H44.2776C45.767 49.3735 46.2423 49.3043 46.8046 49.0142C47.4137 48.6615 47.571 48.2924 47.5777 47.2244V45.9092H46.4029V45.428Z" fill="#DF610F"/>
<path d="M48.0893 45.0193H47.4399V45.7708H48.0893V45.0193Z" fill="#DF610F"/>
<path d="M57.6888 45.0193H57.0361V45.7708H57.6888V45.0193Z" fill="#DF610F"/>
<path d="M56.8424 45.0193H56.1797V45.7708H56.8424V45.0193Z" fill="#DF610F"/>
<path d="M50.8374 48.022C50.8407 48.2132 50.7905 48.3417 50.6734 48.4406C50.5027 48.5856 50.1947 48.6483 49.6492 48.6483H48.3706V49.3866H49.4718C50.5495 49.3833 50.9779 49.3141 51.3093 49.0965C51.6741 48.846 51.8013 48.4999 51.7946 47.7715V46.5947H50.8374V48.022Z" fill="#DF610F"/>
<path d="M52.5981 47.409H54.5997L54.5963 47.5441C54.5896 47.8869 54.5829 47.9858 54.5361 48.0946C54.439 48.3517 54.1043 48.5099 53.6391 48.5165H52.9195V49.3636H53.9503C54.6867 49.3537 55.2189 49.1395 55.4933 48.7407C55.6875 48.4605 55.7444 48.2232 55.7711 47.5408L55.7778 47.4123H57.438V46.6575H52.5981V47.409Z" fill="#DF610F"/>
<path d="M52.916 45.3555V46.1268H57.0429V45.9092H56.012V45.3555H52.916Z" fill="#DF610F"/>
<path d="M61.086 46.051L58.0938 47.0761V47.9199L60.0919 47.2541V49.3669H61.2031V46.875L61.3036 46.8388C62.7495 46.3213 62.8934 46.2092 62.947 45.2039H61.8157C61.7655 45.7444 61.6483 45.8631 61.086 46.051Z" fill="#DF610F"/>
<path d="M49.7599 47.8705H50.5867L50.5699 47.7914C50.4795 47.3661 50.3992 47.0629 50.2888 46.7036L50.2754 46.6575H49.4453L49.4721 46.7399C49.5792 47.0959 49.6763 47.4683 49.7499 47.8177L49.7599 47.8705Z" fill="#DF610F"/>
<path d="M49.1945 46.6575H48.3477L48.3711 46.7399C48.4882 47.142 48.5485 47.3892 48.6422 47.8177L48.6522 47.8705H49.5124L49.4923 47.7914C49.3518 47.1947 49.2882 46.9508 49.2078 46.7036L49.1945 46.6575Z" fill="#DF610F"/>
</g>
<defs>
<clipPath id="clip0_1849_5255">
<rect width="70" height="21" fill="white" transform="translate(5 29)"/>
</clipPath>
</defs>
</svg>
