<svg width="73" height="22" viewBox="0 0 73 22" fill="none" xmlns="http://www.w3.org/2000/svg">
<path d="M12.662 5.16228L14.2068 2.4699C14.6611 1.67892 14.3885 0.674978 13.601 0.218642C13.2224 0.00568553 12.768 -0.0551579 12.3591 0.0513205C11.935 0.157799 11.5867 0.446812 11.3595 0.811881L9.81472 3.50426C6.5131 2.45469 2.8177 3.80849 1.01544 6.94199C-0.0901513 8.84339 -0.302182 11.1403 0.424781 13.2242L3.2872 8.26537C3.93844 7.12453 5.01374 6.30312 6.27078 5.96848C7.52782 5.63383 8.87573 5.80115 10.0116 6.45523C12.3591 7.80903 13.1769 10.8361 11.8139 13.1938C10.4508 15.5515 7.43695 16.3577 5.08946 15.0039L6.72513 12.1594C7.10375 12.3724 7.54296 12.4332 7.96702 12.3268C8.39108 12.2203 8.73942 11.9313 8.9666 11.5662C9.42095 10.7752 9.14834 9.77128 8.36079 9.31494C7.98217 9.10198 7.54296 9.04114 7.1189 9.14762C6.69484 9.2541 6.3465 9.54311 6.11933 9.90818L0.879133 18.9893C0.424781 19.7802 0.697392 20.7842 1.48494 21.2405C1.86356 21.4535 2.30277 21.5143 2.72683 21.4078C3.15089 21.3014 3.49923 21.0124 3.7264 20.6473L5.2712 17.9549C8.57283 19.0045 12.2682 17.6507 14.0705 14.5172C15.8879 11.3837 15.2064 7.50481 12.662 5.16228Z" fill="#FE3A2B"/>
<path d="M22.1582 7.10936C23.6424 7.10936 24.854 7.83949 24.854 9.54315C24.854 11.2316 23.6272 11.9769 22.1582 11.9769H21.1131V14.3499H19.6289V7.10936H22.1582ZM22.1127 8.41752H21.098V10.6688H22.1127C22.8397 10.6688 23.3092 10.3341 23.3092 9.54315C23.3092 8.72174 22.8245 8.41752 22.1127 8.41752Z" fill="#535358"/>
<path d="M27.0195 7.10936H31.8054V8.41752H28.5189V10.0755H31.4116V11.3533H28.5189V13.0417H31.9568V14.3499H27.0195V7.10936Z" fill="#535358"/>
<path d="M34.4555 7.10936H35.9549V13.0417H39.2262V14.3499H34.4555V7.10936Z" fill="#535358"/>
<path d="M44.633 7.01815C46.723 7.01815 48.3738 8.60011 48.3738 10.7297C48.3738 12.8745 46.723 14.4412 44.633 14.4412C42.543 14.4412 40.8922 12.8593 40.8922 10.7297C40.8922 8.5849 42.543 7.01815 44.633 7.01815ZM44.633 8.34152C43.3154 8.34152 42.4218 9.37589 42.4218 10.7297C42.4218 12.0835 43.3154 13.1178 44.633 13.1178C45.9506 13.1178 46.8442 12.0835 46.8442 10.7297C46.8442 9.37589 45.9506 8.34152 44.633 8.34152Z" fill="#535358"/>
<path d="M52.0393 8.41752H49.9644V7.10936H55.5832V8.41752H53.5235V14.3499H52.0393V8.41752Z" fill="#535358"/>
<path d="M60.9139 7.01815C63.004 7.01815 64.6548 8.60011 64.6548 10.7297C64.6548 12.8745 63.004 14.4412 60.9139 14.4412C58.8239 14.4412 57.1731 12.8593 57.1731 10.7297C57.1731 8.5849 58.8391 7.01815 60.9139 7.01815ZM60.9139 8.34152C59.5963 8.34152 58.7028 9.37589 58.7028 10.7297C58.7028 12.0835 59.5963 13.1178 60.9139 13.1178C62.2316 13.1178 63.1251 12.0835 63.1251 10.7297C63.1251 9.37589 62.2316 8.34152 60.9139 8.34152Z" fill="#535358"/>
<path d="M69.1986 10.9882C68.8351 10.6535 68.3353 9.99944 68.3353 9.99944C68.3353 9.99944 68.4413 10.7904 68.4413 11.3228V14.3498H67.048V7.04847H67.1994L70.8494 10.471C71.1977 10.8056 71.6975 11.4597 71.6975 11.4597C71.6975 11.4597 71.6066 10.6383 71.6066 10.1363V7.10931H73V14.4107H72.8485L69.1986 10.9882Z" fill="#535358"/>
</svg>
