<svg width="79" height="23" viewBox="0 0 79 23" fill="none" xmlns="http://www.w3.org/2000/svg">
<path d="M75.2456 4.0266L72.5634 10.6077L70.7496 6.0172C70.0502 4.10986 67.9021 4.31043 67.9021 4.31043H61.7344C59.0175 4.31043 56.7003 6.00206 55.8127 8.37488C55.8127 8.34839 55.8165 8.31812 55.8165 8.29162C55.8165 3.7125 52.0506 0 47.4008 0H40.8796V3.81846H42.532V10.04C42.2822 6.83463 39.5577 4.31043 36.2375 4.31043C32.9596 4.31043 30.2658 6.77408 29.9545 9.9227C29.6471 6.77408 26.9533 4.31043 23.6716 4.31043C20.7395 4.31043 18.2763 6.27832 17.5654 8.94633C17.5692 8.85929 17.5731 8.77224 17.5731 8.68142V5.35493H9.73378V9.075H13.5112C13.3076 11.4478 11.2863 13.3097 8.82304 13.3097C6.22532 13.3097 4.11947 11.2359 4.11947 8.67763C4.11947 6.11938 6.22532 4.04553 8.82304 4.04553H17.5539V0.0302752H8.78846C3.93502 0.0302752 0 3.90172 0 8.68142C0 13.4611 3.93502 17.3363 8.78846 17.3363C12.9809 17.3363 16.4856 14.4413 17.3617 10.5698C17.3848 13.9834 20.2015 16.746 23.6716 16.746C26.9495 16.746 29.6433 14.2861 29.9545 11.1337C30.262 14.2823 32.9558 16.746 36.2375 16.746C39.5577 16.746 42.2784 14.2218 42.532 11.0164V16.5832H47.4008C51.1706 16.5832 54.3601 14.1423 55.4322 10.778C55.5629 14.0893 58.3374 16.6097 61.7382 16.746C62.7527 16.7838 64.0708 16.2994 64.0708 16.2994C64.482 16.1367 64.8932 16.2199 64.8932 16.2199H66.8722V7.56124C67.5754 7.56124 67.6139 7.92832 67.6139 7.92832L70.7496 15.323L70.4191 16.2994C69.6352 18.3695 67.9021 18.0478 67.9021 18.0478H66.7877V20.7688H70.3768C72.8516 20.6477 73.428 18.29 73.428 18.29L79.0001 4.03039H75.2456V4.0266ZM23.6716 13.533C21.9846 13.533 20.6166 12.1896 20.6166 10.5282C20.6166 8.86686 21.9846 7.51961 23.6716 7.51961C25.3586 7.51961 26.7266 8.86686 26.7266 10.5282C26.7266 12.1896 25.3586 13.533 23.6716 13.533ZM36.2375 13.533C34.5505 13.533 33.1825 12.1896 33.1825 10.5282C33.1825 8.86686 34.5505 7.51961 36.2375 7.51961C37.9245 7.51961 39.2925 8.86686 39.2925 10.5282C39.2925 12.1896 37.9245 13.533 36.2375 13.533ZM47.3547 12.761H46.2403V3.82225H47.3547C49.8602 3.82225 51.893 5.8242 51.893 8.29162C51.8969 10.7628 49.8602 12.761 47.3547 12.761ZM63.2523 13.1243C62.7989 13.3816 62.2993 13.533 61.7344 13.533C60.0513 13.533 58.6832 12.1858 58.6832 10.5282C58.6832 8.86686 60.0513 7.51961 61.7344 7.51961C62.2762 7.51961 62.8142 7.65585 63.2523 7.90562V13.1243Z" fill="#DF610F"/>
<path d="M47.8158 17.6921H47.0588V18.555H47.8158V17.6921Z" fill="#DF610F"/>
<path d="M46.8515 18.1613H43.6274C43.5736 19.308 43.466 19.6561 42.8089 19.7999V20.818C43.3468 20.7158 43.8118 20.5379 44.1077 20.3298C44.4113 20.1065 44.5612 19.8264 44.6957 19.2096L44.7226 19.0809H46.9014V20.3903C46.8937 21.4916 46.4941 21.7792 44.9608 21.7905H43.2546V22.6912H44.4113C46.1213 22.6912 46.667 22.6118 47.3126 22.2787C48.012 21.8738 48.1926 21.4499 48.2003 20.2238V18.7138H46.8515V18.1613Z" fill="#DF610F"/>
<path d="M48.7878 17.6921H48.0423V18.555H48.7878V17.6921Z" fill="#DF610F"/>
<path d="M59.8089 17.6921H59.0596V18.555H59.8089V17.6921Z" fill="#DF610F"/>
<path d="M58.8369 17.6921H58.076V18.555H58.8369V17.6921Z" fill="#DF610F"/>
<path d="M51.9428 21.1396C51.9466 21.3591 51.889 21.5067 51.7545 21.6202C51.5585 21.7867 51.205 21.8586 50.5786 21.8586H49.1107V22.7063H50.3749C51.6123 22.7025 52.1042 22.6231 52.4846 22.3733C52.9035 22.0857 53.0495 21.6883 53.0418 20.852V19.5009H51.9428V21.1396Z" fill="#DF610F"/>
<path d="M53.9644 20.4359H56.2624L56.2586 20.591C56.2509 20.9846 56.2432 21.0982 56.1894 21.223C56.078 21.5182 55.6937 21.6999 55.1595 21.7074H54.3333V22.68H55.5169C56.3623 22.6687 56.9733 22.4227 57.2885 21.9648C57.5113 21.6431 57.5767 21.3706 57.6074 20.5873L57.6151 20.4397H59.5211V19.573H53.9644V20.4359Z" fill="#DF610F"/>
<path d="M54.3294 18.0782V18.9637H59.0676V18.7139H57.884V18.0782H54.3294Z" fill="#DF610F"/>
<path d="M63.7091 18.8769L60.2736 20.0538V21.0226L62.5678 20.2582V22.684H63.8436V19.823L63.9588 19.7813C65.6189 19.1872 65.7842 19.0585 65.8457 17.9043H64.5468C64.4891 18.5249 64.3546 18.6611 63.7091 18.8769Z" fill="#DF610F"/>
<path d="M50.7056 20.9657H51.6547L51.6355 20.8749C51.5318 20.3867 51.4395 20.0385 51.3127 19.626L51.2974 19.573H50.3443L50.3751 19.6677C50.4981 20.0764 50.6095 20.504 50.694 20.9052L50.7056 20.9657Z" fill="#DF610F"/>
<path d="M50.0564 19.573H49.0842L49.1111 19.6677C49.2456 20.1293 49.3147 20.4132 49.4223 20.9052L49.4339 20.9657H50.4215L50.3984 20.8749C50.237 20.1899 50.164 19.9099 50.0718 19.626L50.0564 19.573Z" fill="#DF610F"/>
</svg>
