<svg width="80" height="80" viewBox="0 0 80 80" fill="none" xmlns="http://www.w3.org/2000/svg">
<rect width="80.0001" height="80.0001" rx="8" fill="#FAFAFA"/>
<g clip-path="url(#clip0_1847_5915)">
<path d="M73.4969 43.8955C73.6769 43.8955 73.8191 43.8323 73.9233 43.7055C74.0296 43.5929 74.0819 43.4527 74.0819 43.2857C74.0748 43.1187 74.0226 42.9855 73.9233 42.8868C73.8191 42.7902 73.6805 42.7429 73.5076 42.7429C73.3134 42.75 73.1676 42.8127 73.0686 42.9323C72.9785 43.0553 72.9316 43.1835 72.9316 43.3174C72.9316 43.4493 72.9785 43.5757 73.0686 43.6953C73.1603 43.8286 73.3025 43.8955 73.4969 43.8955Z" fill="#525252"/>
<path d="M10.769 43.8526C11.1283 43.8526 11.4821 43.8326 11.8319 43.795C12.193 43.7519 12.4836 43.6962 12.7041 43.6253C12.7984 43.5845 12.865 43.5467 12.8986 43.5155C12.928 43.4823 12.9579 43.4232 12.9895 43.3377C13.0446 43.1401 13.0985 42.8949 13.1466 42.5987C13.2005 42.3044 13.2262 42.1284 13.2262 42.0742C13.2262 41.9853 13.2005 41.9343 13.1466 41.9241C13.0911 41.9241 13.0559 41.9751 13.0411 42.0742C13.028 42.1744 12.9873 42.306 12.9206 42.4705C12.8577 42.6401 12.7651 42.7846 12.6409 42.9031C12.4281 43.0958 12.1651 43.2258 11.8542 43.2896C11.5394 43.3639 11.1781 43.3999 10.771 43.3999C9.60235 43.3869 8.66895 43.0186 7.97098 42.2913C7.25246 41.587 6.89138 40.7514 6.88398 39.7839C6.87658 39.2773 6.94504 38.8051 7.08947 38.3724C7.21735 37.9378 7.47298 37.5511 7.85614 37.209C7.95266 37.1171 8.0709 37.0265 8.20806 36.9393C8.34309 36.8619 8.50796 36.788 8.70053 36.714C8.89675 36.643 9.13219 36.5854 9.40414 36.5446C9.66705 36.5065 9.97447 36.4869 10.3282 36.4869C11.33 36.5065 12.0449 36.6923 12.4764 37.0496C12.6207 37.1615 12.7318 37.3046 12.8133 37.4805C12.8893 37.6581 12.928 37.8474 12.928 38.0533C12.9206 38.1912 12.9504 38.2603 13.0169 38.2603C13.0744 38.267 13.1059 38.1977 13.1132 38.0533C13.1207 37.803 13.1298 37.4637 13.1448 37.0364C13.1725 36.7122 13.1912 36.5261 13.1985 36.4817C13.2095 36.4242 13.1632 36.3899 13.0613 36.3766C12.7337 36.3485 12.367 36.2994 11.9634 36.2286C11.3966 36.1495 10.8764 36.1099 10.4041 36.1099C9.58744 36.1167 8.9173 36.2154 8.39136 36.4095C7.86342 36.6119 7.43963 36.8637 7.12106 37.166C6.65441 37.6155 6.33572 38.0909 6.16346 38.5878C5.9932 39.0896 5.90994 39.5138 5.91746 39.8612C5.90994 40.3366 5.99883 40.8324 6.18577 41.3453C6.37459 41.8616 6.71911 42.3424 7.21911 42.7866C8.02088 43.4905 9.20428 43.8459 10.769 43.8511V43.8526Z" fill="#525252"/>
<path d="M16.6703 37.6294C16.6703 37.5802 16.6966 37.547 16.7491 37.5298C16.8706 37.5025 17.0845 37.4854 17.3902 37.4766C18.4751 37.4965 19.0274 38.0742 19.0454 39.2116C19.0338 39.8827 18.8382 40.326 18.4603 40.5441C18.3519 40.6089 18.2351 40.6523 18.11 40.6753C17.982 40.6968 17.8604 40.7084 17.7454 40.7084C17.5266 40.7084 17.326 40.6941 17.142 40.6666C16.9545 40.6376 16.8214 40.6074 16.741 40.5726C16.6932 40.5425 16.6703 40.5063 16.6703 40.4675V37.6294ZM15.9091 41.2294C15.9091 42.0926 15.8926 42.7224 15.858 43.1175C15.8451 43.2463 15.8202 43.3486 15.7842 43.4281C15.7464 43.516 15.6807 43.5712 15.5836 43.5941C15.4883 43.6157 15.393 43.6273 15.296 43.6273C15.2467 43.6359 15.2221 43.6535 15.2221 43.6805C15.2221 43.7238 15.273 43.7458 15.3767 43.7458C15.8138 43.734 16.113 43.7268 16.2708 43.721C16.4236 43.7268 16.815 43.7341 17.4462 43.7458C17.5497 43.7458 17.6006 43.7238 17.6006 43.6805C17.6006 43.6534 17.5758 43.6345 17.5266 43.6273C17.4049 43.6273 17.2587 43.6157 17.0909 43.5941C16.9513 43.5712 16.8592 43.516 16.815 43.4281C16.7655 43.3499 16.7341 43.2463 16.7212 43.1192C16.6801 42.7224 16.6636 42.0926 16.6703 41.231V41.0231C16.6703 40.9772 16.6932 40.9551 16.7394 40.9551L17.9163 40.9711C17.9655 40.9711 18.0066 40.9884 18.0378 41.0215C18.2796 41.325 18.6263 41.7519 19.0765 42.3051C19.3445 42.6299 19.5812 42.8969 19.7866 43.1059C19.9825 43.3183 20.1762 43.4757 20.3703 43.5807C20.4903 43.6401 20.6284 43.6805 20.7795 43.704C20.926 43.7309 21.1298 43.7458 21.3908 43.7458H22.0681C22.2292 43.7458 22.3083 43.7238 22.3016 43.6805C22.2917 43.6534 22.2622 43.6359 22.2127 43.6273C22.1502 43.6359 22.0254 43.6273 21.8398 43.6015C21.7246 43.5909 21.57 43.5421 21.3744 43.4584C21.169 43.3761 20.9357 43.2173 20.6742 42.9794C20.1286 42.4234 19.4663 41.6847 18.6904 40.7622C19.1176 40.398 19.4201 40.0533 19.5978 39.7284C19.762 39.3994 19.8441 39.0756 19.8441 38.7594C19.8377 38.4522 19.7586 38.1967 19.6078 37.9932C19.5449 37.8921 19.4793 37.8055 19.4068 37.7351C19.3297 37.6655 19.2575 37.612 19.1902 37.5788C18.9337 37.4175 18.6574 37.3107 18.3584 37.2571C18.0592 37.2183 17.7534 37.1978 17.4394 37.1978C16.9696 37.2096 16.5946 37.2183 16.3136 37.2239C16.146 37.2123 15.7857 37.2037 15.2319 37.1978C15.1282 37.1978 15.0776 37.2196 15.0776 37.263C15.0776 37.2989 15.1037 37.3162 15.1564 37.3162C15.2714 37.3162 15.3798 37.325 15.4784 37.3422C15.6396 37.3637 15.7499 37.4159 15.8055 37.4982C15.8548 37.5715 15.8829 37.6846 15.8893 37.8374C15.9025 37.9225 15.9091 38.5477 15.9091 39.7127L15.9091 41.2294Z" fill="#525252"/>
<path d="M24.32 40.8788C24.2895 40.8788 24.2797 40.859 24.2926 40.8196L25.1154 38.4822C25.1671 38.3493 25.2154 38.3493 25.2572 38.4822L26.1498 40.8196C26.1691 40.859 26.1545 40.8788 26.1078 40.8788H24.32ZM23.0122 42.7963C22.9365 43.0154 22.8382 43.1981 22.7189 43.3412C22.5997 43.4909 22.4355 43.5801 22.2262 43.6078C22.1311 43.6189 22.0393 43.6246 21.9508 43.6246C21.9024 43.6246 21.875 43.642 21.8687 43.6784C21.8687 43.7211 21.9281 43.7431 22.0473 43.7431C22.5707 43.7313 22.9236 43.7243 23.104 43.7186C23.2828 43.7243 23.5275 43.7313 23.8353 43.7431C23.9205 43.7431 23.9675 43.7212 23.9721 43.6784C23.9721 43.642 23.9414 43.6246 23.8821 43.6246H23.7901C23.708 43.6246 23.6307 43.6017 23.5614 43.5572C23.476 43.524 23.4326 43.4633 23.4326 43.3755C23.4326 43.2139 23.476 43.0209 23.5614 42.7962L24.1236 41.2595C24.141 41.215 24.1733 41.192 24.2203 41.192H26.2318C26.2754 41.192 26.3029 41.2094 26.3142 41.2421L27.1887 43.3755C27.2126 43.4459 27.2192 43.4979 27.2064 43.5312C27.1887 43.5716 27.163 43.5974 27.1338 43.6077C27.0872 43.6133 27.0644 43.6332 27.0644 43.6698C27.0644 43.7069 27.1598 43.7274 27.3479 43.7274C28.0892 43.7387 28.5789 43.7432 28.8155 43.7432C28.9345 43.7432 28.9973 43.7212 29.0041 43.6784C29.0041 43.642 28.9733 43.6246 28.912 43.6246C28.8121 43.6332 28.6864 43.6164 28.5369 43.5746C28.4432 43.5572 28.3306 43.4852 28.1985 43.358C28.0552 43.2314 27.9006 42.9837 27.7315 42.6145C26.7877 40.3805 26.0596 38.6406 25.5507 37.3953C25.4556 37.1762 25.3865 37.0709 25.3396 37.0828C25.3043 37.0709 25.2346 37.1818 25.135 37.4153L23.0122 42.7963Z" fill="#525252"/>
<path d="M31.0529 38.4123C31.4809 38.8551 32.3044 39.6845 33.5235 40.9007C34.7943 42.1365 35.6177 42.921 35.9904 43.2542C36.4328 43.6502 36.664 43.8357 36.6819 43.8096C36.7195 43.8096 36.7438 43.7766 36.7567 43.7086C36.762 43.6375 36.7651 43.4654 36.7651 43.1948L36.7845 38.1011C36.778 37.8405 36.8005 37.6525 36.8527 37.5364C36.8968 37.4208 36.991 37.3513 37.1359 37.328C37.2432 37.3123 37.32 37.3035 37.362 37.3035C37.4335 37.3035 37.4696 37.283 37.4696 37.2427C37.4629 37.2038 37.4061 37.185 37.2985 37.185C37.108 37.185 36.9408 37.1876 36.7957 37.1935C36.651 37.2049 36.5501 37.2108 36.4945 37.2108C36.3287 37.1993 36.0019 37.1905 35.5118 37.185C35.3848 37.185 35.3231 37.2037 35.3231 37.2427C35.3167 37.283 35.3413 37.3035 35.3965 37.3035C35.5039 37.3035 35.6582 37.3179 35.8584 37.3454C36.011 37.3744 36.1139 37.4468 36.1629 37.5623C36.2069 37.684 36.2278 37.8868 36.2278 38.1705L36.3337 42.5911C35.8941 42.1492 35.1378 41.3926 34.0634 40.3215C32.4072 38.683 31.406 37.6901 31.058 37.3427C31.009 37.2878 30.9555 37.2296 30.897 37.1674C30.8286 37.1022 30.7731 37.0675 30.7309 37.062C30.6968 37.062 30.6706 37.0893 30.6529 37.1427C30.6331 37.2049 30.6251 37.3237 30.6251 37.499L30.6152 42.4784C30.6152 42.8586 30.6006 43.1325 30.5696 43.296C30.5291 43.4578 30.4509 43.5522 30.3336 43.5807C30.1664 43.6228 30.0377 43.6401 29.9449 43.6314C29.8928 43.6314 29.8667 43.6495 29.8667 43.685C29.8667 43.7284 29.9173 43.7503 30.0182 43.7503C30.4917 43.7388 30.7945 43.7315 30.9261 43.7261C31.0305 43.7315 31.3639 43.7388 31.9255 43.7503C32.0359 43.7503 32.0913 43.7284 32.0913 43.685C32.0913 43.6495 32.067 43.6314 32.0179 43.6314C31.9111 43.6401 31.7529 43.6228 31.5463 43.5807C31.4257 43.5522 31.3363 43.464 31.2777 43.3131C31.2174 43.1688 31.1835 42.9226 31.1768 42.5739L31.0529 38.4123Z" fill="#525252"/>
<path d="M49.2396 43.3946C48.7068 43.3883 48.2668 43.2122 47.9197 42.8657C47.5646 42.5268 47.3856 42.0835 47.3793 41.5336C47.3793 41.1873 47.4593 40.8925 47.619 40.6498C47.7777 40.4135 47.9742 40.2232 48.214 40.0785C48.3598 40.2617 48.5451 40.4752 48.7726 40.718C49.0025 40.9674 49.1836 41.1596 49.3131 41.2923C49.7339 41.701 50.2952 42.1888 50.9974 42.7561C50.8438 42.911 50.62 43.0525 50.3255 43.179C50.0409 43.322 49.6792 43.3946 49.2396 43.3946ZM48.9133 43.8508C49.2669 43.8445 49.5768 43.8015 49.847 43.7194C50.1177 43.6442 50.3496 43.5558 50.5413 43.4548C50.7446 43.3455 50.9062 43.2382 51.0261 43.1346C51.1381 43.0363 51.2197 42.9639 51.2694 42.9195C51.7587 43.2761 52.125 43.5014 52.3664 43.5977C52.6048 43.6902 52.8833 43.7335 53.2017 43.728H54.1134C54.2092 43.722 54.2605 43.7029 54.2668 43.67C54.2668 43.6296 54.2251 43.6095 54.1406 43.6095C53.9646 43.6095 53.7791 43.5734 53.582 43.4998C53.3696 43.4289 53.1875 43.3536 53.0336 43.2761C52.9024 43.2052 52.7345 43.1028 52.5296 42.9712C52.3202 42.8384 52.0611 42.654 51.7491 42.4171C51.9666 42.1687 52.1747 41.8542 52.3747 41.4728C52.5648 41.0978 52.6625 40.7311 52.6688 40.373C52.6688 40.3249 52.6625 40.2848 52.6513 40.2501C52.6258 40.2232 52.5761 40.2056 52.501 40.1996C51.981 40.1577 51.6116 40.1362 51.3908 40.1362C51.2982 40.1362 51.2484 40.1563 51.2423 40.1969C51.2484 40.2357 51.2839 40.2545 51.3506 40.2545C51.4261 40.2545 51.5077 40.2602 51.5955 40.2721C51.6803 40.2934 51.7507 40.3352 51.8086 40.3945C51.9317 40.533 51.9907 40.6733 51.9844 40.8176C51.9732 41.3966 51.8132 41.8772 51.5077 42.2583C50.9318 41.7847 50.3465 41.2664 49.7496 40.7052C49.2649 40.2199 48.9037 39.8098 48.6639 39.4778C48.4093 39.1413 48.2828 38.8107 48.2828 38.4874C48.2895 38.0835 48.4189 37.7919 48.673 37.6113C48.9071 37.4395 49.1706 37.3527 49.4651 37.3527C49.6681 37.3527 49.8506 37.3905 50.0137 37.467C50.1624 37.5349 50.2889 37.6242 50.3911 37.7342C50.5097 37.8437 50.5913 37.965 50.6375 38.0978C50.6678 38.2305 50.6823 38.3547 50.6823 38.4716C50.6759 38.5871 50.6951 38.6422 50.7383 38.6362C50.7767 38.6479 50.8086 38.5988 50.8344 38.4874C50.8519 38.401 50.8679 38.251 50.8787 38.04C50.8918 37.8191 50.8982 37.6372 50.8982 37.4931C50.8982 37.4395 50.8952 37.396 50.8888 37.3617C50.8712 37.3284 50.8326 37.298 50.7734 37.2735C50.5144 37.1351 50.1417 37.0624 49.6539 37.0569C49.0283 37.0687 48.5421 37.2474 48.1934 37.594C47.8352 37.9302 47.6545 38.2826 47.6545 38.652C47.6416 39.0216 47.7998 39.4202 48.1279 39.8489C47.7376 40.0437 47.4016 40.3107 47.1219 40.653C46.8179 40.9993 46.6643 41.4267 46.6577 41.935C46.6577 42.1213 46.7012 42.323 46.789 42.5442C46.8771 42.7607 47.0068 42.9687 47.1792 43.1648C47.5377 43.605 48.1166 43.8333 48.9133 43.8508Z" fill="#525252"/>
<path d="M60.6701 43.8479C61.0292 43.8479 61.3826 43.828 61.733 43.7905C62.0939 43.7475 62.3846 43.6916 62.6049 43.6206C62.6995 43.5797 62.7661 43.5421 62.7995 43.5104C62.8293 43.4778 62.8586 43.4184 62.8902 43.3332C62.9459 43.1357 62.9997 42.8904 63.0477 42.5943C63.1012 42.2998 63.1272 42.1237 63.1272 42.0695C63.1272 41.9808 63.1012 41.9297 63.0477 41.9197C62.9921 41.9197 62.9572 41.9707 62.942 42.0695C62.929 42.1697 62.8886 42.3015 62.8218 42.466C62.7587 42.6354 62.6662 42.7801 62.5422 42.8986C62.3293 43.0913 62.0663 43.2207 61.7553 43.2852C61.4403 43.3592 61.0792 43.3955 60.672 43.3955C59.5034 43.3824 58.5698 43.0139 57.8719 42.2869C57.1535 41.5824 56.7925 40.7464 56.785 39.7791C56.7777 39.2724 56.8463 38.8006 56.9906 38.3676C57.1185 37.9332 57.374 37.5469 57.7571 37.2045C57.8538 37.1122 57.9721 37.0215 58.1092 36.9349C58.2441 36.8571 58.409 36.783 58.6016 36.709C58.7981 36.6386 59.0332 36.5809 59.305 36.5396C59.5682 36.5019 59.8755 36.4823 60.229 36.4823C61.231 36.5019 61.9458 36.6876 62.3774 37.0447C62.5216 37.1568 62.6328 37.2999 62.7142 37.4758C62.7903 37.6536 62.8293 37.8428 62.8293 38.0485C62.8218 38.1865 62.8513 38.2554 62.9181 38.2554C62.9755 38.2621 63.0071 38.1932 63.0142 38.0485C63.0215 37.7985 63.031 37.4593 63.046 37.0317C63.0736 36.7075 63.0922 36.5216 63.0996 36.477C63.1105 36.4197 63.0641 36.3852 62.9625 36.3718C62.6346 36.3438 62.268 36.2945 61.8643 36.2239C61.2977 36.1449 60.7773 36.1052 60.3052 36.1052C59.4884 36.112 58.8182 36.2105 58.2922 36.4048C57.7646 36.6074 57.3406 36.8591 57.022 37.1615C56.5554 37.611 56.2366 38.0862 56.0649 38.5832C55.8944 39.085 55.8109 39.5093 55.8183 39.8568C55.8109 40.3322 55.8998 40.827 56.0869 41.3403C56.2759 41.8572 56.6201 42.3379 57.1202 42.7817C57.9217 43.4859 59.1053 43.8412 60.6701 43.8465L60.6701 43.8479Z" fill="#525252"/>
<path d="M65.7566 40.1201C65.7627 39.1701 66.0276 38.4574 66.5497 37.9853C67.0591 37.5132 67.7132 37.2768 68.5131 37.2768C69.2839 37.2768 69.9508 37.546 70.5137 38.0859C71.0786 38.6303 71.3692 39.4221 71.3802 40.466C71.3741 41.0875 71.2817 41.59 71.0996 41.9757C70.9148 42.3673 70.6808 42.6698 70.3987 42.8827C70.1212 43.0916 69.8387 43.2309 69.55 43.3046C69.2613 43.3863 69.0031 43.4266 68.7763 43.4266C67.9064 43.421 67.1907 43.1187 66.6327 42.5201C66.055 41.9327 65.7627 41.1324 65.7566 40.1201ZM64.8624 40.3608C64.8557 41.184 65.1446 41.9424 65.7288 42.6335C66.3079 43.3607 67.2393 43.7334 68.5231 43.7566C69.6767 43.7392 70.5918 43.391 71.2669 42.71C71.9386 42.0405 72.2776 41.2116 72.2841 40.2208C72.2714 39.2031 71.919 38.4087 71.2249 37.8385C70.5465 37.2728 69.6637 36.9878 68.5782 36.9821C67.2879 37.0121 66.3471 37.3995 65.7514 38.1421C65.1526 38.8679 64.8557 39.6063 64.8624 40.3608Z" fill="#525252"/>
<path d="M39.9581 41.2285C39.9581 42.0891 39.9426 42.7181 39.9096 43.1131C39.8974 43.2399 39.8737 43.342 39.839 43.4217C39.8031 43.5094 39.7405 43.5642 39.6481 43.5872C39.5575 43.6092 39.4664 43.6204 39.3737 43.6204C39.3269 43.629 39.3036 43.6464 39.3036 43.6738C39.3036 43.7168 39.3521 43.7389 39.4492 43.7389C39.5996 43.7389 39.7752 43.7341 39.9757 43.723C40.1805 43.7159 40.3045 43.7101 40.3404 43.7128C40.5345 43.7256 41.7513 43.7495 43.0549 43.7633C43.2348 43.765 43.3629 43.7517 43.4276 43.7301C43.4913 43.7087 43.5349 43.6423 43.5589 43.5397C43.5861 43.4248 43.6154 43.2665 43.6406 43.0714C43.6652 42.8771 43.6778 42.7516 43.6794 42.6991C43.6824 42.6203 43.6666 42.5745 43.6218 42.5723C43.5818 42.5701 43.5539 42.6157 43.5418 42.6991C43.4931 43.033 43.3544 43.2471 43.13 43.3251C43.0103 43.3666 42.8613 43.39 42.6962 43.3997C42.5267 43.4099 42.3754 43.416 42.2486 43.417C41.8154 43.42 41.0618 43.3784 40.9289 43.2817C40.7963 43.1852 40.7254 42.9933 40.7191 42.7092C40.7098 42.2724 40.7098 41.7807 40.7191 41.2327V40.4732C40.7191 40.4344 40.7396 40.4139 40.782 40.4139C41.1717 40.4139 42.0758 40.4241 42.5555 40.4559C42.7302 40.4671 42.8563 40.5089 42.9219 40.5696C42.983 40.6263 43.0156 40.6955 43.0281 40.7587C43.0499 40.8663 43.0645 40.9603 43.0645 41.0396C43.0645 41.0933 43.0863 41.1189 43.1315 41.1189C43.1662 41.1189 43.1904 41.0984 43.1927 41.057C43.1944 41.0249 43.1927 40.9904 43.1927 40.9591C43.1927 40.8325 43.1985 40.6458 43.2303 40.4053C43.2673 40.127 43.3054 39.9635 43.3071 39.9195C43.3088 39.8757 43.2914 39.8516 43.2585 39.8516C43.2284 39.8516 43.1879 39.892 43.1253 39.9615C43.0546 40.04 42.9055 40.0778 42.6917 40.0838C42.5536 40.0877 41.8344 40.0907 41.4784 40.0924C41.1129 40.0941 40.8775 40.1012 40.7725 40.1012C40.727 40.1012 40.7098 40.0738 40.7192 40.016V37.6228C40.7192 37.5652 40.7364 37.5376 40.7725 37.5376C40.865 37.5376 41.0694 37.5359 41.383 37.5376C41.7 37.5397 42.3832 37.5526 42.4883 37.5622C42.7256 37.584 42.8918 37.6234 42.983 37.6761C43.0682 37.7256 43.1213 37.7886 43.1394 37.8579C43.1726 37.9845 43.1927 38.0871 43.1927 38.1646C43.1927 38.2415 43.217 38.2803 43.2631 38.2787C43.3017 38.2775 43.3252 38.2401 43.3305 38.1822C43.3484 37.984 43.3534 37.7903 43.3774 37.6127C43.408 37.3864 43.4505 37.2531 43.4528 37.209C43.455 37.1638 43.4401 37.138 43.4166 37.1327C43.3758 37.1381 43.3336 37.1514 43.293 37.1728C43.2133 37.1904 43.0792 37.2133 42.8968 37.2164C42.1318 37.2286 40.9676 37.2328 40.3452 37.2251C40.1864 37.2229 39.8408 37.2047 39.3129 37.199C39.2143 37.199 39.1655 37.2204 39.1655 37.264C39.1655 37.2997 39.1908 37.3173 39.2408 37.3173C39.3507 37.3173 39.4537 37.3257 39.5481 37.3431C39.7013 37.3649 39.8065 37.4165 39.8596 37.4988C39.9067 37.5723 39.9332 37.6861 39.9392 37.8377C39.952 37.9227 39.9581 38.5472 39.9581 39.7117L39.9581 41.2285Z" fill="#525252"/>
</g>
<defs>
<clipPath id="clip0_1847_5915">
<rect width="70" height="8" fill="white" transform="translate(5 36)"/>
</clipPath>
</defs>
</svg>
