<svg width="81" height="53" viewBox="0 0 81 53" fill="none" xmlns="http://www.w3.org/2000/svg">
<path d="M74.6467 50.0583C76.9654 49.2501 78.8968 47.5158 79.9761 45.3173C81.3853 42.4511 80.246 39.3616 79.1816 36.7464C78.2871 34.5478 78.0273 32.5349 78.7493 30.4041C79.4464 28.3411 81.4078 25.879 80.7207 23.3742C79.9637 20.621 76.1333 18.5579 73.4524 19.0021C71.1387 19.3861 68.4302 19.9458 66.3139 17.9907C62.7709 14.7179 59.7077 12.4014 55.1603 14.6125C52.9565 15.6842 50.7103 16.6429 48.2467 16.7433C45.2284 16.8663 43.1196 15.3404 40.4811 14.1833C37.4304 12.8431 33.2553 13.5785 31.2239 15.0768C29.1301 16.6203 29.5574 16.3443 27.6709 17.7071C25.2848 19.4288 23.141 19.1552 20.4351 17.8527C18.3313 16.8412 16.3649 15.9452 13.9563 15.4985C9.32389 14.6376 3.48971 17.3306 2.71765 22.0917C2.30039 24.6592 3.06246 26.1575 3.65462 28.8305C4.24678 31.5009 2.56024 33.7622 1.08108 35.7901C-1.47246 39.2837 0.673817 45.7214 5.66597 44.8404C8.98658 44.2556 13.2442 42.3382 15.0156 46.5822C16.6122 50.4046 20.2951 53.2557 24.5302 52.6509C27.1487 52.2769 29.6448 51.0823 32.0335 50.3118C34.5595 49.4961 37.1455 50.3594 39.4242 51.657C41.3881 52.7764 43.7618 53.2582 45.9555 52.8642C48.5191 52.4024 50.453 50.0809 52.5043 48.8184C57.2766 45.887 62.2388 46.9888 67.2384 49.6291C69.5071 50.8238 72.2406 50.8965 74.6467 50.0583Z" fill="#007CC2"/>
<path d="M70.0998 46.5196C69.9049 46.5046 69.7425 46.4945 69.6126 46.4895C69.4877 46.4694 69.3302 46.4594 69.1403 46.4594C68.9854 46.4594 68.858 46.4669 68.7631 46.482C68.6856 46.4945 68.6331 46.5071 68.6032 46.5171C68.5457 46.5422 68.5157 46.5824 68.5157 46.6351C68.5157 46.6451 68.5182 46.6552 68.5182 46.6652C68.5357 46.7556 68.6806 46.7982 68.9604 46.7982C69.0004 46.7982 69.0504 46.7982 69.1104 46.7982C69.1703 46.7982 69.2053 46.7982 69.2178 46.7982C69.2428 46.8961 69.2553 47.0216 69.2553 47.1772C69.2553 47.2174 69.2503 47.3805 69.2378 47.6666C69.2353 47.6892 69.2303 47.7394 69.2228 47.8197C69.2128 47.89 69.2103 47.9427 69.2103 47.9853C69.2103 48.1133 69.2378 48.2112 69.2928 48.2815C69.4702 48.3216 69.5601 48.2137 69.5601 47.9602C69.5601 47.9 69.5551 47.8197 69.5426 47.7218C69.5326 47.6239 69.5251 47.5662 69.5251 47.5511C69.5226 47.4909 69.5301 47.245 69.5401 46.8158C69.815 46.8233 69.9824 46.8083 70.0448 46.7656C70.0648 46.7505 70.0873 46.7254 70.1123 46.6878C70.1398 46.6426 70.1548 46.6075 70.1548 46.5799C70.1548 46.5472 70.1348 46.5272 70.0998 46.5196Z" fill="#DB87B9"/>
<path d="M72.3031 46.5998C72.2831 46.522 72.2456 46.4818 72.1907 46.4818C72.1482 46.4818 72.1032 46.5069 72.0583 46.5571C71.8634 46.8783 71.7559 47.059 71.7309 47.1017C71.5685 47.4054 71.4461 47.6338 71.3662 47.7894C71.2462 47.5284 71.1588 47.3351 71.1013 47.2046C70.9239 46.8306 70.8065 46.6123 70.749 46.5521C70.704 46.5069 70.6616 46.4818 70.6191 46.4818C70.6066 46.4818 70.5941 46.4843 70.5791 46.4893C70.5166 46.5119 70.4742 46.5997 70.4492 46.7503C70.4392 46.8256 70.4317 46.931 70.4292 47.0716C70.4242 47.423 70.4217 47.6363 70.4217 47.7141C70.4267 48.0554 70.4717 48.2512 70.5591 48.3014C70.5791 48.3114 70.5991 48.319 70.6191 48.319C70.6516 48.319 70.684 48.3064 70.709 48.2788C70.734 48.2512 70.7515 48.2211 70.7565 48.1834C70.7665 48.1182 70.7665 47.9952 70.7615 47.8145C70.764 47.8421 70.7665 47.6714 70.7715 47.3025L70.814 47.3853C70.9089 47.5685 70.9814 47.7166 71.0363 47.8295L71.0738 47.9023C71.0838 47.9199 71.1088 47.9826 71.1538 48.0855C71.1863 48.1608 71.2162 48.2211 71.2437 48.2662C71.2612 48.2913 71.2837 48.3039 71.3112 48.3039C71.3687 48.3039 71.4436 48.2361 71.541 48.0981C71.5985 48.0077 71.6585 47.9174 71.7185 47.8245C71.7784 47.7317 71.8209 47.6614 71.8484 47.6087C71.8958 47.5233 71.9583 47.4255 72.0333 47.31C72.0308 47.4932 72.0283 47.6288 72.0258 47.7191C72.0158 48.1006 72.0683 48.2914 72.1807 48.2914C72.2007 48.2914 72.2257 48.2838 72.2531 48.2713C72.2906 48.2487 72.3156 48.1935 72.3306 48.1006C72.3381 48.0604 72.3431 47.9977 72.3431 47.9048C72.3431 47.8873 72.3431 47.7819 72.3431 47.5911V47.4255C72.3456 47.059 72.3406 46.8407 72.3331 46.7704C72.3206 46.6851 72.3106 46.6274 72.3031 46.5998Z" fill="#DB87B9"/>
<path d="M10.6512 28.9987C11.2708 28.9987 11.8555 28.9033 12.4052 28.7126C14.8812 27.8492 16.213 26.3634 16.4029 24.2552C16.5928 22.1143 15.6258 20.1592 13.6519 19.346C12.2427 18.7763 11.0659 18.5554 9.98903 18.6533C8.37744 18.7989 7.46546 19.4263 6.58846 20.3399C5.95383 20.995 5.58404 21.8483 5.4816 22.8999C5.41413 23.5575 5.36666 24.1799 5.33668 24.7672C5.2992 25.5201 5.22424 32.796 5.22424 33.2452C5.22424 34.1939 5.26672 35.4739 5.35167 36.2168C5.36916 36.528 5.39414 36.7338 5.42912 36.8367C5.63401 37.3186 6.0013 37.5621 6.53349 37.5621C7.06319 37.5621 7.51544 37.3462 7.89272 36.9171C8.06262 36.7113 8.17506 36.3574 8.22753 35.8579C8.22254 35.4789 8.22254 35.1 8.22254 34.721C8.22254 33.0495 8.35746 29.0037 8.40743 28.5745C9.1645 28.8556 9.91157 28.9987 10.6512 28.9987ZM8.51987 22.8371C8.68977 22.0114 9.23196 21.5973 10.1389 21.5973C11.2533 21.5973 12.1978 21.8332 12.9673 22.5711C13.3096 22.8798 13.482 23.4546 13.482 24.0243C13.482 24.7647 12.9773 25.8263 11.5007 26.2705C11.2658 26.3408 9.64672 26.8804 8.54485 25.5226C8.41492 25.362 8.33997 25.0407 8.33997 24.5413C8.33997 24.0393 8.39744 23.4721 8.51987 22.8371Z" fill="#DB87B9"/>
<path d="M15.7281 30.2235C14.4714 30.2235 13.2096 30.5974 12.2127 31.1998C10.731 32.1133 10.1738 33.6694 10.1738 35.4965C10.1738 37.015 10.731 38.2397 11.8429 39.1708C12.7623 39.9313 13.8592 40.3103 15.1335 40.3103C16.5377 40.3103 17.6021 39.8184 18.3267 38.8345C18.5041 38.576 18.594 38.3251 18.594 38.0841C18.594 37.4793 18.2267 37.0626 17.4322 37.153C17.2848 37.1706 16.8925 37.2986 16.2478 37.6449C15.8131 37.8683 15.0785 38.3225 13.6343 37.7478C12.9197 37.4642 12.4975 37.0677 12.4975 35.9633C12.4975 35.6697 12.5375 35.4112 12.6199 35.1878C13.6343 35.4363 14.6388 35.5618 15.6382 35.5618C17.9869 35.5618 19.1637 34.8565 19.1637 33.446C19.1637 33.2904 19.1462 33.1273 19.1162 32.9541C18.8089 31.3052 17.6471 30.2235 15.7281 30.2235ZM16.2179 33.7397C16.0555 33.7823 15.2259 33.687 13.7293 33.451L13.4395 33.4184C13.6493 33.0545 14.2515 32.5249 14.7212 32.3919C14.8961 32.3417 15.076 32.3267 15.2534 32.3267C15.6407 32.3267 15.9705 32.4346 16.2429 32.6479C16.5177 32.8612 16.6551 33.0746 16.6551 33.2904C16.6526 33.5263 16.5077 33.6744 16.2179 33.7397Z" fill="#DB87B9"/>
<path d="M27.2438 35.73C26.1369 34.9544 24.8827 34.5654 23.481 34.5654C22.0318 34.5654 21.1023 34.9795 20.695 35.8078C20.3702 36.4453 20.2053 37.7227 20.2053 39.6352C20.2053 39.6352 20.1928 41.4272 20.1678 41.7033C20.1504 43.6333 20.0104 46.6902 20.0104 46.9136C20.0104 47.3603 20.0829 47.7744 20.2303 48.1559C20.5226 48.8963 20.9449 49.2678 21.4971 49.2678C21.7894 49.2678 22.0393 49.1046 22.2517 48.7784C22.4141 48.5198 22.494 48.1082 22.494 47.541C22.494 47.5937 22.4415 46.9663 22.3566 45.6587C22.3016 44.7953 22.3541 43.563 22.3541 43.563C22.7139 43.6007 23.0612 43.6182 23.4835 43.6182C24.6078 43.6182 25.4873 43.5153 26.1219 43.307C27.0014 43.0159 27.721 42.4813 28.2832 41.7033C28.8454 40.9277 29.1252 40.0568 29.1252 39.0931C29.1252 37.7127 28.4981 36.5908 27.2438 35.73ZM25.9845 40.4835C25.5448 40.8223 25.0326 41.0331 24.4479 41.121C24.0906 41.1737 23.4385 41.1386 22.4965 41.0181C22.449 39.8134 22.4415 39.2713 22.5415 38.1368C22.584 37.5546 22.8913 37.2283 23.2411 37.2233C23.5684 37.1982 23.5259 37.2007 23.7658 37.2208C25.3349 37.3513 26.2044 37.6901 26.5467 38.6237C26.6117 38.8321 26.6442 39.0303 26.6442 39.2211C26.6417 39.7255 26.4243 40.1447 25.9845 40.4835Z" fill="#DB87B9"/>
<path d="M33.8822 34.008C33.8697 34.003 33.8547 33.998 33.8447 33.988C32.5854 34.0482 31.7684 34.4598 31.3936 35.2203C31.0663 35.8578 30.9039 37.1327 30.9039 39.0477C30.9039 39.0477 30.8914 40.8397 30.8664 41.1158C30.8489 43.0458 30.7065 46.1027 30.7065 46.3261C30.7065 46.7728 30.779 47.1869 30.9264 47.5684C31.2187 48.3088 31.641 48.6803 32.1932 48.6803C32.4855 48.6803 32.7354 48.5171 32.9477 48.1909C33.1101 47.9323 33.1901 47.5207 33.1901 46.9535C33.1901 47.0062 33.1376 46.3788 33.0527 45.0712C32.9952 44.2078 33.0477 42.9755 33.0477 42.9755C33.405 43.0132 33.7548 43.0307 34.177 43.0307C35.3014 43.0307 36.1809 42.9278 36.8155 42.7195C37.695 42.4259 38.4146 41.8938 38.9768 41.1158C39.539 40.3402 39.8188 39.4693 39.8188 38.5031C39.8188 37.1252 39.1917 36.0033 37.9374 35.1425C37.7825 35.0345 37.6276 34.9367 37.4677 34.8413C36.9879 34.8438 36.4457 34.6907 36.041 34.5928C35.2964 34.4146 34.5743 34.259 33.8822 34.008ZM37.2403 38.0388C37.3053 38.2471 37.3377 38.4453 37.3377 38.6361C37.3377 39.138 37.1179 39.5597 36.6781 39.8985C36.2384 40.2373 35.7262 40.4482 35.1415 40.536C34.7842 40.5887 34.1321 40.5536 33.1901 40.4331C33.1426 39.2284 33.1351 38.6863 33.2351 37.5519C33.2776 36.9696 33.5874 36.6433 33.9347 36.6383C34.262 36.6132 34.2195 36.6182 34.4594 36.6383C36.0285 36.7663 36.898 37.1026 37.2403 38.0388Z" fill="#DB87B9"/>
<path d="M43.4272 34.2242C43.3748 34.2242 43.3223 34.2016 43.2773 34.1689C42.6802 34.4726 42.2079 34.9169 41.8606 35.5042C41.4309 36.2295 41.2185 37.0502 41.2185 37.9637C41.2185 39.4144 41.6608 40.6191 42.5452 41.5778C43.4297 42.5366 44.5916 43.016 46.0333 43.016C47.2526 43.016 48.197 42.6822 48.8641 42.0145C49.1215 42.3634 49.4213 42.6094 49.7661 42.7474C50.041 42.8704 50.3233 42.9306 50.6156 42.9306C51.4727 42.9306 51.8774 42.5341 51.825 41.7385C51.8075 41.239 51.6401 40.8625 51.3227 40.6116C51.0054 40.3606 50.6831 40.1121 50.3583 39.8611C50.031 39.6127 49.8186 39.1584 49.7137 38.5008C49.6462 37.896 49.5687 37.3012 49.4813 36.7139C49.3089 35.9885 48.9666 35.4113 48.4519 34.9796C47.8472 34.4751 47.2151 34.1213 46.553 33.918C46.2381 33.9757 45.9183 34.0033 45.656 34.0334C44.8939 34.1213 44.1618 34.2242 43.4272 34.2242ZM47.4475 37.9035C47.7048 38.8045 47.7223 39.5399 47.37 40.0218C47.0302 40.4886 46.3481 41.0332 44.8764 40.5564C44.4891 40.4309 44.2093 40.2201 44.0794 40.1046C43.5047 39.6026 43.3573 39.0455 43.3573 38.2147C43.3573 37.6074 43.5272 37.0703 43.872 36.6034C44.2143 36.1366 44.6615 35.9007 45.2087 35.9007C45.6035 35.9007 46.0183 36.0262 46.4555 36.2772C46.8928 36.5307 47.2226 37.0728 47.4475 37.9035Z" fill="#DB87B9"/>
<path d="M62.741 19.2656C61.3318 18.6958 60.16 18.5729 59.0781 18.5729C57.6864 18.5729 56.5545 19.0296 55.6775 19.9432C55.0404 20.5983 54.6731 21.4516 54.5707 22.5032C54.5032 23.1608 54.4557 23.7832 54.4258 24.3705C54.3908 25.1234 54.3133 32.3993 54.3133 32.8485C54.3133 33.7972 54.3558 35.0772 54.4408 35.8176C54.4582 36.1288 54.4832 36.3346 54.5182 36.4375C54.7231 36.9194 55.0904 37.1629 55.6226 37.1629C56.1523 37.1629 56.6045 36.947 56.9818 36.5178C57.1517 36.312 57.2641 35.9582 57.3141 35.4587C57.3091 35.0797 57.3091 34.7008 57.3091 34.3218C57.3091 32.6503 57.444 28.607 57.494 28.1753C58.2511 28.4589 58.9982 28.602 59.7377 28.602C60.3574 28.602 60.942 28.5066 61.4917 28.3159C63.9678 27.4525 65.2996 25.9667 65.4895 23.8585C65.6794 21.7176 64.7149 20.0787 62.741 19.2656ZM60.5922 25.8713C60.3574 25.9416 58.7383 26.4812 57.6364 25.1234C57.5065 24.9628 57.4315 24.6415 57.4315 24.1421C57.4315 23.6426 57.4915 23.0754 57.6114 22.4379C57.7813 21.6122 58.3235 21.1981 59.2305 21.1981C60.3449 21.1981 61.2868 21.4315 62.0589 22.1719C62.4012 22.4831 62.5736 23.0578 62.5736 23.6251C62.5711 24.3654 62.0689 25.4296 60.5922 25.8713Z" fill="#DB87B9"/>
<path d="M62.1943 29.7365C61.3398 29.8168 60.4428 30.1355 60.4428 31.3804C60.4403 32.7733 61.6097 33.0042 62.0694 33.0393C62.3242 33.0594 62.5741 33.0117 62.824 32.9415C64.3106 32.5223 64.0782 31.0792 63.7584 30.5446C63.4086 29.9623 62.829 29.6762 62.1943 29.7365Z" fill="#DB87B9"/>
<path d="M62.2738 34.5452C61.8815 34.515 61.4468 34.5527 60.9346 35.1375C60.5548 35.5842 60.3224 36.3296 60.2374 37.3737C60.1975 37.8631 60.2 38.8796 60.2474 40.4256C60.2949 41.3166 60.4348 42.062 60.8196 42.6091C61.0795 42.978 61.4867 43.0533 61.7616 43.0709C62.2588 43.1086 62.751 42.8952 63.1008 42.1046C63.2857 41.6905 63.3007 41.2839 63.3407 40.777C63.3557 40.5812 63.3182 36.0937 63.2657 35.6796C63.1483 34.8012 62.806 34.5853 62.2738 34.5452Z" fill="#DB87B9"/>
<path d="M75.906 42.4886C75.4888 42.2176 75.0066 42.0394 74.5143 41.9691C76.061 40.0115 76.3233 36.5806 76.3233 35.1425C76.3233 33.7822 76.0759 32.4294 75.5787 31.5158C74.9441 30.3438 74.317 29.764 73.6973 29.3524C72.8903 28.8354 71.9558 28.5769 70.8914 28.5769C69.827 28.5769 68.8576 28.8354 67.9831 29.3524C67.0386 29.9046 66.3965 30.6449 66.0517 31.5761C65.8468 32.1107 65.7443 32.6804 65.7443 33.2827C65.7443 34.4899 66.1216 35.5164 66.8762 36.3597C67.7007 37.2733 68.7726 37.7125 70.0944 37.6799C71.3811 37.6447 72.5729 37.2005 73.6723 36.3447C73.6373 38.621 72.9078 39.886 71.8184 40.6891C70.9264 41.3467 70.2743 40.403 70.1193 40.2499C69.6571 39.8006 69.1249 39.5773 68.5228 39.5773C67.7332 39.5773 67.3984 39.9889 67.5183 40.8146C67.6557 41.6228 68.0505 42.2828 68.7027 42.7999C69.3548 43.3144 70.3517 43.7159 71.0388 43.7159C71.9833 43.7159 72.6854 43.5101 73.7323 42.7396L73.7348 42.7371C74.152 42.717 74.5818 42.7923 74.9666 42.9605C74.167 43.5754 73.7048 44.6069 74.4569 45.5656C75.6337 47.0615 77.6575 45.2494 76.9754 43.7059C76.933 43.608 76.8855 43.5177 76.8305 43.4273C77.5176 43.5026 78.1298 43.9368 78.1947 44.7374C78.2572 45.4803 79.2916 45.395 79.2092 44.6521C79.0268 43.0433 77.4577 42.067 75.906 42.4886ZM73.1351 33.4935C73.0427 34.3318 72.0882 35.3734 70.2643 35.1475C69.6646 35.0722 69.2224 34.8639 68.8376 34.4699C68.4528 34.0758 68.3004 33.471 68.3454 32.9615C68.4178 32.1583 68.7226 31.694 69.6621 31.2849C70.5616 30.8909 71.3911 31.0415 71.7909 31.1444C72.9327 31.4405 73.2451 32.4771 73.1351 33.4935ZM76.1684 44.3609C76.1259 44.632 75.7286 45.0737 75.4463 45.021C75.084 44.9507 74.8666 44.3007 75.3264 43.8841C75.4738 43.7486 75.6487 43.6456 75.8361 43.5678C76.046 43.7912 76.2159 44.0673 76.1684 44.3609Z" fill="#DB87B9"/>
<path d="M29.7223 26.5241C29.8673 26.2781 29.9497 26.0146 29.9497 25.7661C29.9497 25.6958 29.9422 25.6255 29.9297 25.5578C29.8748 25.2692 29.7024 25.0207 29.4325 24.84C28.9128 24.4911 28.4506 24.6919 28.1882 24.9931C27.9983 25.2114 27.8809 25.5201 27.8809 25.8339C27.8809 26.0999 27.9658 26.3684 28.1632 26.5893C28.1632 26.5893 28.1857 26.6119 28.1957 26.6219C27.8709 26.6445 27.5086 26.5291 27.3412 26.1225C27.2762 25.9669 27.1538 25.869 27.0064 25.8489C26.8615 25.8314 26.7141 25.8966 26.6291 26.012C26.5442 26.13 26.5342 26.2856 26.6016 26.4362C26.809 26.893 27.1863 27.2218 27.6635 27.3598C28.1507 27.5029 28.6829 27.4226 29.1252 27.144C29.4875 27.2343 29.8623 27.2318 30.2071 27.149C30.2445 26.908 30.282 26.6696 30.322 26.4287C30.1321 26.4964 29.9247 26.5291 29.7223 26.5241ZM29.1277 26.0622C29.0802 26.1451 29.0102 26.2204 28.9328 26.2931C28.7754 26.1978 28.6754 26.0873 28.6555 25.9644C28.653 25.9543 28.653 25.9443 28.653 25.9342C28.653 25.8464 28.6954 25.7059 28.7729 25.603C28.8154 25.5452 28.8628 25.5101 28.9028 25.5051C28.9778 25.495 29.0627 25.5452 29.1227 25.6331C29.1652 25.6983 29.1877 25.7711 29.1877 25.8464C29.1877 25.9192 29.1677 25.992 29.1277 26.0622Z" fill="#F4BFD9"/>
<path d="M47.2378 21.1429L48.0699 21.4867L48.1498 21.5243C48.1498 21.5243 48.1773 21.5369 48.1973 21.5444C48.1998 21.5469 48.2023 21.5469 48.2048 21.5495C48.2048 21.5495 49.8189 22.2974 49.8189 22.2999C49.8264 22.3024 49.8314 22.3024 49.8389 22.3049C49.8439 22.3124 49.8464 22.3174 49.8514 22.325L49.9138 22.4379L50.0487 22.8545C50.0912 23.0076 50.1362 23.1683 50.2037 23.3189C50.2736 23.477 50.426 23.5447 50.5934 23.487C50.7334 23.4393 50.8633 23.3063 50.8633 23.1356C50.8633 23.1105 50.8608 23.0829 50.8533 23.0553C50.8258 22.9323 50.7858 22.8018 50.7359 22.6563L51.3055 23.1306L51.4554 23.2586C51.6403 23.4167 51.8502 23.3615 51.9652 23.2436C52.0776 23.1281 52.1276 22.9223 51.9702 22.7416C51.6678 22.3953 51.288 22.1342 50.8633 21.8632C50.9432 21.8381 51.0232 21.8155 51.1006 21.7979L51.4704 21.7527L51.8052 21.7126C52.0026 21.6774 52.0901 21.4867 52.0876 21.3261C52.0826 21.1378 51.9701 20.9948 51.8027 20.9722C51.333 20.9069 50.6734 21.1454 50.2261 21.4114C50.1862 21.434 50.1487 21.4591 50.1137 21.4817C49.6015 21.2081 49.0668 20.9546 48.5246 20.7338H48.5221C48.5221 20.7338 48.5196 20.7338 48.5196 20.7313C47.6901 20.3924 46.9155 20.154 46.2084 20.0185C46.3534 20.3021 46.4858 20.5932 46.6107 20.8894C46.8206 20.9772 47.0305 21.06 47.2378 21.1429Z" fill="#F4BFD9"/>
<path d="M43.2546 33.5514C43.0122 33.6819 43.0997 34.0307 43.2771 34.1663C43.3221 34.2014 43.3745 34.224 43.427 34.2215C44.1616 34.2215 44.8937 34.1186 45.6557 34.0332C45.9181 34.0031 46.2379 33.9755 46.5527 33.9178C46.925 33.85 47.2898 33.7396 47.5372 33.5288C47.822 33.2878 47.7495 32.821 47.4022 32.6805C46.84 32.4571 46.008 32.7357 45.4458 32.8863C44.9836 33.0093 44.5314 33.1423 44.0841 33.2803C43.8268 33.3581 43.5719 33.4384 43.3171 33.5212C43.2921 33.5313 43.2721 33.5413 43.2546 33.5514Z" fill="#231F20"/>
<path d="M42.9146 31.0944C42.9146 31.0994 42.9146 31.1019 42.9171 31.1069C43.0171 31.9251 43.137 32.7458 43.2544 33.5364L43.2569 33.5515C43.2744 33.5414 43.2944 33.5314 43.3169 33.5264C43.5717 33.4435 43.8291 33.3632 44.084 33.2854C43.999 32.7408 43.934 32.1761 43.8716 31.629C43.8716 31.629 43.8091 31.0944 43.7966 30.9839C43.7966 30.9789 43.7966 30.9764 43.7966 30.9714C43.7691 30.738 43.7392 30.5021 43.7067 30.2662C43.4118 30.2687 43.1195 30.2687 42.8272 30.2687C42.8497 30.5297 42.8796 30.8032 42.9146 31.0944Z" fill="#F4BFD9"/>
<path d="M33.9478 33.3181C33.6255 33.3658 33.633 33.8602 33.8454 33.9907C33.8578 33.9982 33.8703 34.0058 33.8828 34.0108C34.5749 34.2618 35.297 34.4174 36.0416 34.5981C36.4464 34.696 36.9886 34.8491 37.4683 34.8466C37.6507 34.8466 37.8256 34.824 37.9805 34.7662C38.3303 34.6382 38.4202 34.1714 38.1404 33.9229C37.6857 33.5214 36.8112 33.4963 36.2315 33.4461C35.7568 33.4034 35.2845 33.3733 34.8173 33.3507C34.55 33.3382 34.2801 33.3256 34.0128 33.3156C33.9903 33.3131 33.9678 33.3156 33.9478 33.3181Z" fill="#231F20"/>
<path d="M34.4602 30.8885C34.4577 30.8936 34.4577 30.8986 34.4552 30.9036C34.2728 31.7017 34.1079 32.5099 33.9505 33.2904L33.9455 33.318C33.9655 33.3155 33.988 33.313 34.013 33.3155C34.2803 33.3255 34.5477 33.3381 34.8175 33.3506C34.9225 32.8085 35.0524 32.2564 35.1798 31.7193C35.1798 31.7193 35.3047 31.1922 35.3272 31.0868C35.3272 31.0818 35.3297 31.0793 35.3297 31.0768C35.3947 30.8007 35.4572 30.5146 35.5146 30.2285C35.2173 30.2209 34.92 30.2134 34.6251 30.2059C34.5702 30.4242 34.5152 30.6501 34.4602 30.8885Z" fill="#F4BFD9"/>
<path d="M30.2797 29.7468C36.2089 29.8622 42.173 30.1308 48.0996 29.797C47.6149 26.2682 47.1251 22.4885 45.3636 19.3512C45.1138 18.9045 44.8165 18.4929 44.4891 18.1089C44.1593 18.3724 43.812 18.6108 43.4447 18.8242C43 19.0802 42.5328 19.2985 42.058 19.4767C41.9656 19.5119 41.8731 19.5445 41.7807 19.5746C41.0811 19.813 40.3515 19.9762 39.6069 20.0615C38.61 20.1745 37.5956 20.1418 36.6186 19.941C35.879 19.7904 35.1595 19.542 34.4873 19.1931C34.14 19.0124 33.8202 18.8041 33.5229 18.5782C33.343 18.8267 33.1706 19.0827 33.0107 19.3512C31.2042 22.3981 30.752 26.2682 30.2797 29.7468Z" fill="#F1635D"/>
<path d="M44.2895 18.3295C44.6068 18.6985 44.8892 19.095 45.1315 19.5242C46.8256 22.5435 47.2978 26.1827 47.765 29.5784C42.0608 29.9022 36.319 29.6437 30.6148 29.5307C31.072 26.1852 31.5043 22.4606 33.2408 19.5242C33.3932 19.2657 33.5606 19.0197 33.733 18.7813C33.5531 18.6458 33.3807 18.5027 33.2183 18.3496C33.2108 18.3421 33.2033 18.3345 33.1958 18.327C33.1808 18.3496 33.1608 18.3672 33.1459 18.3898C33.0084 18.578 32.8785 18.7712 32.7561 18.9695C32.5512 19.3058 32.3688 19.6497 32.1939 19.9985C32.2064 19.996 32.2189 19.9935 32.2314 19.991C32.4063 19.9609 32.5487 20.0814 32.5912 20.2119C32.6361 20.3474 32.5812 20.4779 32.4513 20.5457C32.2414 20.6561 32.024 20.754 31.8041 20.8493C31.067 22.6112 30.6398 24.5187 30.3225 26.4261C30.2825 26.667 30.2425 26.9055 30.2075 27.1464C30.0776 27.9947 29.9627 28.8405 29.8477 29.6662C29.8028 29.9925 30.1351 30.1908 30.3649 30.123C30.4049 30.1431 30.4524 30.1556 30.5099 30.1556C31.8816 30.1381 33.2533 30.1657 34.6275 30.2008C34.9248 30.2084 35.2222 30.2159 35.517 30.2234C36.9037 30.2586 38.2929 30.2912 39.6796 30.2736C40.729 30.2611 41.7759 30.2636 42.8253 30.2636C43.1177 30.2636 43.4125 30.2611 43.7048 30.2611C45.1465 30.2535 46.5882 30.2259 48.0274 30.128C48.2573 30.1807 48.5696 29.985 48.5246 29.6662C48.1273 26.8101 47.7675 23.6252 46.6132 20.8845C46.4883 20.5883 46.3533 20.2972 46.2109 20.0136C46.0285 19.6547 45.8336 19.3058 45.6163 18.9695C45.3689 18.583 45.0941 18.2191 44.8017 17.8753C44.6643 18.0108 44.5194 18.1413 44.372 18.2643C44.3445 18.2869 44.317 18.3069 44.2895 18.3295Z" fill="#EE3424"/>
<path d="M49.301 6.60367C50.0955 5.78799 49.8032 4.51302 49.1861 3.67726C48.334 2.52025 47.1697 2.24417 45.813 2.35962C45.7955 2.38221 45.7755 2.4048 45.748 2.42488C44.6811 3.1728 45.5131 5.18815 46.0678 5.9963C46.8049 7.06798 48.2291 7.70546 49.301 6.60367ZM48.2416 3.88307C48.9712 3.79271 48.9787 5.18314 48.1541 4.9673C47.6194 4.82675 47.7069 3.94832 48.2416 3.88307ZM46.695 4.28463C47.4246 4.19427 47.432 5.5847 46.6075 5.36886C46.0728 5.22831 46.1603 4.34988 46.695 4.28463Z" fill="#F4BFD9"/>
<path d="M35.8991 15.2348C36.6087 14.9838 37.0635 14.3463 37.3058 13.6561C37.7531 12.3711 37.4008 11.0359 36.229 10.2981C35.3445 9.74088 33.9977 9.50746 33.0858 10.1349C32.6435 10.4386 32.3886 10.9079 32.2812 11.4325C32.0938 12.346 32.3462 13.4227 32.8359 14.0728C33.513 14.9738 34.7748 15.6313 35.8991 15.2348Z" fill="#F5A2C6"/>
<path d="M33.73 18.2492C34.1598 18.6733 34.7495 18.9469 35.3266 19.233C35.8114 19.4715 36.6109 19.7375 37.1381 19.863C38.0701 20.0838 38.8421 19.986 39.7991 19.8806C40.4637 19.8078 40.916 19.5744 41.5406 19.3635C41.6355 19.3309 42.2777 19.1527 42.3701 19.1176C42.7799 18.962 42.9348 18.8892 43.3321 18.6658C43.6469 18.4876 43.8968 18.1413 44.1841 17.9204C44.5139 17.6644 44.8212 17.3532 45.0886 17.042C45.3584 16.7308 45.5033 16.5902 45.6832 16.2213C45.7482 16.0883 45.8631 15.6641 45.9156 15.5236C46.1005 15.0241 46.2479 14.3515 46.2629 13.8596C46.2779 13.2899 46.048 12.7854 45.8881 12.2382L45.156 10.4186C46.3104 9.82634 47.9145 8.6116 48.8589 7.70306C47.6521 7.90384 46.3179 7.22871 45.6707 6.01648C45.171 5.08535 44.8362 3.20803 45.5458 2.23423C43.9018 2.41494 41.2882 2.84912 39.6717 3.35861L40.4812 3.12771C40.0539 3.26073 38.3499 3.77273 38.3499 3.77273C36.8108 4.48802 35.7439 5.12802 34.6645 5.90857C34.3047 6.19719 33.1504 7.25381 33.1504 7.25381C33.1504 7.25381 32.3233 8.67184 31.9161 9.65065C31.5763 10.6119 31.3364 11.7488 31.3789 12.7678C31.4014 13.3049 31.4988 14.4167 31.6137 14.9338C31.7512 15.5461 32.1285 16.0481 32.4033 16.5927C32.7131 17.1926 33.2478 17.7748 33.73 18.2492ZM40.4737 4.07642C40.6886 3.84552 40.9509 3.68238 41.2358 3.59955C41.5656 3.50418 41.9204 3.51924 42.2602 3.6623C42.8274 3.90324 43.2346 4.4579 43.2396 5.08535C43.2471 6.04158 42.3152 6.84973 41.3607 6.76942C40.0764 6.66401 39.6542 4.95987 40.4737 4.07642ZM36.6159 6.47327C36.7058 6.23735 36.8333 6.00896 36.9932 5.8157C37.1356 5.64504 37.298 5.48441 37.4804 5.36143C37.8277 5.12802 38.2375 5.0226 38.6622 5.20832C39.152 5.42166 39.4743 5.92614 39.6092 6.42809C39.8266 7.23123 39.5592 8.10965 38.7722 8.47607C37.9576 8.85756 37.0132 8.56643 36.6459 7.72314C36.471 7.32408 36.461 6.87734 36.6159 6.47327ZM33.2403 13.7692C32.848 13.2497 32.6457 12.3863 32.7981 11.656C32.8855 11.2368 33.0904 10.8604 33.4427 10.6169C34.1723 10.115 35.2492 10.3032 35.9563 10.7474C36.8932 11.3372 37.1756 12.4064 36.8183 13.4329C36.6259 13.9851 36.2611 14.4946 35.6914 14.6953C34.7894 15.0166 33.7825 14.492 33.2403 13.7692Z" fill="#F4BFD9"/>
<path d="M46.6083 5.36656C47.4328 5.5824 47.4253 4.19449 46.6957 4.28233C46.161 4.3501 46.0736 5.22852 46.6083 5.36656Z" fill="#C0739C"/>
<path d="M48.1544 4.96735C48.979 5.18319 48.9715 3.79528 48.2419 3.88312C47.7072 3.94837 47.6197 4.8268 48.1544 4.96735Z" fill="#C0739C"/>
<path d="M33.1954 18.3271C33.2029 18.3346 33.2104 18.3422 33.2179 18.3497C33.3778 18.5028 33.5527 18.6433 33.7326 18.7814C34.0199 18.9997 34.3272 19.198 34.6596 19.3712C35.3067 19.7075 35.9988 19.9459 36.7109 20.0915C37.6528 20.2822 38.6298 20.3148 39.5892 20.2069C40.3038 20.1266 41.0084 19.9685 41.6806 19.7401C41.7705 19.71 41.858 19.6774 41.9479 19.6447C42.4051 19.4741 42.8549 19.2633 43.2846 19.0173C43.6369 18.814 43.9743 18.5831 44.2891 18.3296C44.3166 18.307 44.3415 18.2895 44.369 18.2669C44.5189 18.1439 44.6614 18.0134 44.7988 17.8779C44.9787 17.7022 45.1486 17.5189 45.306 17.3257C45.5159 17.0672 45.7058 16.7911 45.8707 16.5C45.9256 16.4021 45.9781 16.3042 46.0256 16.2038C46.1055 16.0407 46.1755 15.8776 46.233 15.7144C46.4204 15.1949 46.5128 14.6653 46.5228 14.1383C46.5353 13.5284 46.4403 12.9185 46.2629 12.3237C46.0855 11.7314 45.8282 11.1541 45.5109 10.612C47.2674 9.94943 48.8615 8.38081 49.9259 6.98536C49.9658 6.93266 49.9808 6.87745 49.9783 6.82224C50.638 5.94632 50.4805 4.64876 49.9608 3.68249C49.1863 2.23936 47.3273 1.24296 45.7083 1.74241C45.6733 1.75245 45.6458 1.77002 45.6183 1.78758C43.7469 1.99841 41.8455 2.32469 40.0215 2.87684C40.019 2.87684 40.019 2.87684 40.019 2.87935C39.9316 2.90696 39.8441 2.93457 39.7566 2.95967C39.6067 3.00735 39.4593 3.05503 39.3119 3.10522C39.2319 3.13283 39.1545 3.16044 39.077 3.18805C38.9271 3.24076 38.7772 3.29598 38.6298 3.35119C38.6423 3.20061 38.6473 3.05001 38.6498 2.90444C38.6548 2.53048 38.6048 2.14648 38.4974 1.78758C38.3225 1.19779 37.9677 0.673247 37.463 0.321877C36.6309 -0.257885 35.4116 -0.0671382 35.1193 0.999522C34.9769 1.52407 35.0968 2.0963 35.2742 2.59574C35.5091 3.26084 35.8739 3.87323 36.2986 4.43542C36.1787 4.50319 36.0588 4.57094 35.9413 4.64373C35.9263 4.65125 35.9113 4.66131 35.8964 4.67134C35.7015 4.7893 35.5066 4.91227 35.3167 5.03776C35.3117 5.04278 35.3042 5.04529 35.2992 5.05031C35.2492 5.08294 35.2017 5.11808 35.1518 5.15071C35.0268 4.82945 34.8644 4.51573 34.707 4.23714C34.4847 3.84561 34.1998 3.47417 33.8575 3.17802C33.3528 2.7388 32.6857 2.46021 32.0161 2.62084C31.4564 2.75385 31.0441 3.24578 30.9642 3.80798C30.8467 4.61864 31.254 5.36906 31.7462 5.97894C32.0985 6.41564 32.5308 6.7921 32.9905 7.12089C32.3109 7.96418 31.7762 8.92293 31.4364 9.95947C31.1366 10.868 30.9916 11.8267 31.0041 12.7855C31.0116 13.3903 31.0741 13.9852 31.1915 14.5624C31.224 14.718 31.2615 14.8711 31.3015 15.0267C31.4414 15.5563 31.6313 16.0658 31.8761 16.5452C32.2134 17.2052 32.6507 17.8076 33.1954 18.3271ZM45.7482 2.42508C45.7757 2.405 45.7957 2.38492 45.8132 2.35982C47.1699 2.24437 48.3343 2.52045 49.1863 3.67746C49.8034 4.51322 50.0958 5.78819 49.3012 6.60387C48.2293 7.70567 46.8051 7.06819 46.0706 5.99651C45.5134 5.18835 44.6838 3.17551 45.7482 2.42508ZM36.1162 0.6858C36.0463 0.713408 36.1612 0.663212 36.1162 0.6858V0.6858ZM35.9863 0.763602C35.9838 0.763602 35.9838 0.763602 35.9863 0.763602C35.9463 0.79121 36.0413 0.715915 35.9863 0.763602ZM35.7339 1.95073C35.6815 1.69473 35.6765 1.40359 35.7264 1.19277C35.7739 0.991983 35.8239 0.89913 35.9813 0.763602C35.9838 0.761093 35.9863 0.761087 35.9888 0.758577C36.0063 0.746029 36.0263 0.733477 36.0463 0.723437C36.0663 0.710889 36.0862 0.700848 36.1062 0.690809C36.1112 0.688299 36.1112 0.688309 36.1162 0.6858C36.1587 0.66823 36.2012 0.658184 36.2462 0.645633C36.2686 0.640615 36.2911 0.635598 36.3136 0.633088C36.2986 0.633088 36.3186 0.630575 36.3261 0.630575C36.3311 0.630575 36.3311 0.630579 36.3136 0.633088C36.3186 0.633088 36.3286 0.633087 36.3436 0.630575C36.3911 0.625557 36.4385 0.628066 36.4885 0.630575C36.526 0.633087 36.536 0.633087 36.541 0.630575C36.541 0.630575 36.546 0.633092 36.576 0.638113C36.6259 0.648152 36.6759 0.660704 36.7259 0.673253C36.7509 0.680783 36.8558 0.718428 36.8608 0.718428C36.8558 0.715917 36.8533 0.713404 36.8483 0.713404C36.8583 0.718423 36.8608 0.718428 36.8608 0.718428C37.3105 0.916701 37.6229 1.29066 37.8003 1.73991C37.9327 2.06619 37.9902 2.41003 38.0027 2.75889C38.0126 3.06257 37.9602 3.35119 37.9127 3.64232C37.5254 3.80797 37.1431 3.98868 36.7709 4.18445C36.3211 3.49174 35.9013 2.75888 35.7339 1.95073ZM31.6788 4.70647C31.5788 4.42788 31.5388 4.11918 31.5888 3.87824C31.6338 3.66491 31.7587 3.47667 31.8761 3.38883C32.0785 3.23824 32.2234 3.21064 32.4683 3.21817C32.7032 3.2257 32.983 3.34617 33.2229 3.50178C33.9275 3.96609 34.3048 4.78178 34.5821 5.56483C34.1324 5.91369 33.7101 6.3002 33.3303 6.72435C32.6432 6.17973 31.9786 5.52717 31.6788 4.70647ZM31.8187 14.3767C31.7037 13.8622 31.6363 13.3301 31.6113 12.793C31.5688 11.774 31.7212 10.7526 32.061 9.7913C32.2384 9.29186 32.4758 8.81752 32.7606 8.37328C32.7606 8.37328 32.7606 8.37328 32.7631 8.37328C32.8431 8.24779 32.9255 8.12481 33.013 8.00434C33.018 7.99681 33.0255 7.98929 33.0305 7.98176C33.1104 7.87384 33.1904 7.76842 33.2753 7.66301C33.2878 7.64795 33.3003 7.63289 33.3128 7.61784C33.3628 7.5576 33.4153 7.49736 33.4677 7.43712C33.5027 7.45971 33.5377 7.4823 33.5727 7.50238C33.84 7.66552 34.0574 7.26647 33.8125 7.08827C33.8075 7.08325 33.8 7.07822 33.7925 7.07571C34.1124 6.7394 34.4547 6.42819 34.8145 6.13705C34.9819 6.33282 35.3966 6.20733 35.3617 5.92122C35.3542 5.86098 35.3442 5.80325 35.3317 5.7405C35.4916 5.62505 35.654 5.51212 35.8214 5.4042C35.8689 5.37408 35.9188 5.34397 35.9663 5.31385C36.1037 5.22601 36.2412 5.13816 36.3811 5.05533C36.4286 5.02773 36.476 5.00263 36.5235 4.97502C36.571 4.94741 36.6209 4.91982 36.6709 4.89221C36.6809 4.90225 36.6884 4.91478 36.6984 4.92482C36.8658 5.12309 37.1906 4.88216 37.0882 4.66381C37.348 4.52828 37.6154 4.40029 37.8827 4.27731C37.9952 4.46303 38.33 4.51071 38.4299 4.28232C38.4699 4.19196 38.4999 4.09661 38.5274 3.99872C38.6173 3.96108 38.7097 3.92343 38.8022 3.88578C38.8072 3.88327 38.8147 3.88075 38.8197 3.87824C39.2344 3.71762 39.6567 3.56954 40.084 3.43652C41.703 2.92954 43.3896 2.6083 45.0336 2.42759C44.324 3.40139 44.8887 5.10554 45.3884 6.03667C46.0381 7.2489 47.1399 7.95163 48.3468 7.75085C47.3998 8.6619 46.3779 9.47006 45.221 10.0624C45.196 10.0297 45.1711 9.99963 45.1411 9.97453C44.8987 9.76622 44.5964 10.0222 44.7163 10.3008C44.6039 10.351 44.4915 10.3987 44.379 10.4439C44.1067 10.5518 44.2116 10.9232 44.499 10.878C44.6689 10.8504 44.8413 10.8153 45.0087 10.7701C45.2935 11.2846 45.5284 11.8242 45.6908 12.3764C45.8507 12.9235 45.9356 13.4857 45.9206 14.0579C45.9056 14.5499 45.8157 15.0493 45.6333 15.5488C45.5833 15.6868 45.5234 15.8248 45.4584 15.9553C45.276 16.3243 45.0461 16.6681 44.7763 16.9793C44.5089 17.2906 44.2016 17.5742 43.8718 17.8302C43.5845 18.051 43.2771 18.2518 42.9623 18.43C42.5651 18.6534 42.1503 18.8441 41.7405 18.9997C41.6481 19.0349 41.5556 19.0675 41.4607 19.1001C40.836 19.3109 40.1814 19.459 39.5168 19.5293C38.5598 19.6347 37.5854 19.587 36.6534 19.3662C36.1262 19.2432 35.6165 19.0625 35.1318 18.824C34.5546 18.5404 34.0524 18.1765 33.6226 17.7549C33.1404 17.278 32.7481 16.7259 32.4433 16.121C32.161 15.5764 31.9561 14.9866 31.8187 14.3767Z" fill="#EB99C2"/>
<path d="M41.2931 6.15193C41.8903 6.23727 42.6648 5.74033 42.6074 5.08527C42.5574 4.50802 42.0877 4.22943 41.558 4.18928C41.2631 4.16669 41.0408 4.22693 40.8409 4.46787C40.6685 4.67619 40.591 4.95226 40.606 5.22081C40.631 5.63242 40.8434 6.08668 41.2931 6.15193ZM40.8584 5.03258C40.9308 4.63854 41.4955 4.55822 41.7379 4.84183C42.0002 5.15304 41.8828 5.59225 41.4655 5.66503C41.1407 5.72025 40.8009 5.35132 40.8584 5.03258Z" fill="white"/>
<path d="M38.4429 8.00195C39.0675 7.74847 39.3224 7.0658 39.0226 6.45091C38.8826 6.15977 38.6503 5.86112 38.3205 5.78582C38.0406 5.72057 37.6184 5.86613 37.4235 6.08197C37.316 6.20244 37.2236 6.33797 37.1536 6.48605C37.0137 6.7822 36.9862 7.12103 37.1036 7.42973C37.321 7.98439 37.8932 8.22282 38.4429 8.00195ZM37.3585 6.81483C37.431 6.42079 37.9956 6.34048 38.238 6.62408C38.5004 6.9353 38.3829 7.37452 37.9632 7.4473C37.6408 7.50252 37.301 7.13106 37.3585 6.81483Z" fill="white"/>
<path d="M37.9654 7.44471C38.3852 7.37192 38.5026 6.9327 38.2403 6.62149C37.9979 6.33788 37.4307 6.42071 37.3608 6.81224C37.3008 7.13098 37.6406 7.50243 37.9654 7.44471Z" fill="#231F20"/>
<path d="M41.4658 5.66518C41.8856 5.5924 42.003 5.15319 41.7382 4.84198C41.4958 4.55837 40.9286 4.63869 40.8587 5.03273C40.8012 5.35147 41.141 5.7204 41.4658 5.66518Z" fill="#231F20"/>
<path d="M38.7721 8.4736C39.5567 8.10717 39.8265 7.23126 39.6091 6.42562C39.4742 5.92366 39.1519 5.4192 38.6622 5.20586C38.2374 5.02014 37.8276 5.12304 37.4803 5.35896C37.2979 5.48194 37.1355 5.64005 36.9931 5.81323C36.8332 6.00648 36.7058 6.23487 36.6158 6.47079C36.4634 6.87738 36.4709 7.32412 36.6458 7.72066C37.0131 8.56395 37.9576 8.85509 38.7721 8.4736ZM37.1555 6.48334C37.2255 6.33526 37.3179 6.20225 37.4254 6.07927C37.6178 5.86342 38.04 5.72037 38.3224 5.78311C38.6522 5.85841 38.8845 6.15706 39.0245 6.4482C39.3243 7.06561 39.0694 7.74576 38.4448 7.99924C37.8926 8.22262 37.3204 7.98168 37.108 7.42702C36.9856 7.11832 37.0156 6.782 37.1555 6.48334Z" fill="#EB99C2"/>
<path d="M41.3608 6.76963C42.3127 6.84743 43.2472 6.04178 43.2397 5.08555C43.2347 4.4581 42.8275 3.90345 42.2603 3.66251C41.923 3.51945 41.5657 3.50439 41.2359 3.59976C40.951 3.68258 40.6887 3.84573 40.4738 4.07663C39.6543 4.96007 40.0765 6.66421 41.3608 6.76963ZM40.8411 4.46564C41.041 4.2247 41.2633 4.16447 41.5582 4.18706C42.0904 4.22721 42.5601 4.5083 42.6076 5.08304C42.665 5.73809 41.8905 6.23503 41.2933 6.1497C40.8436 6.08444 40.6287 5.63269 40.6062 5.21858C40.5912 4.95003 40.6687 4.67395 40.8411 4.46564Z" fill="#EB99C2"/>
<path d="M41.7307 15.3252C40.4589 15.6214 39.3921 15.2625 38.5775 14.2536C38.3626 13.985 37.9254 14.2912 38.0853 14.5924C39.562 17.3758 44.6665 15.9025 44.2618 12.7101C44.2293 12.4591 43.8145 12.4867 43.817 12.7402C43.8345 14.0327 42.9825 15.0366 41.7307 15.3252Z" fill="#EF5091"/>
<path d="M37.9101 3.64229C37.9601 3.35116 38.0101 3.06505 38.0001 2.75886C37.9876 2.41 37.9301 2.06616 37.7977 1.73989C37.6178 1.29314 37.3055 0.916672 36.8582 0.718399C36.8532 0.718399 36.7483 0.678244 36.7233 0.673225C36.6733 0.658166 36.6259 0.645613 36.5734 0.638084C36.5459 0.633064 36.5384 0.630547 36.5384 0.630547C36.5334 0.630547 36.5234 0.630547 36.4859 0.630547C36.4385 0.628038 36.391 0.628038 36.341 0.630547C36.3235 0.633057 36.316 0.63306 36.311 0.63306C36.2885 0.638079 36.2661 0.640586 36.2436 0.645606C36.2011 0.655645 36.1561 0.668202 36.1137 0.685771C36.1112 0.688281 36.1087 0.68827 36.1037 0.69078C36.0837 0.700819 36.0637 0.710859 36.0437 0.723408C36.0237 0.733448 36.0037 0.746 35.9862 0.758549C35.9812 0.761059 35.9812 0.763574 35.9787 0.763574C35.8188 0.899102 35.7713 0.991955 35.7239 1.19274C35.6739 1.40356 35.6789 1.69219 35.7314 1.9507C35.8988 2.75885 36.316 3.49171 36.7658 4.1819C37.1406 3.98865 37.5229 3.80794 37.9101 3.64229Z" fill="#F4BFD9"/>
<path d="M36.8583 0.720899C36.8583 0.720899 36.8558 0.718411 36.8459 0.715912C36.8508 0.715912 36.8558 0.718401 36.8583 0.720899Z" fill="#908E73"/>
<path d="M35.9862 0.76363C35.9462 0.791114 36.0412 0.716157 35.9862 0.76363C35.9837 0.76363 35.9837 0.76363 35.9862 0.76363Z" fill="#908E73"/>
<path d="M36.3163 0.633033C36.3338 0.630534 36.3338 0.628033 36.3288 0.630532C36.3213 0.630532 36.2988 0.633033 36.3163 0.633033Z" fill="#908E73"/>
<path d="M36.1164 0.686067C36.0464 0.713551 36.1614 0.66358 36.1164 0.686067V0.686067Z" fill="#908E73"/>
<path d="M34.5818 5.56461C34.3019 4.78155 33.9272 3.96837 33.2226 3.50155C32.9827 3.34343 32.7029 3.22547 32.468 3.21794C32.2231 3.21041 32.0782 3.23551 31.8758 3.38861C31.7584 3.47645 31.636 3.66469 31.5885 3.87802C31.5385 4.11896 31.5785 4.42766 31.6784 4.70625C31.9758 5.52695 32.6404 6.1795 33.3275 6.72413C33.7098 6.30248 34.132 5.91347 34.5818 5.56461Z" fill="#F4BFD9"/>
<path d="M32.5933 20.2144C32.5508 20.0839 32.4084 19.9634 32.2335 19.9935C32.221 19.996 32.2085 19.9986 32.196 20.0011C31.4714 20.1316 30.6718 20.375 29.8148 20.7264C29.8148 20.7264 29.8123 20.7264 29.8123 20.7289C29.2626 20.9548 28.723 21.2083 28.2182 21.4793C28.1833 21.4567 28.1458 21.4316 28.1033 21.4066C27.6561 21.1405 26.9939 20.9021 26.5267 20.9673C26.3593 20.9899 26.2469 21.133 26.2419 21.3212C26.2394 21.4818 26.3243 21.6726 26.5242 21.7077L26.859 21.7479L27.2263 21.7931C27.3038 21.8106 27.3837 21.8332 27.4662 21.8583C27.0389 22.1294 26.6616 22.3904 26.3593 22.7367C26.2019 22.9174 26.2519 23.1232 26.3643 23.2387C26.4792 23.3567 26.6891 23.4119 26.874 23.2538L27.0239 23.1258C27.0239 23.1258 27.3637 22.8421 27.5936 22.6514C27.5486 22.7769 27.5086 22.9124 27.4762 23.0505C27.4712 23.0781 27.4662 23.1032 27.4662 23.1308C27.4662 23.3014 27.5936 23.4344 27.736 23.4821C27.9034 23.5374 28.0558 23.4721 28.1258 23.314C28.1933 23.1634 28.2382 23.0028 28.2807 22.8497L28.4156 22.433L28.4781 22.3201C28.4831 22.3126 28.4881 22.3076 28.4906 22.3C28.4981 22.2975 28.5056 22.2975 28.5131 22.2925C28.5131 22.2925 30.1222 21.5446 30.1247 21.5446C30.1247 21.5446 30.1272 21.5446 30.1272 21.5421L30.2621 21.4818L31.0941 21.1405C31.3315 21.0477 31.5713 20.9498 31.8087 20.8494C32.0286 20.754 32.2459 20.6561 32.4558 20.5457C32.5833 20.4804 32.6382 20.3499 32.5933 20.2144Z" fill="#F4BFD9"/>
</svg>
