<svg width="51" height="18" viewBox="0 0 51 18" fill="none" xmlns="http://www.w3.org/2000/svg">
<path d="M21.509 7.52256C21.5652 7.66808 21.6777 7.78002 21.8239 7.78002C21.9702 7.78002 22.0827 7.69047 22.1052 7.52256L22.8139 5.45166L23.5227 7.52256C23.5789 7.66808 23.6689 7.78002 23.8039 7.78002H23.8377C23.9839 7.78002 24.0964 7.69047 24.1189 7.52256L25.0639 4.93674C25.0639 4.90316 25.0977 4.84719 25.0977 4.79122C25.0977 4.6457 24.9852 4.53375 24.8164 4.53375C24.6702 4.53375 24.5914 4.62331 24.5577 4.73525L23.8152 6.89569L23.1064 4.76883C23.0502 4.62331 22.9602 4.54495 22.8252 4.54495H22.7914C22.6452 4.54495 22.5664 4.6345 22.5102 4.76883L21.8015 6.89569L21.0927 4.76883C21.0364 4.62331 20.9464 4.54495 20.8114 4.54495C20.6652 4.54495 20.5302 4.65689 20.5302 4.80241C20.5302 4.85838 20.564 4.89196 20.564 4.94793L21.509 7.52256ZM26.5602 7.78002C27.0777 7.78002 27.4152 7.55614 27.6177 7.35465V7.50017C27.6177 7.64569 27.7302 7.75763 27.8989 7.75763C28.0452 7.75763 28.1577 7.64569 28.1577 7.47778V5.83226C28.1577 5.42927 28.0452 5.12704 27.8202 4.89196C27.5952 4.66808 27.2464 4.55614 26.7964 4.55614C26.4252 4.55614 26.1102 4.61211 25.7727 4.75764C25.6827 4.79122 25.6039 4.86958 25.6039 4.98152C25.6039 5.12704 25.7164 5.23898 25.8627 5.23898C25.8964 5.23898 25.9189 5.23898 25.9752 5.2054C26.2339 5.09346 26.4927 5.03749 26.7402 5.03749C27.1452 5.03749 27.5952 5.18301 27.5952 5.79868V5.83226C27.3702 5.77629 27.1114 5.72032 26.7064 5.72032C25.8739 5.72032 25.3339 6.1233 25.3339 6.73897C25.3677 7.433 25.9639 7.78002 26.5602 7.78002ZM25.9414 6.75017C25.9414 6.38077 26.2564 6.17927 26.7739 6.17927C27.0552 6.17927 27.3477 6.21286 27.6289 6.29121V6.54868C27.6289 6.97405 27.2014 7.30987 26.6614 7.30987C26.3127 7.32106 25.9414 7.15315 25.9414 6.75017ZM29.1927 7.74644C29.3389 7.74644 29.4739 7.6345 29.4739 7.46659V6.44793C29.4739 5.68674 29.8452 5.1942 30.4977 5.11584C30.6439 5.08226 30.7564 4.97032 30.7564 4.83599C30.7564 4.66808 30.6439 4.55614 30.4752 4.55614C30.1039 4.55614 29.7102 4.81361 29.4739 5.2054V4.83599C29.4739 4.66808 29.3614 4.55614 29.1927 4.55614C29.0464 4.55614 28.9114 4.66808 28.9114 4.83599V7.47778C28.9002 7.6345 29.0464 7.74644 29.1927 7.74644ZM33.7264 7.11957C33.7264 6.97405 33.6139 6.86211 33.4677 6.86211C33.3777 6.86211 33.3214 6.89569 33.2989 6.91808C33.0402 7.14196 32.7814 7.2539 32.4439 7.2539C31.9039 7.2539 31.4989 6.8845 31.4202 6.3136H33.5577C33.7039 6.3136 33.8164 6.20166 33.8164 6.05614C33.8164 5.26136 33.2989 4.46659 32.3652 4.46659C31.5102 4.46659 30.8577 5.17181 30.8577 6.11211C30.8577 7.05241 31.5439 7.75763 32.4327 7.75763C32.9164 7.75763 33.2877 7.61211 33.6364 7.27629C33.7039 7.26509 33.7264 7.20912 33.7264 7.11957ZM32.3877 4.99271C32.9839 4.99271 33.2427 5.47405 33.2989 5.93301H31.4427C31.4989 5.3845 31.9039 4.99271 32.3877 4.99271ZM36.6402 7.46659C36.6402 7.6345 36.7527 7.74644 36.9214 7.74644C37.0677 7.74644 37.2027 7.6345 37.2027 7.46659V5.78748C37.2027 5.02629 36.7189 4.51137 35.9764 4.51137C35.5489 4.51137 35.2339 4.67928 34.9752 4.99271V3.57107C34.9752 3.42555 34.8627 3.29122 34.6939 3.29122C34.5477 3.29122 34.4127 3.40316 34.4127 3.57107V7.46659C34.4127 7.6345 34.5252 7.74644 34.6939 7.74644C34.8627 7.74644 34.9752 7.6345 34.9752 7.46659V5.93301C34.9752 5.39569 35.3127 5.02629 35.8302 5.02629C36.3139 5.02629 36.6289 5.33972 36.6289 5.91062V7.46659H36.6402ZM41.0614 6.15689C41.0614 5.21659 40.3527 4.51137 39.4077 4.51137C38.4964 4.51137 37.7539 5.21659 37.7539 6.15689C37.7539 7.0636 38.4627 7.78002 39.3852 7.78002C40.3189 7.80241 41.0614 7.0636 41.0614 6.15689ZM40.4877 6.15689C40.4877 6.78375 40.0264 7.26509 39.4077 7.26509C38.8114 7.26509 38.3277 6.78375 38.3277 6.1345C38.3277 5.48525 38.7889 5.0039 39.3852 5.0039C40.0039 5.02629 40.4877 5.50763 40.4877 6.15689ZM43.8289 7.32106V7.48897C43.8289 7.65688 43.9414 7.76882 44.1102 7.76882C44.2564 7.76882 44.3914 7.65688 44.3914 7.48897V4.84719C44.3914 4.67928 44.2789 4.56734 44.1102 4.56734C43.9639 4.56734 43.8289 4.67928 43.8289 4.84719V6.38077C43.8289 6.91808 43.4914 7.28748 42.9739 7.28748C42.4902 7.28748 42.1752 6.97405 42.1752 6.43674V4.86958C42.1752 4.72405 42.0627 4.58972 41.8939 4.58972C41.7252 4.58972 41.6127 4.70167 41.6127 4.86958V6.54868C41.6127 7.30987 42.0964 7.82479 42.8389 7.82479C43.2327 7.78002 43.5702 7.63449 43.8289 7.32106ZM45.0327 7.37703C45.3702 7.63449 45.8314 7.78002 46.2364 7.78002C46.9226 7.78002 47.3727 7.37703 47.3727 6.81733C47.3727 6.19047 46.7764 6.02256 46.3489 5.91062C45.9777 5.79868 45.6064 5.68674 45.6064 5.45166C45.6064 5.22778 45.8314 5.04868 46.1464 5.04868C46.3714 5.04868 46.6639 5.13823 46.9114 5.27256C46.9451 5.27256 46.9677 5.30614 47.0239 5.30614C47.1701 5.30614 47.2827 5.1942 47.2827 5.04868C47.2827 4.95913 47.2264 4.88077 47.1364 4.8248C46.8214 4.65689 46.4502 4.56734 46.1352 4.56734C45.4827 4.56734 45.0552 4.93674 45.0552 5.50763C45.0552 6.1345 45.6514 6.30241 46.1127 6.41435C46.5176 6.52629 46.8214 6.63823 46.8214 6.89569C46.8214 7.15315 46.5964 7.32106 46.2477 7.32106C45.9327 7.32106 45.6177 7.20912 45.3027 7.00763C45.2689 6.97405 45.2127 6.95166 45.1564 6.95166C45.0102 6.95166 44.8977 7.0636 44.8977 7.20912C44.9089 7.28748 44.9652 7.35464 45.0327 7.37703ZM50.7926 6.10092C50.7926 5.30614 50.2751 4.51137 49.3076 4.51137C48.4526 4.51137 47.8001 5.21659 47.8001 6.15689C47.8001 7.09718 48.4864 7.80241 49.3751 7.80241C49.8589 7.80241 50.2301 7.65688 50.5789 7.32106C50.6351 7.26509 50.6689 7.20912 50.6689 7.11957C50.6689 6.97405 50.5564 6.86211 50.4101 6.86211C50.3201 6.86211 50.2639 6.89569 50.2414 6.91808C49.9826 7.14196 49.7239 7.2539 49.3864 7.2539C48.8464 7.2539 48.4414 6.8845 48.3626 6.3136H50.5001C50.6801 6.38077 50.7926 6.24644 50.7926 6.10092ZM48.3626 5.93301C48.4526 5.39569 48.8239 4.99271 49.3076 4.99271C49.9039 4.99271 50.1626 5.47405 50.2189 5.93301H48.3626ZM21.9364 11.4964C21.5314 11.3845 21.1939 11.2725 21.1939 11.0151C21.1939 10.7912 21.419 10.6121 21.7339 10.6121C21.9589 10.6121 22.2514 10.7017 22.4989 10.836C22.5327 10.836 22.5552 10.8696 22.6114 10.8696C22.7577 10.8696 22.8702 10.7576 22.8702 10.6121C22.8702 10.5226 22.8139 10.4442 22.7239 10.3882C22.4089 10.2203 22.0377 10.1308 21.7227 10.1308C21.0702 10.1308 20.6427 10.5002 20.6427 11.0375C20.6427 11.6643 21.2389 11.8322 21.7002 11.9442C22.1052 12.0561 22.4089 12.1681 22.4089 12.4255C22.4089 12.683 22.1839 12.8509 21.8352 12.8509C21.5202 12.8509 21.2052 12.739 20.8902 12.5375C20.8565 12.5039 20.8002 12.4815 20.7439 12.4815C20.5977 12.4815 20.4852 12.5934 20.4852 12.739C20.4852 12.8509 20.5415 12.9069 20.5977 12.9405C20.9352 13.1979 21.3965 13.3434 21.8015 13.3434C22.4877 13.3434 22.9377 12.9405 22.9377 12.3808C22.9714 11.8099 22.3414 11.6084 21.9364 11.4964ZM24.9627 10.7017C25.1089 10.7017 25.2214 10.5897 25.2214 10.4442C25.2214 10.2987 25.1089 10.1867 24.9627 10.1867H24.2202V9.53748C24.2202 9.39195 24.0739 9.25763 23.9389 9.25763C23.8039 9.25763 23.6577 9.36957 23.6577 9.53748V10.1867H23.4552C23.3089 10.1867 23.1964 10.2987 23.1964 10.4442C23.1964 10.5897 23.3089 10.7017 23.4552 10.7017H23.6577V12.4927C23.6577 13.086 23.9727 13.3994 24.5689 13.3994C24.7377 13.3994 24.8839 13.3658 25.0302 13.3099C25.1427 13.2763 25.1989 13.1979 25.1989 13.086C25.1989 12.9405 25.0864 12.8285 24.9402 12.8285C24.9064 12.8285 24.9064 12.8285 24.8839 12.8285C24.8277 12.8285 24.7714 12.8621 24.6589 12.8621C24.3439 12.8621 24.1977 12.7166 24.1977 12.4031V10.6681L24.9627 10.7017ZM26.9877 10.1643C26.6164 10.1643 26.3014 10.2203 25.9639 10.3658C25.8739 10.3994 25.8177 10.4778 25.8177 10.5897C25.8177 10.7352 25.9302 10.8472 26.0764 10.8472C26.1102 10.8472 26.1327 10.8472 26.1889 10.8136C26.4477 10.7017 26.7064 10.6457 26.9539 10.6457C27.3589 10.6457 27.8089 10.7912 27.8089 11.4069V11.4405C27.5839 11.3845 27.3252 11.3285 26.9202 11.3285C26.0877 11.3285 25.5477 11.7315 25.5477 12.3472C25.5477 12.9964 26.1439 13.3434 26.7514 13.3434C27.2689 13.3434 27.6064 13.1196 27.8089 12.9181V13.0636C27.8089 13.2091 27.9214 13.3211 28.0677 13.3211C28.2139 13.3211 28.3264 13.2091 28.3264 13.0412V11.3621C28.3264 10.9591 28.2139 10.6569 28.0114 10.4218C27.7864 10.2763 27.4489 10.1643 26.9877 10.1643ZM27.8202 12.1457C27.8202 12.5711 27.3927 12.9069 26.8527 12.9069C26.5152 12.9069 26.1439 12.739 26.1439 12.3696C26.1439 12.0002 26.4589 11.7987 26.9764 11.7987C27.2577 11.7987 27.5502 11.8322 27.8314 11.9106V12.1457H27.8202ZM30.4977 10.7017C30.6439 10.7017 30.7564 10.5897 30.7564 10.4442C30.7564 10.2987 30.6439 10.1867 30.4977 10.1867H29.7552V9.53748C29.7552 9.39195 29.6089 9.25763 29.4739 9.25763C29.3277 9.25763 29.1927 9.36957 29.1927 9.53748V10.1867H28.9902C28.8439 10.1867 28.7314 10.2987 28.7314 10.4442C28.7314 10.5897 28.8439 10.7017 28.9902 10.7017H29.1927V12.4927C29.1927 13.086 29.5077 13.3994 30.1039 13.3994C30.2727 13.3994 30.4189 13.3658 30.5652 13.3099C30.6777 13.2763 30.7339 13.1979 30.7339 13.086C30.7339 12.9405 30.6214 12.8285 30.4752 12.8285C30.4414 12.8285 30.4414 12.8285 30.4189 12.8285C30.3627 12.8285 30.3064 12.8621 30.1939 12.8621C29.8789 12.8621 29.7327 12.7166 29.7327 12.4031V10.6681L30.4977 10.7017ZM31.6452 10.1643C31.4989 10.1643 31.3639 10.2763 31.3639 10.4442V13.086C31.3639 13.2539 31.4764 13.3658 31.6452 13.3658C31.8139 13.3658 31.9264 13.2539 31.9264 13.086V10.4442C31.9264 10.2763 31.8139 10.1643 31.6452 10.1643ZM31.6452 9.00016C31.4764 9.00016 31.3302 9.1121 31.3302 9.28001V9.36957C31.3302 9.53748 31.4764 9.64942 31.6452 9.64942C31.8139 9.64942 31.9602 9.53748 31.9602 9.36957V9.28001C31.9602 9.1121 31.8477 9.00016 31.6452 9.00016ZM34.2102 10.1308C33.2989 10.1308 32.5564 10.836 32.5564 11.7763C32.5564 12.683 33.2652 13.3994 34.1877 13.3994C35.1102 13.3994 35.8414 12.6942 35.8414 11.7539C35.8639 10.8472 35.1552 10.1308 34.2102 10.1308ZM35.3014 11.7763C35.3014 12.4031 34.8402 12.8845 34.2214 12.8845C33.6252 12.8845 33.1414 12.4031 33.1414 11.7539C33.1414 11.1046 33.6027 10.6233 34.1989 10.6233C34.8064 10.6457 35.3014 11.127 35.3014 11.7763ZM38.0127 10.1308C37.5852 10.1308 37.2702 10.2987 37.0114 10.6121V10.4442C37.0114 10.2763 36.8989 10.1643 36.7302 10.1643C36.5839 10.1643 36.4489 10.2763 36.4489 10.4442V13.086C36.4489 13.2539 36.5614 13.3658 36.7302 13.3658C36.8989 13.3658 37.0114 13.2539 37.0114 13.086V11.5524C37.0114 11.0151 37.3489 10.6457 37.8664 10.6457C38.3502 10.6457 38.6652 10.9591 38.6652 11.4964V13.0636C38.6652 13.2315 38.7777 13.3434 38.9464 13.3434C39.0927 13.3434 39.2277 13.2315 39.2277 13.0636V11.3845C39.2389 10.6121 38.7552 10.1308 38.0127 10.1308ZM41.3202 10.1308C40.4652 10.1308 39.8127 10.836 39.8127 11.7539C39.8127 12.6942 40.4989 13.3994 41.3877 13.3994C41.8714 13.3994 42.2427 13.2539 42.5914 12.9181C42.6477 12.8621 42.6814 12.8061 42.6814 12.7166C42.6814 12.5711 42.5689 12.4591 42.4227 12.4591C42.3327 12.4591 42.2764 12.4927 42.2539 12.5151C41.9952 12.739 41.7364 12.8509 41.3989 12.8509C40.8589 12.8509 40.4539 12.4815 40.3752 11.9106H42.5127C42.6589 11.9106 42.7714 11.7987 42.7714 11.6531C42.7714 10.9255 42.2652 10.1308 41.3202 10.1308ZM40.3752 11.5524C40.4652 11.0151 40.8364 10.6121 41.3202 10.6121C41.9164 10.6121 42.1752 11.0934 42.2314 11.5524H40.3752ZM44.9089 10.1643C44.5377 10.1643 44.1439 10.4218 43.9077 10.8136V10.4442C43.9077 10.2763 43.7952 10.1643 43.6264 10.1643C43.4802 10.1643 43.3452 10.2763 43.3452 10.4442V13.086C43.3452 13.2539 43.4577 13.3658 43.6264 13.3658C43.7727 13.3658 43.9077 13.2539 43.9077 13.086V12.0673C43.9077 11.3061 44.2789 10.8136 44.9314 10.7352C45.0777 10.7017 45.1902 10.5897 45.1902 10.4554C45.2014 10.2763 45.0889 10.1643 44.9089 10.1643ZM48.1376 10.1643C48.0476 10.1643 47.9351 10.1979 47.8789 10.3658L46.9677 12.6382L45.9664 10.3658C45.9102 10.2203 45.8202 10.1643 45.6852 10.1643C45.5164 10.1643 45.4039 10.2763 45.4039 10.4442C45.4039 10.5002 45.4039 10.5337 45.4377 10.5897L46.6977 13.2539V13.2875C46.5289 13.6569 46.3827 13.8024 46.1239 13.8024C45.9777 13.8024 45.8989 13.7688 45.8089 13.7464C45.7752 13.7464 45.7189 13.7128 45.6627 13.7128C45.5164 13.7128 45.4039 13.8248 45.4039 13.9703C45.4039 14.0822 45.4602 14.1718 45.5727 14.2278C45.7189 14.2837 45.8539 14.3173 46.0902 14.3173C46.5739 14.3173 46.8889 14.0599 47.1702 13.433L48.3739 10.5897C48.3739 10.5561 48.4076 10.5002 48.4076 10.4778C48.4189 10.2763 48.2839 10.1643 48.1376 10.1643Z" fill="black"/>
<path d="M9.04398 0.167992C4.13899 0.167992 0.167746 4.11948 0.167746 9.00006C0.167746 13.8807 4.13899 17.8321 9.04398 17.8321C13.949 17.8321 17.9202 13.8807 17.9202 9.00006C17.9202 4.10828 13.949 0.167992 9.04398 0.167992Z" fill="white" stroke="black" stroke-width="0.333333" stroke-miterlimit="10"/>
<path d="M6.96271 13.478C6.96271 13.2205 6.76021 12.9966 6.50146 12.9966C6.24271 12.9966 6.01771 13.1981 6.01771 13.478C6.01771 13.7354 6.22021 13.9369 6.50146 13.9369C6.72646 13.9369 6.96271 13.7354 6.96271 13.478Z" fill="#777777"/>
<path d="M8.67264 13.478C8.67264 13.2205 8.47014 12.9966 8.18889 12.9966C7.93014 12.9966 7.72764 13.1981 7.72764 13.478C7.72764 13.7354 7.93014 13.9369 8.18889 13.9369C8.44764 13.9369 8.67264 13.7354 8.67264 13.478Z" fill="#999999"/>
<path d="M10.3829 13.478C10.3829 13.2205 10.1804 12.9966 9.89918 12.9966C9.61793 12.9966 9.41543 13.1981 9.41543 13.478C9.41543 13.7354 9.61793 13.9369 9.89918 13.9369C10.1804 13.9369 10.3829 13.7354 10.3829 13.478Z" fill="#BBBBBA"/>
<path d="M12.0704 13.478C12.0704 13.2205 11.8679 12.9966 11.5866 12.9966C11.3279 12.9966 11.1254 13.1981 11.1254 13.478C11.1254 13.7354 11.3279 13.9369 11.5866 13.9369C11.8679 13.9369 12.0704 13.7354 12.0704 13.478Z" fill="#E5E4E4"/>
<path d="M10.5287 7.09736L9.18996 10.8473C9.02121 11.3063 8.72871 11.4966 8.35746 11.4966H8.30121C7.92996 11.4966 7.64871 11.2951 7.50246 10.8697L6.66996 8.22795L5.81496 10.8697C5.66871 11.2951 5.35371 11.4966 5.01621 11.4966H4.95996C4.58872 11.4966 4.30747 11.2951 4.12747 10.8473L2.84497 7.15333C2.81122 7.06377 2.78872 6.92945 2.78872 6.78392C2.78872 6.4481 3.06997 6.10109 3.49747 6.10109C3.86872 6.10109 4.12747 6.32497 4.20622 6.67198L5.00496 9.33616L5.83746 6.69437C5.94996 6.35855 6.20871 6.10109 6.60246 6.10109H6.69246C7.06371 6.10109 7.34496 6.35855 7.45746 6.69437L8.28996 9.35855L9.12246 6.69437C9.21246 6.38094 9.43746 6.12348 9.83121 6.12348C10.225 6.12348 10.5175 6.43691 10.5175 6.80631C10.585 6.89587 10.5512 7.04139 10.5287 7.09736Z" fill="#333333"/>
<path d="M14.9722 9.81751C14.9722 10.9817 14.0834 11.519 12.9472 11.519C12.2947 11.519 11.6084 11.3175 10.9447 10.9257C10.7759 10.8362 10.6634 10.6459 10.6634 10.4108C10.6634 10.075 10.9222 9.81751 11.2597 9.81751C11.3722 9.81751 11.4847 9.85109 11.5409 9.90706C12.0584 10.2205 12.5422 10.3884 12.9697 10.3884C13.3972 10.3884 13.5997 10.2429 13.5997 9.98542V9.95183C13.5997 9.6384 13.0822 9.52646 12.5197 9.35855C11.7772 9.15706 10.9447 8.78766 10.9447 7.79139V7.75781C10.9447 6.68318 11.7997 6.07871 12.8572 6.07871C13.3972 6.07871 13.9709 6.22423 14.4884 6.48169C14.7134 6.59363 14.8259 6.79512 14.8259 7.05259C14.8259 7.38841 14.5672 7.64587 14.2297 7.64587C14.1172 7.64587 14.0609 7.61229 13.9484 7.5899C13.5209 7.38841 13.1159 7.25408 12.8122 7.25408C12.4409 7.25408 12.2722 7.3996 12.2722 7.62348V7.65706C12.2722 7.93691 12.7897 8.08244 13.3522 8.28393C14.1172 8.48542 14.9722 8.82124 14.9722 9.81751Z" fill="#333333"/>
</svg>
