<svg width="69" height="10" viewBox="0 0 69 10" fill="none" xmlns="http://www.w3.org/2000/svg">
<path fill-rule="evenodd" clip-rule="evenodd" d="M1.6344 7.46016C1.83113 7.46016 1.9976 7.32295 2.043 7.14001L2.78453 4.4873L3.5412 7.14001C3.5866 7.32295 3.7682 7.46016 3.9498 7.46016H4.14653C4.34327 7.46016 4.50973 7.3382 4.55513 7.14001L5.5842 3.58782C5.61447 3.46586 5.55393 3.32865 5.41773 3.28292C5.4026 3.28292 5.37233 3.26767 5.34206 3.26767H5.14533C4.96373 3.26767 4.78213 3.40488 4.73673 3.58782L4.02547 6.31675L3.3142 3.58782C3.2688 3.40488 3.10233 3.26767 2.9056 3.26767H2.66347C2.48187 3.26767 2.30027 3.40488 2.25487 3.58782L1.5436 6.31675L0.847466 3.60307C0.802066 3.42012 0.6356 3.28292 0.438867 3.28292H0.242133C0.105933 3.28292 0 3.38963 0 3.52684C0 3.55733 -2.31142e-07 3.57258 0.0151331 3.58782L1.0442 7.14001C1.0896 7.32295 1.2712 7.46016 1.4528 7.46016H1.6344ZM20.0668 5.38679C20.0365 4.13666 19.3707 3.20669 18.2962 3.20669C17.7968 3.20669 17.4487 3.38963 17.1763 3.64881V3.61831C17.1763 3.43537 17.025 3.29816 16.8585 3.29816H16.7375C16.5559 3.29816 16.4197 3.45062 16.4197 3.61831V8.55783C16.4197 8.74078 16.571 8.87799 16.7375 8.87799H16.8888C17.0704 8.87799 17.2066 8.72553 17.2066 8.55783V7.14001C17.479 7.38394 17.8271 7.55164 18.2962 7.55164C19.4009 7.55164 20.0517 6.62166 20.0668 5.38679ZM24.5311 7.46016C24.6825 7.46016 24.8035 7.3382 24.8035 7.18574V6.91133C24.8035 6.80461 24.7127 6.71314 24.6068 6.71314H24.3949C24.3041 6.71314 24.2285 6.65215 24.2285 6.54544V4.73123C24.2285 3.77077 23.5929 3.1762 22.5941 3.1762C21.9131 3.1762 21.2623 3.49635 21.0202 4.09092C20.9597 4.22813 21.0656 4.44157 21.2018 4.4873L21.3531 4.53304C21.565 4.59402 21.7012 4.53304 21.792 4.33485C21.9282 4.02994 22.2006 3.89273 22.5789 3.89273C23.154 3.89273 23.4415 4.22813 23.4264 4.71599C23.2599 4.95991 22.7605 4.95991 22.246 4.95991C21.3985 4.95991 20.8083 5.38678 20.8083 6.21004C20.8083 7.06378 21.4591 7.52115 22.3671 7.52115C22.8362 7.52115 23.3205 7.38394 23.5626 7.04854C23.7139 7.29246 23.9561 7.42967 24.1982 7.42967H24.5311V7.46016ZM9.8518 7.46016C10.0031 7.46016 10.1242 7.3382 10.1242 7.18574V6.91133C10.1242 6.80461 10.0334 6.71314 9.92746 6.71314H9.7156C9.6248 6.71314 9.54913 6.65215 9.54913 6.54544V4.73123C9.54913 3.77077 8.91353 3.1762 7.91473 3.1762C7.23373 3.1762 6.59813 3.49635 6.34086 4.09092C6.28033 4.22813 6.38626 4.44157 6.52246 4.4873L6.6738 4.53304C6.88566 4.59402 7.02186 4.53304 7.11266 4.33485C7.24886 4.02994 7.52126 3.89273 7.8996 3.89273C8.45953 3.89273 8.7622 4.22813 8.74706 4.71599C8.5806 4.95991 8.06606 4.95991 7.55153 4.95991C6.73433 4.95991 6.129 5.38678 6.129 6.21004C6.129 7.06378 6.79486 7.52115 7.68773 7.52115C8.14173 7.52115 8.64113 7.38394 8.88326 7.04854C9.0346 7.29246 9.27673 7.42967 9.51886 7.42967C9.54913 7.46016 9.8518 7.46016 9.8518 7.46016ZM29.2376 7.46016C29.3889 7.46016 29.51 7.3382 29.51 7.18574V6.91133C29.51 6.80461 29.4192 6.71314 29.3133 6.71314H29.1014C29.0106 6.71314 28.9349 6.65215 28.9349 6.54544V2.18525C28.9349 2.0023 28.7836 1.86509 28.6171 1.86509H28.4658C28.2842 1.86509 28.148 2.01755 28.148 2.18525V3.60307C27.8756 3.35914 27.5275 3.19144 27.0584 3.19144C25.9839 3.19144 25.3181 4.12141 25.2878 5.37154C25.3181 6.60642 25.9688 7.53639 27.0584 7.53639C27.6032 7.53639 27.9967 7.29246 28.2691 7.01805C28.4053 7.29246 28.6625 7.44492 28.9349 7.44492L29.2376 7.46016ZM21.6407 6.24053C21.6407 5.90513 21.8828 5.70694 22.246 5.70694C22.7 5.70694 23.2145 5.69169 23.4415 5.50875V6.27102C23.3961 6.63691 23.0329 6.81985 22.5033 6.81985C22.0493 6.80461 21.6407 6.62166 21.6407 6.24053ZM6.96133 6.24053C6.96133 5.90513 7.2186 5.70694 7.55153 5.70694C8.00553 5.70694 8.5352 5.69169 8.7622 5.50875V6.27102C8.7168 6.63691 8.33846 6.81985 7.82393 6.81985C7.38506 6.80461 6.96133 6.62166 6.96133 6.24053ZM26.105 5.37154C26.1201 4.56353 26.4985 3.95371 27.1492 3.95371C27.6183 3.95371 27.9664 4.25862 28.148 4.54829V6.19479C27.9664 6.48445 27.6032 6.78936 27.1492 6.78936C26.4985 6.78936 26.1201 6.17955 26.105 5.37154ZM17.2066 6.19479V4.54829C17.3882 4.25862 17.7514 3.95371 18.2054 3.95371C18.8561 3.95371 19.2345 4.56353 19.2496 5.37154C19.2345 6.17955 18.8561 6.77412 18.2054 6.77412C17.7514 6.78936 17.4033 6.48445 17.2066 6.19479ZM12.939 7.14001C12.939 7.32295 12.7877 7.46016 12.6212 7.46016H12.1067C11.6073 7.46016 11.1684 7.06378 11.1684 6.53019V4.04519H10.5782C10.3966 4.04519 10.2604 3.89273 10.2604 3.72503V3.61831C10.2604 3.43537 10.4117 3.29816 10.5782 3.29816H11.1684V2.20049C11.1684 2.01754 11.3197 1.88034 11.4862 1.88034H11.6375C11.8191 1.88034 11.9553 2.03279 11.9553 2.20049V3.29816H13.6957V2.20049C13.6957 2.01754 13.847 1.88034 14.0135 1.88034H14.1648C14.3464 1.88034 14.4826 2.03279 14.4826 2.20049V3.29816H15.209C15.3906 3.29816 15.5268 3.45062 15.5268 3.61831V3.72503C15.5268 3.90798 15.3755 4.04519 15.209 4.04519H14.4826V6.48446C14.4826 6.62166 14.5734 6.72838 14.7247 6.72838H15.1939C15.3755 6.72838 15.5117 6.88084 15.5117 7.04854V7.14001C15.5117 7.32295 15.3603 7.46016 15.1939 7.46016H14.6188C14.1194 7.46016 13.6805 7.06378 13.6805 6.53019V4.04519H11.9402V6.48446C11.9402 6.62166 12.031 6.72838 12.1823 6.72838H12.5909C12.7725 6.72838 12.9087 6.88084 12.9087 7.04854L12.939 7.14001ZM58.3844 9.83845C60.3668 9.83845 60.6544 7.38393 62.0012 5.20384C61.9558 5.98136 62.0012 6.68264 62.1526 7.15525C62.7428 9.03044 64.7706 9.1829 65.6938 7.27722C66.9952 4.59402 67.3736 3.95371 68.675 2.01754C69.5376 0.736929 68.5388 -0.0863233 67.3736 0.508248C66.7834 0.813157 65.7997 1.57543 64.6042 3.19144C64.816 1.95656 64.7555 -0.116815 63 0.00514878C62.0769 0.0661305 60.8662 1.11806 59.2167 3.847C59.3529 2.32245 59.4134 1.24003 58.7476 0.675947C58.2936 0.294811 57.2342 0.142358 56.5986 0.965611C55.963 1.80411 55.8117 3.43537 55.8722 5.1581C56.0085 8.75602 57.2645 9.83845 58.3844 9.83845Z" fill="#E95220"/>
<path fill-rule="evenodd" clip-rule="evenodd" d="M33.1571 6.282C33.2782 6.6174 33.7322 7.10525 34.277 7.10525C35.0639 7.10525 35.5179 6.43446 35.5179 5.53498C35.5179 4.65074 35.0488 3.94945 34.277 3.94945C33.7927 3.94945 33.3539 4.31534 33.1571 4.65074V6.282ZM33.142 7.41016C33.142 7.51688 33.0663 7.59311 32.9453 7.59311H32.7183C32.6123 7.59311 32.5367 7.50164 32.5367 7.39492V1.73886C32.5367 1.63215 32.6123 1.54067 32.7334 1.54067H32.9604C33.0815 1.54067 33.1571 1.6169 33.1571 1.73886V3.88847C33.4598 3.58356 33.8533 3.38537 34.2921 3.38537C35.4423 3.38537 36.1384 4.31534 36.1384 5.51973C36.1233 6.73937 35.412 7.65409 34.2921 7.65409C33.823 7.65409 33.3841 7.39492 33.1571 7.07476L33.142 7.41016ZM37.3642 5.51973C37.3642 6.4497 37.8939 7.09001 38.6354 7.09001C39.3769 7.09001 39.9066 6.4497 39.9066 5.51973C39.9066 4.62025 39.3769 3.9647 38.6354 3.9647C37.8939 3.9647 37.3642 4.62025 37.3642 5.51973ZM36.7589 5.51973C36.7589 4.28485 37.6063 3.38537 38.6203 3.38537C39.6493 3.38537 40.4968 4.28485 40.4968 5.51973C40.4968 6.76986 39.6947 7.66934 38.6203 7.66934C37.5609 7.66934 36.7589 6.76986 36.7589 5.51973ZM41.7226 5.51973C41.7226 6.4497 42.2523 7.09001 42.9938 7.09001C43.7353 7.09001 44.265 6.4497 44.265 5.51973C44.265 4.62025 43.7353 3.9647 42.9938 3.9647C42.2523 3.9647 41.7226 4.62025 41.7226 5.51973ZM41.1324 5.51973C41.1324 4.28485 41.9799 3.38537 42.9938 3.38537C44.0229 3.38537 44.8703 4.28485 44.8703 5.51973C44.8703 6.76986 44.0683 7.66934 42.9938 7.66934C41.9345 7.66934 41.1324 6.76986 41.1324 5.51973ZM47.3219 5.26056L49.0623 7.37967C49.1077 7.42541 49.1077 7.51688 49.0623 7.56262C49.032 7.59311 49.0017 7.59311 48.9715 7.59311H48.6688C48.5477 7.59311 48.4418 7.53213 48.3813 7.4559L46.8982 5.65694L46.3383 6.17528V7.39492C46.3383 7.50164 46.2475 7.57786 46.1415 7.59311H45.8994C45.8086 7.59311 45.7329 7.50164 45.7329 7.39492V1.73886C45.7329 1.63215 45.8086 1.54067 45.8994 1.54067H46.1415C46.2475 1.54067 46.3383 1.63215 46.3383 1.73886V5.41301L48.3056 3.56832C48.3661 3.52258 48.4569 3.44635 48.5629 3.44635H48.9109C49.032 3.44635 49.0774 3.59881 48.9866 3.67503C49.0017 3.69028 47.3219 5.26056 47.3219 5.26056ZM51.0599 7.1205C51.7409 7.13575 52.1041 6.81559 52.1041 6.41921C52.1041 6.09906 51.8619 5.93136 51.5744 5.88562C51.2112 5.82464 50.8631 5.74841 50.5151 5.64169C50.0611 5.50449 49.6071 5.16909 49.6071 4.57451C49.6071 3.87323 50.2124 3.38537 51.075 3.38537C51.8922 3.38537 52.4521 3.87322 52.5581 4.48304C52.5732 4.58976 52.5127 4.66599 52.4067 4.66599H52.1495C52.0435 4.66599 51.9527 4.60501 51.9225 4.49829C51.8619 4.23912 51.5895 3.91896 51.0599 3.91896C50.5151 3.91896 50.1821 4.17813 50.1821 4.57451C50.1821 4.86418 50.4091 5.04712 50.6815 5.1081C50.9842 5.18433 51.3625 5.26056 51.6955 5.33679C52.21 5.4435 52.7094 5.76366 52.7094 6.43446C52.7094 7.1205 52.1041 7.68458 51.0599 7.68458C50.1216 7.68458 49.486 7.13575 49.4255 6.38872C49.4103 6.282 49.486 6.20578 49.5768 6.20578H49.8492C49.9703 6.20578 50.0459 6.282 50.0459 6.40397C50.0762 6.76986 50.4697 7.10526 51.0599 7.1205Z" fill="#E95220"/>
</svg>
