<svg width="160" height="91" viewBox="0 0 160 91" fill="none" xmlns="http://www.w3.org/2000/svg">
<circle cx="80" cy="52" r="39" fill="url(#paint0_linear_1864_7584)"/>
<rect y="90" width="160" height="1" fill="#54408C"/>
<path d="M105.526 52.2578H80.8488H76.1514H51.4739L45.6675 63.8707H50.9194V89.9997H106.081V63.8707H111.333L105.526 52.2578ZM103.732 55.161L106.635 60.9675H83.752L80.8488 55.161H103.732ZM53.2681 55.161H76.1514L73.2481 60.9675H50.3649L53.2681 55.161ZM103.177 87.0965H79.9517V76.9352H77.0484V87.0965H53.8226V63.8707H75.0423L77.0484 59.8585V72.5804H79.9517V59.8585L81.9578 63.8707H103.177V87.0965Z" fill="#54408C"/>
<path d="M65.4353 75.4844H56.7256V78.3876H65.4353V75.4844Z" fill="#54408C"/>
<path d="M65.4353 81.291H56.7256V84.1942H65.4353V81.291Z" fill="#54408C"/>
<path d="M71.2421 81.291H68.3389V84.1942H71.2421V81.291Z" fill="#54408C"/>
<path d="M71.7962 23.6091L78.4998 21.9006L85.2033 23.6077L85.7288 16.4091L89.2896 10.3269L82.9911 7.60075L78.4998 2.04688L74.007 7.60075L67.7085 10.3269L71.2693 16.4091L71.7962 23.6091ZM75.8158 9.97994L78.4998 6.663L81.1838 9.98139L85.1293 11.6899L82.8837 15.5266L82.5614 19.9409L78.4998 18.9059L74.4382 19.9395L74.1159 15.5251L71.8703 11.6885L75.8158 9.97994Z" fill="#F5BE00"/>
<path d="M49.4385 26.5719L51.5477 22.9705L47.8113 21.3519L45.1127 18.0146L42.4142 21.3505L38.6777 22.969L40.7869 26.5705L41.099 30.8658L45.1127 29.8453L49.1279 30.8672L49.4385 26.5719ZM46.5934 25.6864L46.4831 27.1976L45.1127 26.8492L43.7439 27.1976L43.6321 25.6864L42.8381 24.3292L44.2214 23.7296L45.1127 22.6308L46.0026 23.7311L47.386 24.3306L46.5934 25.6864Z" fill="#F5BE00"/>
<path d="M116.213 26.5719L118.322 22.9705L114.586 21.3519L111.887 18.0146L109.189 21.3505L105.452 22.969L107.561 26.5705L107.873 30.8658L111.887 29.8453L115.902 30.8672L116.213 26.5719ZM113.368 25.6864L113.257 27.1976L111.887 26.8492L110.518 27.1976L110.408 25.6864L109.614 24.3292L110.997 23.7296L111.887 22.6308L112.777 23.7311L114.16 24.3306L113.368 25.6864Z" fill="#F5BE00"/>
<path d="M51.5655 34.5942C54.3293 36.4377 56.7855 38.6877 58.8598 41.2832L64.6097 48.4673L63.4208 38.9563C62.7995 33.9903 60.1474 29.4192 56.1439 26.4173L54.7532 25.375L50.4985 33.8829L51.5655 34.5942ZM55.749 29.8765C58.2037 32.199 59.8687 35.291 60.4392 38.6355C58.6058 36.4827 56.5256 34.5637 54.2321 32.9103L55.749 29.8765Z" fill="#54408C"/>
<path d="M93.5795 38.9568L92.3906 48.4677L98.1405 41.2822C100.216 38.6868 102.671 36.4368 105.435 34.5932L106.5 33.8819L102.246 25.374L100.855 26.4192C96.8529 29.4211 94.1993 33.9908 93.5795 38.9568ZM102.768 32.9108C100.475 34.5642 98.393 36.4818 96.5611 38.636C97.133 35.2914 98.7966 32.1995 101.251 29.8769L102.768 32.9108Z" fill="#54408C"/>
<path d="M84.3066 49.3549H87.2099V43.2727C87.2099 36.3006 89.6674 29.5128 94.1326 24.1549L91.9015 22.2969C87.0037 28.1745 84.3066 35.6241 84.3066 43.2727V49.3549Z" fill="#54408C"/>
<path d="M97.371 17.4189H94.4678V20.3222H97.371V17.4189Z" fill="#EF5A56"/>
<path d="M101.726 11.6133H98.8228V14.5165H101.726V11.6133Z" fill="#EF5A56"/>
<path d="M69.7904 49.3549H72.6937V43.2727C72.6937 35.6227 69.9966 28.1745 65.1003 22.2969L62.8691 24.1549C67.3328 29.5128 69.7904 36.3006 69.7904 43.2727V49.3549Z" fill="#54408C"/>
<path d="M62.5321 17.4199H59.6289V20.3231H62.5321V17.4199Z" fill="#EF5A56"/>
<path d="M58.1776 11.6133H55.2744V14.5165H58.1776V11.6133Z" fill="#EF5A56"/>
<path d="M79.9516 24.6777H77.0483V27.581H79.9516V24.6777Z" fill="#EF5A56"/>
<path d="M79.9516 30.4834H77.0483V49.3544H79.9516V30.4834Z" fill="#54408C"/>
<path d="M120.597 39.1934H117.693V42.0966H120.597V39.1934Z" fill="#EF5A56"/>
<path d="M120.597 45H117.693V47.9032H120.597V45Z" fill="#EF5A56"/>
<path d="M123.5 42.0967H120.597V44.9999H123.5V42.0967Z" fill="#EF5A56"/>
<path d="M117.694 42.0967H114.791V44.9999H117.694V42.0967Z" fill="#EF5A56"/>
<path d="M116.242 0H113.339V2.90323H116.242V0Z" fill="#EF5A56"/>
<path d="M116.242 5.80664H113.339V8.70987H116.242V5.80664Z" fill="#EF5A56"/>
<path d="M119.145 2.90332H116.242V5.80655H119.145V2.90332Z" fill="#EF5A56"/>
<path d="M113.339 2.90332H110.436V5.80655H113.339V2.90332Z" fill="#EF5A56"/>
<path d="M39.3065 45H36.4033V47.9032H39.3065V45Z" fill="#EF5A56"/>
<path d="M39.3065 50.8066H36.4033V53.7099H39.3065V50.8066Z" fill="#EF5A56"/>
<path d="M42.2099 47.9033H39.3066V50.8065H42.2099V47.9033Z" fill="#EF5A56"/>
<path d="M36.4032 47.9033H33.5V50.8065H36.4032V47.9033Z" fill="#EF5A56"/>
<path d="M39.3065 0H36.4033V2.90323H39.3065V0Z" fill="#EF5A56"/>
<path d="M39.3065 5.80664H36.4033V8.70987H39.3065V5.80664Z" fill="#EF5A56"/>
<path d="M42.2099 2.90332H39.3066V5.80655H42.2099V2.90332Z" fill="#EF5A56"/>
<path d="M36.4032 2.90332H33.5V5.80655H36.4032V2.90332Z" fill="#EF5A56"/>
<defs>
<linearGradient id="paint0_linear_1864_7584" x1="80" y1="13" x2="80" y2="91" gradientUnits="userSpaceOnUse">
<stop stop-color="#EFD7DE"/>
<stop offset="1" stop-color="#ECDADF" stop-opacity="0"/>
</linearGradient>
</defs>
</svg>
