<svg width="20" height="20" viewBox="0 0 20 20" fill="none" xmlns="http://www.w3.org/2000/svg">
<path d="M8.71445 0.641602C8.36883 0.642852 8.0907 0.923476 8.09195 1.2691C8.09195 2.31785 7.72758 2.93285 7.25695 3.7191C6.99945 4.1491 6.58695 4.86098 6.4107 5.40723C6.2257 5.03473 6.11945 4.7591 5.95508 4.16223C5.82195 3.6666 5.18008 3.5341 4.86133 3.9366C2.51633 6.85723 1.82758 9.04723 1.87696 11.2622C1.97571 15.7241 5.52195 19.3741 10.002 19.3741C14.482 19.3741 18.1257 15.7291 18.1257 11.2491C18.1257 10.0985 17.8595 8.6041 17.3088 7.1991C16.7582 5.7941 15.9282 4.45973 14.6563 3.77973C14.2976 3.5891 13.8545 3.7866 13.757 4.1816C13.6345 4.68348 13.5895 4.83785 13.4432 5.26285C13.2638 4.4491 12.9763 3.6691 12.507 2.9166C11.7201 1.65285 10.4226 0.641602 8.71445 0.641602ZM7.91258 8.90473C8.43008 8.90473 8.85008 9.32473 8.85008 9.84223C8.85008 10.3597 8.43008 10.7797 7.91258 10.7797C7.39508 10.7797 6.97508 10.3597 6.97508 9.84223C6.97508 9.32473 7.39508 8.90473 7.91258 8.90473ZM12.3476 8.91098C12.512 8.89285 12.6832 8.93473 12.8113 9.06223C13.0701 9.2891 13.097 9.68223 12.8713 9.94223L8.06883 15.4097C7.84195 15.6697 7.44758 15.696 7.18758 15.4697C6.92695 15.241 6.90195 14.8435 7.13258 14.5847L11.9301 9.11723C12.0263 9.00723 12.1832 8.9291 12.3476 8.91098ZM12.0876 13.7485C12.6051 13.7485 13.0251 14.1685 13.0251 14.686C13.0251 15.2035 12.6051 15.6235 12.0876 15.6235C11.5701 15.6235 11.1501 15.2035 11.1501 14.686C11.1501 14.1685 11.5695 13.7485 12.0876 13.7485Z" fill="#54408C"/>
</svg>
