<svg width="24" height="26" viewBox="0 0 24 26" fill="none" xmlns="http://www.w3.org/2000/svg">
<path d="M9.13478 22.0717V18.8228C9.13478 17.9935 9.77217 17.3212 10.5584 17.3212H13.4326C13.8102 17.3212 14.1723 17.4794 14.4393 17.761C14.7063 18.0426 14.8563 18.4246 14.8563 18.8228V22.0717C14.8539 22.4165 14.9821 22.748 15.2124 22.9927C15.4427 23.2374 15.7561 23.375 16.0829 23.375H18.0438C18.9596 23.3775 19.8388 22.9955 20.4872 22.3134C21.1356 21.6312 21.5 20.7049 21.5 19.7389V10.4835C21.5 9.70324 21.1721 8.96308 20.6046 8.46246L13.934 2.84311C12.7737 1.85785 11.1111 1.88966 9.98539 2.91867L3.46701 8.46246C2.87274 8.94832 2.51755 9.69068 2.5 10.4835V19.7295C2.5 21.7428 4.04738 23.375 5.95617 23.375H7.87229C8.55123 23.375 9.103 22.7972 9.10792 22.0811L9.13478 22.0717Z" fill="#54408C"/>
</svg>
