<svg width="77" height="36" viewBox="0 0 77 36" fill="none" xmlns="http://www.w3.org/2000/svg">
<path fill-rule="evenodd" clip-rule="evenodd" d="M15.4722 29.2999C15.6899 29.0744 15.8962 28.8403 16.0883 28.5962C16.4055 28.1947 16.6844 27.772 16.9234 27.3293C17.1496 26.8115 17.1667 26.4128 17.06 26.1958L17.0543 26.1844C17.0315 26.1419 17.0045 26.1121 16.9775 26.0979C16.9533 26.0851 16.9191 26.0837 16.8793 26.0936C16.6858 26.1433 16.4411 26.3845 16.2007 26.8782C15.9005 27.5634 15.6799 28.2004 15.5519 28.8261C15.5191 28.9836 15.4921 29.141 15.4722 29.2999ZM21.0096 30.503L21.1206 30.9882L21.1348 31.0506C21.4763 30.8364 21.758 30.6264 21.9699 30.4136C22.2332 30.1497 22.3868 29.8873 22.411 29.612C22.4252 29.4475 22.5718 29.3255 22.7382 29.3411C22.9033 29.3553 23.0256 29.5014 23.01 29.6674C22.9702 30.093 22.7582 30.476 22.3968 30.8378C22.1136 31.1201 21.7352 31.394 21.2756 31.6692C21.6669 33.4412 21.8376 34.9024 20.4846 35.5607C20.4746 35.5664 20.4632 35.5707 20.4533 35.5735C19.9013 35.8076 19.261 35.7508 18.7559 35.5054V35.5068C18.4956 35.3806 18.2665 35.2004 18.0986 34.9819C17.9236 34.7549 17.8155 34.4853 17.8041 34.1888C17.7885 33.7646 17.9734 33.2965 18.4515 32.834L18.4728 32.8155C19.197 32.2367 19.8031 31.8664 20.2598 31.5855C20.3821 31.5103 20.4945 31.4422 20.5927 31.3798L20.5628 31.2521C20.5116 31.3003 20.4576 31.3457 20.3992 31.3883C20.3893 31.3954 20.3793 31.4011 20.3693 31.4081C19.7704 31.7387 19.2767 31.7969 18.9053 31.6805L18.8897 31.6763C18.6549 31.5997 18.4714 31.455 18.3433 31.2649C18.221 31.0847 18.1513 30.8648 18.137 30.6264L18.1356 30.6023L18.0929 30.6151C17.888 30.6775 17.6704 30.7144 17.4655 30.7116C17.2535 31.2507 16.9547 31.5912 16.6389 31.7713V31.7699C16.4169 31.8976 16.1864 31.9473 15.9687 31.9331C15.7468 31.9189 15.5362 31.838 15.3598 31.7032C15.0966 31.5032 14.9059 31.1868 14.8604 30.7981V30.7938C14.7836 30.0703 14.822 29.3907 14.9614 28.7069C15.098 28.0316 15.3328 27.3563 15.6472 26.6356L15.6557 26.6171C15.9844 25.9432 16.3813 25.5971 16.7299 25.5077H16.7313C16.9163 25.4609 17.0941 25.4807 17.2492 25.5588C17.3915 25.6311 17.5096 25.7503 17.5935 25.9106L17.6035 25.9305C17.7785 26.288 17.7813 26.8753 17.4726 27.5748L17.4626 27.596C17.2023 28.0813 16.9021 28.5381 16.5635 28.9665C16.2263 29.3921 15.8478 29.7965 15.4252 30.1781C15.4281 30.3583 15.4395 30.5413 15.4594 30.7272C15.485 30.9471 15.586 31.1216 15.7226 31.2251C15.8051 31.2876 15.9033 31.3259 16.0057 31.333C16.1124 31.34 16.2277 31.3145 16.3401 31.2492V31.2478C16.535 31.1358 16.7257 30.9158 16.8779 30.5583C16.7712 30.4931 16.6787 30.4037 16.6076 30.2874C16.5706 30.2278 16.5407 30.1611 16.5179 30.0873C16.4752 29.9483 16.4553 29.8078 16.4752 29.6716C16.4994 29.5113 16.572 29.3652 16.7185 29.2432C16.8224 29.1566 16.9433 29.107 17.0643 29.0999C17.1937 29.0928 17.3175 29.1325 17.4214 29.2247C17.5053 29.2985 17.5736 29.4049 17.612 29.5425C17.6504 29.6816 17.6618 29.8674 17.6291 30.1001C17.7244 30.0887 17.8226 30.0675 17.9179 30.0391C18.0389 30.0022 18.1541 29.954 18.2523 29.9C18.3547 29.6234 18.5254 29.3496 18.7673 29.1041C18.884 28.9864 19.0746 28.985 19.1927 29.1013C19.3108 29.2176 19.3122 29.4077 19.1956 29.5255C18.8641 29.8603 18.7161 30.2604 18.736 30.5881C18.7431 30.7186 18.7787 30.835 18.8399 30.9244C18.8939 31.0052 18.9736 31.0677 19.0761 31.1003L19.0874 31.1045C19.3094 31.1712 19.6309 31.1216 20.0563 30.8903C20.2555 30.7428 20.3765 30.5271 20.4433 30.2817L20.4504 30.259C20.5372 29.9213 20.5287 29.5269 20.4775 29.1538C20.4561 28.9892 20.5714 28.8388 20.735 28.8161C20.9 28.7949 21.0508 28.9098 21.0736 29.0729C21.1334 29.5127 21.1419 29.9866 21.0309 30.4108L21.0252 30.4392L21.0096 30.503ZM20.2214 35.0202C21.1319 34.5761 21.0338 33.4284 20.7321 32.0026L20.5742 32.0991C20.1332 32.3686 19.5513 32.7247 18.8598 33.2766C18.5254 33.6029 18.396 33.9079 18.4045 34.169C18.4102 34.3335 18.4742 34.4868 18.5752 34.6187C18.6834 34.7606 18.8385 34.8797 19.0177 34.9663V34.9677C19.3777 35.1436 19.8273 35.1848 20.2128 35.0245L20.2214 35.0202Z" fill="#000200"/>
<path fill-rule="evenodd" clip-rule="evenodd" d="M31.9107 25.3062C31.9221 25.7204 31.5948 26.0652 31.1794 26.0765C30.7639 26.0879 30.4182 25.7616 30.4068 25.3473L30.4054 25.3232C30.4011 25.2083 30.3456 25.1359 30.2745 25.0933C30.1408 25.0125 29.9643 24.9841 29.8206 24.9841L29.7808 24.9855C29.7438 24.9869 29.7082 24.9841 29.6713 24.9798V24.9827C29.2587 24.933 28.7393 25.0366 28.2471 25.2083C27.6395 25.4211 27.1074 25.7204 26.8627 25.9644C26.8471 25.9815 26.83 25.9956 26.8115 26.0113C26.7702 26.0453 26.7389 26.085 26.719 26.1247C26.7034 26.1574 26.6963 26.1929 26.6991 26.2255C26.7034 26.2609 26.7247 26.3049 26.766 26.3546C26.8357 26.4383 26.9495 26.5234 27.1145 26.6029L30.2389 27.7648C30.283 27.7818 30.3257 27.8017 30.3656 27.8258C30.8208 28.0939 31.1467 28.4146 31.3402 28.7678C31.4938 29.0473 31.5664 29.3438 31.5578 29.6474C31.5493 29.9439 31.4625 30.2348 31.3003 30.5129C31.0627 30.9172 30.6572 31.2931 30.091 31.6053C29.4593 31.9755 28.8574 32.1869 28.2357 32.238C27.6154 32.2877 26.9936 32.1727 26.3206 31.8933C25.8654 31.7259 25.4841 31.4577 25.2308 31.1456C24.9135 30.754 24.7755 30.2901 24.8894 29.8219C24.9875 29.419 25.393 29.1722 25.7971 29.2686C26.2011 29.3665 26.4487 29.7709 26.3519 30.1738C26.3477 30.1894 26.3733 30.1681 26.3975 30.1993C26.49 30.3128 26.6479 30.4164 26.8471 30.4887L26.8855 30.5029C27.3337 30.6916 27.7335 30.7696 28.119 30.7384C28.5046 30.7072 28.8987 30.5625 29.3341 30.3071L29.354 30.2958C29.6841 30.1142 29.9017 29.9298 30.0042 29.7538C30.0369 29.6971 30.0554 29.6474 30.0554 29.6063C30.0568 29.5737 30.0454 29.5339 30.0213 29.4914C29.9601 29.3793 29.8363 29.2615 29.6499 29.1466L26.5881 28.0074C26.5554 27.9975 26.5227 27.9847 26.49 27.9691C26.1058 27.7875 25.8184 27.5633 25.6135 27.3193C25.3717 27.0299 25.2422 26.7135 25.2052 26.3971C25.1682 26.0765 25.228 25.7644 25.3603 25.4849C25.4713 25.2508 25.6349 25.0409 25.8341 24.872C26.2296 24.4946 26.9652 24.069 27.7534 23.7924C28.4278 23.5569 29.1676 23.4164 29.8121 23.4859C30.182 23.4845 30.653 23.5696 31.0471 23.8066C31.5152 24.0875 31.8794 24.5486 31.9093 25.265V25.2735L31.9107 25.3062Z" fill="#000200"/>
<path fill-rule="evenodd" clip-rule="evenodd" d="M54.3731 28.1517C54.0814 28.4837 53.5749 28.5177 53.2406 28.2269C53.0229 28.0368 52.9319 27.753 52.9788 27.4877C52.8166 27.3629 52.6615 27.309 52.5306 27.3189C52.4609 27.3246 52.3926 27.353 52.3329 27.4026C52.2503 27.4707 52.1792 27.5771 52.1266 27.7176C51.9245 28.2638 52.0312 29.1576 52.7142 30.3067L52.7298 30.3294C53.0215 30.7962 53.3146 31.0274 53.6489 30.9835C54.164 30.9154 54.8668 30.4429 55.8286 29.5108C56.5257 28.793 56.7235 28.1574 56.6083 27.7261C56.5755 27.6012 56.5115 27.4963 56.4276 27.4196L56.429 27.4182L56.4276 27.4168C56.3408 27.3388 56.2255 27.2835 56.0904 27.2579C55.6365 27.1785 55.0105 27.4225 54.3731 28.1517ZM36.0238 26.4861C36.3723 26.7117 36.4705 27.177 36.2443 27.5232C36.0181 27.8708 35.5514 27.9687 35.2042 27.7431C35.1644 27.7176 35.1146 27.6906 35.0591 27.6623L35.0307 27.6481C34.8315 27.5587 34.6465 27.5544 34.4786 27.6282C34.2254 27.7403 33.965 28.0042 33.7047 28.4042C33.6008 28.5631 33.4984 28.7433 33.3973 28.9448C33.2209 29.3746 33.1868 29.7307 33.2536 29.9733C33.2721 30.0386 33.2949 30.0854 33.3205 30.111C33.3732 30.111 33.4457 30.084 33.5368 30.0244L33.9437 29.3363C34.3563 28.4652 34.7205 28.1248 35.3366 28.2978C35.779 28.4227 36.0067 28.8242 36.3211 29.508L37.4465 27.8864C37.6827 27.5459 38.1508 27.4594 38.4937 27.6949C38.6288 27.7871 38.7242 27.9162 38.774 28.0595L38.7754 28.0581L39.2335 29.3363L40.0758 27.7488C40.2693 27.3813 40.7246 27.2409 41.0931 27.4338C41.2567 27.519 41.3748 27.6566 41.4402 27.8155L42.3394 29.6853C42.4888 29.3193 42.5955 28.8455 42.641 28.2638C42.6353 28.1943 42.6325 28.1262 42.6296 28.0595C42.5798 28.0325 42.5343 28.0013 42.4902 27.963C42.1701 27.6821 42.0463 27.2934 42.0805 26.9472C42.0975 26.7727 42.1559 26.6053 42.2498 26.4606C42.355 26.2974 42.503 26.1669 42.688 26.0832C42.9825 25.9499 43.3467 25.9456 43.7309 26.1612L43.7294 26.1627C43.9087 26.2634 44.0439 26.4336 44.0937 26.6422L45.0597 26.6351C45.0953 26.6351 45.1309 26.6379 45.1664 26.6422V26.6408C46.629 26.8465 46.6276 27.6041 46.6262 28.6341C46.6262 28.7249 46.6262 28.8213 46.629 28.9277C46.629 28.9504 46.629 28.9731 46.6276 28.9958H46.629C46.575 29.8144 46.5835 30.2145 46.6561 30.2557C46.7087 30.2855 47.0274 30.0911 47.5737 29.7109C47.7132 29.613 47.7943 29.4839 47.8384 29.2541C47.8583 29.1519 47.8725 29.037 47.8825 28.905C47.8682 28.6568 47.8654 28.3915 47.8739 28.1091C47.8754 28.0581 47.8825 28.0084 47.8939 27.9602C47.8896 27.7828 47.8825 27.5913 47.8739 27.3813C47.8583 26.9671 48.1813 26.6181 48.5967 26.6025C49.0121 26.5869 49.3621 26.9089 49.3778 27.3232C49.4048 27.9843 49.4134 28.5035 49.3892 28.9263C49.4233 29.3917 49.5087 29.7393 49.6325 29.9691C49.6808 30.0599 49.7193 30.111 49.7463 30.1223L49.8046 30.101C50.0038 30.023 50.2471 29.8017 50.516 29.4328C50.5345 29.4059 50.5558 29.3817 50.5772 29.359C50.3581 28.4922 50.4036 27.7445 50.6156 27.1685C50.7693 26.7529 51.0097 26.4152 51.3056 26.1698C51.6243 25.9059 52.0056 25.7527 52.4168 25.7214C52.9532 25.6817 53.5266 25.8605 54.0473 26.2946C54.8554 25.7257 55.6806 25.5597 56.3764 25.686H56.3792C56.8131 25.7654 57.1987 25.957 57.5074 26.2379L57.5089 26.2364C57.819 26.5188 58.0467 26.8891 58.1605 27.3203C58.4052 28.2439 58.1221 29.4555 56.9711 30.6373L56.9554 30.6529C55.7304 31.8418 54.7302 32.4589 53.8552 32.5739C52.7967 32.7129 52.0113 32.2178 51.364 31.1793C51.354 31.1622 51.3441 31.1452 51.3341 31.1282C51.2914 31.0572 51.2516 30.9863 51.2132 30.9168C50.9272 31.1934 50.6369 31.3892 50.3538 31.4999C49.9412 31.6616 49.5386 31.663 49.163 31.5041C48.8884 31.3892 48.6508 31.1934 48.4558 30.9225L48.4331 30.9381C47.3817 31.6701 46.5593 31.9269 45.9119 31.5595C45.2859 31.2048 45.0298 30.3621 45.1237 28.9121C45.1223 28.8199 45.1223 28.7263 45.1223 28.6355C45.1223 28.3744 45.1223 28.1787 44.9886 28.1361L44.1392 28.1418L44.1406 28.1602C44.1491 28.2141 44.1506 28.2695 44.1477 28.3262C44.0894 29.1477 43.9258 29.8315 43.6882 30.3649C43.3965 31.0218 42.9825 31.4786 42.5002 31.7212V31.7198L42.4859 31.7269C42.1118 31.9056 41.6622 31.7467 41.4843 31.3736L40.7118 29.7662L39.7855 31.5112C39.703 31.6886 39.5522 31.8347 39.353 31.9056C38.9603 32.0447 38.5292 31.8418 38.3884 31.4502L37.8477 29.9436L36.8276 31.4119C36.7565 31.5141 36.6597 31.6006 36.5388 31.6588C36.166 31.8404 35.7164 31.6872 35.5329 31.3155L35.0719 30.3791L34.7547 30.9154C34.7077 30.9962 34.6451 31.07 34.5669 31.131C34.1244 31.4758 33.6762 31.6233 33.2664 31.6091C32.8965 31.5978 32.5693 31.4616 32.3061 31.2232C32.0713 31.0104 31.8963 30.721 31.801 30.372C31.6502 29.8286 31.69 29.1193 32.0101 28.3532L32.0301 28.3092C32.1595 28.0467 32.2975 27.8055 32.4398 27.5871C32.861 26.9415 33.3376 26.4918 33.8626 26.2591C34.4488 25.9995 35.0563 26.0023 35.6766 26.2946C35.6937 26.3017 35.7108 26.3102 35.7278 26.3187C35.8203 26.3599 35.9185 26.4166 36.0238 26.4861Z" fill="#000200"/>
<path fill-rule="evenodd" clip-rule="evenodd" d="M48.6579 24.5198C48.9197 24.5198 49.1573 24.6262 49.3295 24.7964C49.5016 24.9681 49.6069 25.205 49.6069 25.4661C49.6069 25.7271 49.5002 25.9641 49.3295 26.1357C49.1573 26.3074 48.9197 26.4124 48.6579 26.4124C48.3962 26.4124 48.1586 26.306 47.9864 26.1357C47.8142 25.9641 47.709 25.7271 47.709 25.4661C47.709 25.205 47.8157 24.9681 47.9864 24.7964C48.1571 24.6262 48.3947 24.5198 48.6579 24.5198Z" fill="#000200"/>
<path fill-rule="evenodd" clip-rule="evenodd" d="M60.7578 24.4266C61.1989 24.4266 61.5973 24.6053 61.8861 24.8933C62.1749 25.1813 62.3542 25.58 62.3542 26.0184C62.3542 26.4582 62.1749 26.8554 61.8861 27.1434C61.5973 27.4314 61.1989 27.6102 60.7578 27.6102C60.3182 27.6102 59.9184 27.4314 59.6296 27.1434C59.3408 26.8554 59.1615 26.4582 59.1615 26.0184C59.1615 25.58 59.3408 25.1813 59.6296 24.8933C59.9184 24.6053 60.3182 24.4266 60.7578 24.4266ZM61.6015 25.1771C61.3853 24.9614 61.0865 24.8281 60.7578 24.8281C60.4278 24.8281 60.1304 24.9614 59.9141 25.1771C59.6979 25.3927 59.5641 25.6906 59.5641 26.0184C59.5641 26.3461 59.6979 26.644 59.9141 26.8597C60.1304 27.0753 60.4292 27.2087 60.7578 27.2087C61.0865 27.2087 61.3853 27.0753 61.6015 26.8597C61.8178 26.644 61.9515 26.3461 61.9515 26.0184C61.9515 25.6892 61.8178 25.3913 61.6015 25.1771Z" fill="#000200"/>
<path fill-rule="evenodd" clip-rule="evenodd" d="M60.0649 26.7589V25.1259V25.0493H60.1417H60.8673C60.9427 25.0493 61.011 25.0536 61.0693 25.0607C61.1305 25.0692 61.1831 25.0819 61.2273 25.099C61.2742 25.116 61.3155 25.1415 61.3525 25.1727C61.388 25.2039 61.4208 25.2408 61.4478 25.2848C61.4748 25.3288 61.4947 25.3742 61.5075 25.421C61.5203 25.4693 61.5275 25.5189 61.5275 25.57C61.5275 25.6367 61.5161 25.6991 61.4947 25.7572C61.472 25.8154 61.4392 25.8679 61.3937 25.9147C61.3496 25.9615 61.2927 26.0013 61.2244 26.0296L61.1803 26.0467C61.2116 26.0765 61.2415 26.1091 61.2714 26.1431C61.3027 26.1814 61.334 26.224 61.3638 26.2694L61.6484 26.7135L61.7238 26.8312H61.5844H61.3112H61.2685L61.2457 26.7958L61.0295 26.4553C60.9996 26.4084 60.9712 26.3659 60.9441 26.3276C60.9185 26.2921 60.8958 26.2609 60.8773 26.2368C60.8588 26.2127 60.8417 26.1928 60.826 26.1772C60.8104 26.163 60.7976 26.1517 60.7876 26.1446C60.7748 26.136 60.762 26.129 60.7492 26.1233C60.7378 26.1176 60.725 26.1134 60.7136 26.1105C60.7051 26.1091 60.6923 26.1077 60.6766 26.1063H60.6752C60.6582 26.1048 60.6354 26.1048 60.6084 26.1048H60.4334V26.7532V26.8298H60.3565H60.1403H60.0634L60.0649 26.7589ZM60.4348 25.77H60.8246C60.9142 25.77 60.984 25.7615 61.0309 25.7445C61.0508 25.7374 61.0693 25.7275 61.0836 25.7161C61.0978 25.7048 61.1106 25.692 61.1191 25.6778C61.1291 25.6622 61.1376 25.6452 61.1433 25.6267C61.149 25.6097 61.1504 25.5913 61.1504 25.5728C61.1504 25.5444 61.1447 25.5203 61.1362 25.4976C61.1262 25.4763 61.112 25.4565 61.0921 25.4395C61.0736 25.4224 61.0466 25.4097 61.0138 25.3997C60.9768 25.3898 60.9313 25.3841 60.8773 25.3841H60.4362L60.4348 25.77Z" fill="#000200"/>
<path fill-rule="evenodd" clip-rule="evenodd" d="M66.511 16.4099L66.6732 10.1278C66.686 9.76885 66.7528 9.39857 66.8709 9.04105C66.2975 8.946 65.7555 8.65374 65.3358 8.1501C64.29 6.89311 64.7467 5.28145 65.9091 4.30253L65.7711 4.14363L65.6986 4.00176C63.8931 0.466314 67.891 -1.24608 69.7734 1.08204L69.8644 1.00685L69.9171 0.96996C71.115 0.157034 72.8053 -0.122454 73.7799 1.19695C74.6321 2.35179 74.2152 3.79179 73.2264 4.65012C73.2492 4.66856 73.2734 4.68558 73.2961 4.70403L73.3929 4.7778L73.474 4.8686C74.5453 6.06742 74.4372 7.86209 73.1354 8.84101C72.7597 9.12334 72.3599 9.28649 71.9559 9.34607C72.1181 10.203 72.0839 11.1422 71.9929 11.975V19.2232L71.9744 19.3367C71.5475 21.9032 69.1616 22.5089 67.2394 21.0789L67.063 20.9469L66.9748 20.8235C66.7671 21.0335 66.5167 21.2165 66.2193 21.3655C63.9486 22.5785 62.237 21.425 61.5569 19.0785L61.5427 19.0288L61.1799 17.3136C61.1785 17.3164 61.1756 17.3207 61.1742 17.3235L61.1457 17.3774L61.113 17.4285C60.0161 19.148 58.1451 19.5495 56.7451 18.6202C56.1305 21.408 52.4583 22.2578 51.1679 19.5538C50.3584 20.4887 49.2073 21.2676 47.6409 21.8251L47.5456 21.8592L47.446 21.879C45.0145 22.3671 42.6883 22.072 41.1872 20.0631C39.1797 19.4261 37.2305 18.6373 35.3283 17.7421L35.3013 18.2883L35.2714 18.4131C34.6753 20.9313 31.3531 21.2619 30.0413 19.4204C29.9645 19.5225 29.8848 19.6247 29.8009 19.7254L29.7667 19.7666L29.7297 19.8049C27.1403 22.4976 23.9903 22.15 21.4564 19.5963L21.3952 19.5339L21.3411 19.4644C21.2202 19.3083 21.105 19.1494 20.994 18.9905C20.1133 19.9794 18.6692 20.1908 17.3318 19.812L14.307 18.9238C14.2956 19.331 14.2629 19.7396 14.1946 20.1666L14.1804 20.2546L14.1562 20.3397C13.7849 21.6123 12.7263 22.3798 11.4416 22.5529L11.4188 22.5558C9.90783 22.7331 8.59178 21.679 8.19909 20.2574L8.16068 20.117L8.00418 17.5931C6.95702 15.6253 6.97979 13.4916 8.82938 12.3169L8.74401 9.4241C7.82491 10.1335 6.87877 10.8116 5.89849 11.4515L5.9867 11.5735L4.52552 12.5708C2.90642 13.8959 1.66008 13.8264 0.568826 12.3623C-0.286254 10.8584 -0.178124 10.1377 1.08386 9.32337C1.80947 8.8254 2.37146 8.32743 2.77268 7.82805L2.83671 7.81812C4.48996 5.99932 8.37836 3.50237 12.9056 0.785526C14.509 -0.167853 17.2365 0.904698 15.071 3.66836C14.5887 4.17201 14.0979 4.66998 13.5985 5.16085C13.957 5.64038 14.1405 6.25185 14.1519 6.88743L14.1534 6.93L14.058 9.24676C15.3997 8.43809 16.8054 7.74576 18.2481 7.11301L18.2708 7.10308L18.2936 7.09457C18.6393 6.95695 18.995 6.8619 19.3535 6.8165C21.0096 4.26706 24.8226 5.60066 24.7017 9.09354L24.7003 9.13469L24.696 9.17441C24.5793 10.4357 24.4314 13.6065 24.9009 14.7698C25.0617 15.0351 25.3946 15.5601 25.6663 15.8736C25.9039 15.5445 26.1785 15.0082 26.3194 14.7173C26.7818 12.9752 27.082 11.233 27.3936 9.46099C27.4547 8.12456 27.8375 6.71151 28.8547 5.77942C29.7312 4.97642 30.9875 4.68275 32.0958 5.1722C32.7986 5.4829 33.2909 6.02769 33.5612 6.68172C33.9525 6.65193 34.3509 6.71151 34.7236 6.87183C36.3783 5.89007 38.1653 5.5964 40.1842 5.71416L40.2752 5.71983L40.3649 5.73685C41.5742 5.96669 42.5787 6.40791 43.2204 7.06477C43.3712 6.91013 43.5291 6.75833 43.6927 6.60795C45.9364 3.80314 50.4708 6.07451 51.4581 9.07368C51.5151 9.21413 51.5705 9.356 51.6246 9.49646C51.7199 9.26095 51.8238 9.02686 51.9348 8.79419L52.1923 8.2565L52.3346 8.20968C52.3573 8.00113 52.3901 7.80677 52.5138 7.53863C52.8724 6.77678 53.5468 6.20503 54.3762 6.02202C56.1504 5.63045 57.4281 7.0137 57.8321 8.59415L58.4894 10.3236L59.4171 8.40263L59.4612 8.33311C60.1242 7.29177 61.1671 6.44196 62.4774 6.58383C64.8606 6.84345 65.5463 9.79155 65.5705 11.7664C65.7185 13.2561 65.8565 14.7528 66.1524 16.2212C66.2791 16.2765 66.3986 16.3389 66.511 16.4099ZM8.72836 8.98998L8.70275 8.11463C8.59462 7.01512 8.86921 5.8844 9.66312 5.07999C10.3887 4.34367 11.4814 3.99892 12.4788 4.34935C12.7405 4.44156 12.9696 4.56925 13.1702 4.72814C13.5572 4.3834 13.9115 4.04574 14.2031 3.72369C13.1403 3.65559 12.5442 2.81997 12.6637 1.87368C10.5168 2.93347 8.46657 4.22592 6.4804 5.71699C5.30804 6.53275 4.2552 7.506 3.25073 8.5445C3.28772 9.25811 3.45561 10.0129 3.78 10.6981L3.80988 10.7492C4.37044 10.403 5.00357 10.3363 5.43325 10.823L5.45459 10.8528L7.63283 9.41701C7.89747 9.20846 8.23466 9.09638 8.59462 9.12901L8.72836 8.98998ZM14.2245 1.2083C14.7125 1.2083 15.1066 1.60271 15.1066 2.08933C15.1066 2.57595 14.7111 2.96893 14.2245 2.96893C13.7365 2.96893 13.341 2.57453 13.341 2.08933C13.341 1.60271 13.7365 1.2083 14.2245 1.2083ZM3.58935 10.8286L3.62207 10.8783C3.44707 11.0102 3.28345 11.1677 3.13976 11.3408C2.42553 12.1112 1.88346 12.0345 1.44809 11.7324C1.04972 11.4756 0.850533 11.0329 0.938744 10.596C1.07533 10.1959 1.27451 10.0682 1.6046 10.0086C2.20927 9.9164 2.87654 10.2243 3.58935 10.8286ZM46.7445 16.4567C47.113 16.1503 47.3677 15.7147 47.5014 15.2494C47.7604 14.3456 47.5868 13.3639 47.2354 12.497C46.8783 12.2857 46.5809 11.9948 46.3447 11.6401C45.7216 12.4233 45.4171 13.9711 45.2848 15.177C45.9435 15.4054 46.4386 15.8481 46.7445 16.4567Z" fill="#000200" stroke="#000200" stroke-width="0.0306625"/>
<path fill-rule="evenodd" clip-rule="evenodd" d="M75.0762 20.5821V18.7321V18.6555H75.1531H75.3138H75.3508H75.523H75.5785L75.5955 18.708L76.0352 20.0189L76.0523 20.07L76.0779 19.9962L76.5218 18.7094L76.5388 18.6584H76.5929H76.7366H76.7622H76.923H76.9998V18.735V20.585V20.6616H76.923H76.6868H76.61V20.585V19.4883L76.2201 20.6091L76.2016 20.6602H76.1476H75.9256H75.8716L75.8545 20.6077L75.4675 19.4699V20.5821V20.6588H75.3907H75.1545H75.0777L75.0762 20.5821Z" fill="#000200"/>
<path fill-rule="evenodd" clip-rule="evenodd" d="M73.9723 20.5826V19.0262H73.4373H73.3605V18.9496V18.7312V18.6545H73.4373H74.9084H74.9853V18.7312V18.9496V19.0262H74.9084H74.3706V20.5826V20.6592H74.2938H74.0491H73.9723V20.5826Z" fill="#000200"/>
<path fill-rule="evenodd" clip-rule="evenodd" d="M28.7948 9.61656C28.4491 11.5815 28.1816 13.2215 27.6453 15.2106C26.204 18.2736 25.2436 18.0934 23.643 15.4177C23.0753 14.1664 23.0953 11.1729 23.2916 9.05049C23.367 6.85716 20.9853 5.93641 20.2327 8.23331C19.7859 8.15103 19.3079 8.20778 18.8113 8.40498C16.6132 9.36829 14.7906 10.35 13.1374 11.5347C12.7575 11.6964 12.6309 11.7404 12.5554 11.4127L12.739 6.921C12.7333 6.6103 12.6678 6.35777 12.5611 6.16056C12.2695 6.43438 11.975 6.70535 11.6776 6.97349C11.3802 6.96782 11.1498 6.69117 11.2052 6.40742C11.4813 6.1705 11.7672 5.93073 12.0504 5.69097C11.2038 5.34906 9.90342 6.20171 10.1069 8.02192L10.2591 13.1861C8.40668 13.8458 8.32273 15.4078 9.38554 17.1939L9.55342 19.8923C9.79956 20.7819 10.5636 21.2486 11.2508 21.1678C11.8996 21.0798 12.5697 20.7464 12.8002 19.9548C12.9424 19.0553 12.9083 18.3445 12.8628 17.5075C12.904 17.228 12.9254 17.1173 13.3024 17.1727L17.7215 18.4694C18.706 18.7489 19.803 18.6013 20.2142 17.6125C20.5172 16.2051 19.4601 16.0334 18.2863 15.8972C16.7085 15.7398 15.1321 15.3908 13.5542 14.9552C13.2683 14.8531 13.0691 14.7367 13.2569 14.609L16.4993 13.03C17.6945 12.4228 18.8369 11.9007 20.015 11.2325L20.0306 11.4566C20.281 14.1735 20.8558 16.5456 22.4522 18.6155C24.4953 20.6741 26.7318 20.894 28.7066 18.8397C30.165 17.0691 30.4879 15.0361 30.9745 12.5689C31.1068 11.756 31.2491 10.9516 31.5223 10.2053C31.7428 9.66764 32.2806 8.69723 32.3845 8.14252C32.595 5.69806 28.9371 5.34338 28.7948 9.61656Z" fill="#FE9DE2" stroke="#000200" stroke-width="0.0306625"/>
<path fill-rule="evenodd" clip-rule="evenodd" d="M42.0749 18.8723C39.2635 18.0168 36.6029 16.8634 34.0277 15.5383L33.8983 18.0934C33.554 19.5491 31.3857 19.5363 30.9916 18.2013C30.6401 16.0179 30.9773 14.0075 32.0032 12.1675L32.2393 9.80529C32.43 7.96805 34.1515 7.64884 34.6509 8.62492C36.1918 7.42326 37.8763 6.99197 40.0987 7.1225C42.6212 7.60202 42.9442 8.68309 42.2513 10.1713C41.2141 11.6411 38.4938 12.5874 35.8773 13.4131C37.717 14.6332 39.5936 15.4731 41.4844 16.1739C41.4076 12.7548 42.2072 9.81381 44.7283 7.57223C46.1169 5.68675 49.4462 7.37077 50.1291 9.55844C52.3999 15.1468 51.6216 18.922 47.1627 20.5067C45.0043 20.9394 43.1747 20.6755 42.0749 18.8723ZM43.7907 16.4222C45.2064 16.2633 45.747 16.9783 45.6901 18.2906C48.2098 18.1913 50.149 15.1865 48.298 11.4283C47.3917 11.1942 47.2651 10.2465 47.0403 9.7528C44.8678 9.88332 43.8419 13.0527 43.7907 16.4222ZM35.3011 11.146L35.6355 10.8367C36.943 9.98263 37.7867 9.6847 38.6659 9.77692C37.5861 10.316 36.4678 10.78 35.3011 11.146Z" fill="#FE9DE2" stroke="#000200" stroke-width="0.0306625"/>
<path fill-rule="evenodd" clip-rule="evenodd" d="M65.0211 17.5871C65.9829 16.9374 67.1737 19.3407 65.5731 20.1195C64.4207 20.7424 63.4575 20.5806 62.9111 18.6909L61.6136 12.5535C61.1569 13.9283 60.6432 15.303 59.9262 16.6777C58.8904 18.3007 57.4577 17.7815 56.843 16.6777L55.48 13.5608L55.4146 18.0425C55.241 19.8769 52.6672 20.809 52.202 18.1731C51.8819 15.1441 51.8819 12.1733 53.2079 9.40538C53.8894 9.17839 53.5977 8.56124 53.7926 8.13847C54.3248 7.01058 56.0178 6.98221 56.4859 9.01523L58.3355 13.8857L60.6518 9.09043C62.0959 6.82189 64.1489 8.16258 64.1631 11.8456C64.3524 13.7594 64.5231 15.6733 65.0211 17.5871Z" fill="#FE9DE2" stroke="#000200" stroke-width="0.0306625"/>
<path fill-rule="evenodd" clip-rule="evenodd" d="M70.5855 11.898C71.1717 6.7807 68.1611 7.85325 68.0815 10.1714L67.9122 16.7046C67.6532 17.8382 67.528 19.1803 68.0815 19.9535C68.9166 20.5749 70.2924 20.8672 70.5855 19.1079V11.898Z" fill="#FE9DE2" stroke="#000200" stroke-width="0.0306625"/>
<path fill-rule="evenodd" clip-rule="evenodd" d="M70.2925 7.35664C71.7408 9.14422 73.7654 7.15376 72.4992 5.73646C72.0254 5.37327 71.5587 4.99021 71.1063 4.5802C71.3965 4.35037 71.6967 4.12763 72.0069 3.90915C73.7555 3.01819 72.8307 0.569485 70.6539 2.04779L69.5526 2.9657C69.3392 2.70749 69.1329 2.44077 68.9352 2.16129C68.0758 0.688657 65.7211 1.17102 66.865 3.40976L67.7713 4.45252L66.7982 5.26403C65.0055 6.70828 66.8992 8.62639 68.3205 7.36231C68.6264 6.96649 68.9551 6.58627 69.3051 6.2174L70.2925 7.35664Z" fill="#FE9DE2" stroke="#000200" stroke-width="0.0306625"/>
</svg>
